<?xml version="1.0" encoding="utf-8"?><svg xmlns="http://www.w3.org/2000/svg" xmlns:xlink="http://www.w3.org/1999/xlink"><symbol viewBox="0 0 3813 1090" id="logo" xmlns="http://www.w3.org/2000/svg"><path d="M1361.38 485.935h-58.15V301.95h-57.42v-26.953h172.99v26.953h-57.42v183.985zm203.99-154.248l-27.83 46.142c-1.17-3.906-2.69-8.301-4.54-13.183-1.86-4.883-4.15-9.424-6.89-13.624-2.73-4.296-6-7.861-9.81-10.693-3.81-2.93-8.2-4.394-13.18-4.394-4.59 0-8.6 1.171-12.02 3.515-3.32 2.344-6.15 5.42-8.49 9.229-2.35 3.711-4.3 7.959-5.86 12.744a117.667 117.667 0 00-3.52 14.355c-.78 4.785-1.32 9.424-1.61 13.916-.29 4.395-.44 8.203-.44 11.426v84.815h-49.66v-169.19h19.05l20.06 39.404c2.74-6.347 5.86-12.158 9.38-17.431 3.52-5.371 7.57-9.961 12.16-13.77 4.59-3.906 9.76-6.933 15.53-9.082 5.85-2.148 12.45-3.222 19.77-3.222 3.81 0 8.06.341 12.74 1.025 4.69.586 9.28 1.66 13.77 3.223 4.5 1.464 8.65 3.418 12.46 5.859 3.8 2.441 6.78 5.42 8.93 8.936zm-.06 81.884c0-7.715.63-15.722 1.9-24.023a208.755 208.755 0 015.71-24.902 232.662 232.662 0 019.09-24.61 208.321 208.321 0 0111.86-23.291h36.18c-2.44 7.324-4.64 14.99-6.59 22.998a395.956 395.956 0 00-4.83 23.877c-1.27 7.91-2.3 15.674-3.08 23.291-.68 7.617-1.02 14.697-1.02 21.24 0 3.809.14 7.911.43 12.305.4 4.297 1.03 8.643 1.91 13.037.88 4.297 2.1 8.447 3.66 12.451 1.66 4.004 3.76 7.569 6.3 10.694 2.54 3.027 5.62 5.468 9.23 7.324 3.71 1.758 8.06 2.637 13.04 2.637 4.88 0 9.22-1.075 13.03-3.223 3.91-2.246 7.33-5.127 10.26-8.643 2.93-3.613 5.42-7.714 7.47-12.304a92.845 92.845 0 004.98-14.063c1.37-4.883 2.34-9.619 2.93-14.209.68-4.687 1.02-8.886 1.02-12.597v-84.815h49.51v169.19h-19.04l-22.7-39.405c-2.84 6.543-6.3 12.5-10.4 17.871-4.01 5.274-8.6 9.815-13.77 13.623-5.18 3.809-10.94 6.739-17.29 8.789-6.25 2.051-13.04 3.077-20.36 3.077-11.72 0-21.92-1.905-30.62-5.713-8.69-3.809-15.91-9.082-21.67-15.821-5.77-6.738-10.06-14.746-12.9-24.023-2.83-9.375-4.24-19.629-4.24-30.762zm350.91 18.311c0 7.422-1.08 14.014-3.22 19.775-2.15 5.762-5.08 10.791-8.79 15.088-3.71 4.199-8.11 7.764-13.19 10.693-5.07 2.833-10.54 5.127-16.4 6.885-5.76 1.758-11.82 3.028-18.17 3.809a154.42 154.42 0 01-18.89 1.172c-8.4 0-15.82-.537-22.27-1.612-6.44-1.074-12.6-2.783-18.46-5.127-5.86-2.441-11.71-5.566-17.57-9.375-5.77-3.808-12.21-8.447-19.34-13.916l28.86-23.584c2.63 4.981 6.1 9.522 10.4 13.623 4.39 4.004 8.93 7.471 13.62 10.401 4.69 2.93 9.23 5.176 13.62 6.738 4.4 1.563 7.96 2.344 10.7 2.344 2.24 0 4.78-.049 7.61-.147 2.84-.195 5.72-.488 8.65-.878a65.372 65.372 0 008.64-2.051c2.83-.879 5.32-2.051 7.47-3.516 2.25-1.562 4-3.467 5.27-5.713 1.37-2.344 2.05-5.127 2.05-8.349 0-3.321-.87-6.202-2.63-8.643-1.66-2.539-3.86-4.736-6.59-6.592-2.74-1.855-5.86-3.418-9.38-4.687-3.51-1.27-7.08-2.393-10.69-3.369-3.52-.977-6.94-1.807-10.26-2.491-3.32-.781-6.2-1.513-8.64-2.197a572.716 572.716 0 00-14.21-3.809c-4.98-1.367-9.91-2.88-14.79-4.541a113.376 113.376 0 01-14.07-6.152c-4.39-2.344-8.3-5.127-11.71-8.349-3.32-3.321-6.01-7.178-8.06-11.573-1.95-4.492-2.93-9.717-2.93-15.674 0-10.937 2.15-20.068 6.44-27.392 4.4-7.422 10.16-13.33 17.29-17.725 7.13-4.492 15.23-7.666 24.32-9.521a137.886 137.886 0 0127.68-2.783c6.45 0 13.23.683 20.36 2.05a109.56 109.56 0 0120.8 5.86c6.74 2.539 13.04 5.664 18.9 9.375 5.86 3.711 10.74 7.959 14.65 12.744l-28.86 23.73c-2.15-5.859-4.98-10.888-8.49-15.088-3.42-4.199-7.18-7.617-11.28-10.253-4.01-2.735-8.16-4.737-12.45-6.006-4.2-1.27-8.11-1.905-11.72-1.905-3.52 0-7.47.147-11.87.44-4.39.293-8.54 1.123-12.45 2.49-3.81 1.367-7.08 3.467-9.81 6.299-2.64 2.734-3.96 6.543-3.96 11.426 0 3.515.78 6.543 2.34 9.082 1.66 2.441 3.81 4.59 6.45 6.445 2.64 1.758 5.61 3.271 8.93 4.541a183.43 183.43 0 0010.41 3.223c3.51.879 6.93 1.66 10.25 2.343 3.32.684 6.3 1.416 8.93 2.198 4.5 1.269 9.23 2.588 14.21 3.955a155.656 155.656 0 0114.95 4.541 99.757 99.757 0 0114.06 6.006c4.59 2.246 8.59 5.029 12.01 8.349 3.42 3.321 6.15 7.227 8.2 11.719 2.05 4.395 3.08 9.619 3.08 15.674zm86.07 54.053h-49.66V336.374h-30.76v-19.629h30.76v-62.256h49.66v62.256h51.27v19.629h-51.27v149.561zm186.49-157.325l-16.41 157.325h-35.89l35.89-210.938h53.18l49.36 160.986 49.95-160.986h53.18l29.88 210.938h-59.18l-17.43-153.223-41.16 153.223h-53.18l-48.19-157.325zm412 157.325h-49.52V465.72c-5.86 8.008-12.94 13.965-21.24 17.871-8.2 3.808-17.23 5.713-27.1 5.713-12.89 0-24.41-2.295-34.57-6.885-10.15-4.59-18.75-10.84-25.78-18.75-7.03-8.008-12.4-17.383-16.11-28.125-3.71-10.742-5.57-22.266-5.57-34.57 0-12.305 1.86-23.828 5.57-34.571 3.71-10.742 9.08-20.068 16.11-27.978 7.03-8.008 15.63-14.307 25.78-18.897 10.16-4.59 21.68-6.884 34.57-6.884 6.55 0 12.75.976 18.61 2.929 5.95 1.953 11.37 4.737 16.26 8.35 4.98 3.515 9.32 7.812 13.03 12.89 3.81 4.981 6.79 10.547 8.94 16.7l21.97-36.768h19.05v169.19zm-49.81-84.961c0-4.395-.24-9.034-.73-13.916-.39-4.883-1.12-9.717-2.2-14.502a69.643 69.643 0 00-4.54-13.623c-1.86-4.395-4.3-8.252-7.32-11.573-2.93-3.418-6.5-6.103-10.7-8.056-4.2-1.953-9.08-2.93-14.65-2.93-5.56 0-10.4 1.025-14.5 3.076-4.1 1.953-7.62 4.639-10.54 8.057-2.93 3.32-5.38 7.178-7.33 11.572a80.941 80.941 0 00-4.39 13.77 120.403 120.403 0 00-2.35 14.502c-.39 4.785-.58 9.326-.58 13.623 0 4.297.19 8.886.58 13.769.49 4.883 1.27 9.717 2.35 14.502a80.97 80.97 0 004.39 13.77c1.95 4.394 4.4 8.3 7.33 11.718 2.92 3.321 6.44 6.006 10.54 8.057 4.1 1.953 8.94 2.93 14.5 2.93 5.08 0 9.57-1.026 13.48-3.076 4-2.149 7.47-4.981 10.4-8.497 3.03-3.515 5.57-7.519 7.62-12.011a87.561 87.561 0 004.98-13.916c1.27-4.785 2.2-9.522 2.78-14.209.59-4.785.88-9.131.88-13.037zm238.41-42.334l-21.38 8.496c-3.42-10.742-9.13-18.994-17.14-24.756-8.01-5.762-17.63-8.643-28.86-8.643-6.05 0-11.47.977-16.26 2.93-4.69 1.855-8.84 4.443-12.45 7.764-3.52 3.32-6.54 7.177-9.08 11.572a75.18 75.18 0 00-6.01 14.062c-1.56 4.981-2.68 10.157-3.37 15.528-.68 5.273-1.02 10.4-1.02 15.381 0 5.371.29 10.791.88 16.259.58 5.469 1.56 10.743 2.93 15.821 1.46 4.98 3.36 9.668 5.71 14.062 2.34 4.297 5.27 8.057 8.79 11.28 3.61 3.222 7.86 5.761 12.74 7.617 4.98 1.855 10.69 2.783 17.14 2.783 5.18 0 10.11-.781 14.79-2.344 4.69-1.562 8.99-3.76 12.9-6.592 3.9-2.832 7.37-6.201 10.4-10.107 3.02-3.906 5.42-8.252 7.17-13.037l21.54 7.91c-3.23 7.715-7.52 14.404-12.89 20.068a73.618 73.618 0 01-18.02 13.916c-6.74 3.614-13.97 6.299-21.68 8.057a105.218 105.218 0 01-23.44 2.637c-12.79 0-24.66-2.149-35.59-6.446-10.94-4.394-20.41-10.498-28.42-18.31-7.91-7.91-14.11-17.236-18.61-27.979-4.49-10.84-6.73-22.705-6.73-35.595 0-12.989 2.19-24.903 6.59-35.743 4.49-10.839 10.69-20.166 18.6-27.978 7.91-7.813 17.34-13.867 28.27-18.164 10.94-4.297 22.9-6.445 35.89-6.445 8.2 0 16.21.927 24.02 2.783 7.82 1.758 15.04 4.541 21.68 8.349 6.74 3.711 12.75 8.448 18.02 14.209 5.37 5.762 9.67 12.647 12.89 20.655zm190.66 205.371h-49.51V465.72c-5.86 8.008-12.94 13.965-21.24 17.871-8.2 3.808-17.24 5.713-27.1 5.713-12.89 0-24.41-2.295-34.57-6.885s-18.75-10.84-25.78-18.75c-7.03-8.008-12.4-17.383-16.12-28.125-3.71-10.742-5.56-22.266-5.56-34.57 0-12.305 1.85-23.828 5.56-34.571 3.72-10.742 9.09-20.068 16.12-27.978 7.03-8.008 15.62-14.307 25.78-18.897 10.16-4.59 21.68-6.884 34.57-6.884 6.54 0 12.74.976 18.6 2.929 5.96 1.953 11.38 4.737 16.26 8.35 4.98 3.515 9.33 7.812 13.04 12.89 3.81 4.981 6.79 10.547 8.94 16.7l21.97-36.768h19.04v247.266zm-49.8-163.037c0-4.395-.25-9.034-.74-13.916-.39-4.883-1.12-9.717-2.19-14.502-1.08-4.785-2.59-9.327-4.54-13.623-1.86-4.395-4.3-8.252-7.33-11.573-2.93-3.418-6.49-6.103-10.69-8.056-4.2-1.953-9.08-2.93-14.65-2.93s-10.4 1.025-14.5 3.076c-4.1 1.953-7.62 4.639-10.55 8.057-2.93 3.32-5.37 7.178-7.32 11.572-1.86 4.395-3.32 8.984-4.4 13.77a122.394 122.394 0 00-2.34 14.502c-.39 4.785-.59 9.326-.59 13.623 0 4.297.2 8.886.59 13.769.49 4.883 1.27 9.717 2.34 14.502 1.08 4.785 2.54 9.375 4.4 13.77 1.95 4.394 4.39 8.3 7.32 11.718 2.93 3.321 6.45 6.006 10.55 8.057 4.1 1.953 8.93 2.93 14.5 2.93 5.08 0 9.57-1.026 13.48-3.076 4-2.149 7.47-4.981 10.4-8.497 3.02-3.515 5.56-7.519 7.61-12.011a87.561 87.561 0 004.98-13.916c1.27-4.785 2.2-9.522 2.79-14.209.58-4.785.88-9.131.88-13.037zm73.61 12.597c0-7.715.64-15.722 1.91-24.023 1.36-8.301 3.27-16.602 5.71-24.902a234.816 234.816 0 019.08-24.61c3.52-8.105 7.47-15.869 11.87-23.291h36.18c-2.44 7.324-4.64 14.99-6.59 22.998a396.02 396.02 0 00-4.84 23.877 411.119 411.119 0 00-3.07 23.291c-.69 7.617-1.03 14.697-1.03 21.24 0 3.809.15 7.911.44 12.305.39 4.297 1.03 8.643 1.91 13.037.87 4.297 2.1 8.447 3.66 12.451 1.66 4.004 3.76 7.569 6.3 10.694 2.54 3.027 5.61 5.468 9.23 7.324 3.71 1.758 8.05 2.637 13.03 2.637 4.89 0 9.23-1.075 13.04-3.223 3.91-2.246 7.32-5.127 10.25-8.643 2.93-3.613 5.42-7.714 7.47-12.304a90.715 90.715 0 004.98-14.063c1.37-4.883 2.35-9.619 2.93-14.209.69-4.687 1.03-8.886 1.03-12.597v-84.815h49.51v169.19h-19.04l-22.71-39.405c-2.83 6.543-6.3 12.5-10.4 17.871-4 5.274-8.59 9.815-13.77 13.623-5.17 3.809-10.93 6.739-17.28 8.789-6.25 2.051-13.04 3.077-20.36 3.077-11.72 0-21.93-1.905-30.62-5.713-8.69-3.809-15.92-9.082-21.68-15.821-5.76-6.738-10.06-14.746-12.89-24.023-2.83-9.375-4.25-19.629-4.25-30.762zm375.67 72.364h-49.51V465.72c-5.86 8.008-12.94 13.965-21.24 17.871-8.2 3.808-17.24 5.713-27.1 5.713-12.89 0-24.41-2.295-34.57-6.885s-18.75-10.84-25.78-18.75c-7.03-8.008-12.4-17.383-16.11-28.125-3.72-10.742-5.57-22.266-5.57-34.57 0-12.305 1.85-23.828 5.57-34.571 3.71-10.742 9.08-20.068 16.11-27.978 7.03-8.008 15.62-14.307 25.78-18.897 10.16-4.59 21.68-6.884 34.57-6.884 6.54 0 12.74.976 18.6 2.929 5.96 1.953 11.38 4.737 16.26 8.35 4.98 3.515 9.33 7.812 13.04 12.89 3.81 4.981 6.79 10.547 8.94 16.7l21.97-36.768h19.04v169.19zm-49.8-84.961c0-4.395-.25-9.034-.74-13.916-.39-4.883-1.12-9.717-2.19-14.502-1.08-4.785-2.59-9.327-4.54-13.623-1.86-4.395-4.3-8.252-7.33-11.573-2.93-3.418-6.49-6.103-10.69-8.056-4.2-1.953-9.08-2.93-14.65-2.93s-10.4 1.025-14.5 3.076c-4.1 1.953-7.62 4.639-10.55 8.057-2.93 3.32-5.37 7.178-7.32 11.572-1.86 4.395-3.32 8.984-4.4 13.77a122.394 122.394 0 00-2.34 14.502c-.39 4.785-.59 9.326-.59 13.623 0 4.297.2 8.886.59 13.769.49 4.883 1.27 9.717 2.34 14.502 1.08 4.785 2.54 9.375 4.4 13.77 1.95 4.394 4.39 8.3 7.32 11.718 2.93 3.321 6.45 6.006 10.55 8.057 4.1 1.953 8.93 2.93 14.5 2.93 5.08 0 9.57-1.026 13.48-3.076 4-2.149 7.47-4.981 10.4-8.497 3.02-3.515 5.56-7.519 7.61-12.011a86.586 86.586 0 004.98-13.916c1.27-4.785 2.2-9.522 2.79-14.209.58-4.785.88-9.131.88-13.037zm226.1-69.287l-27.83 46.142c-1.17-3.906-2.68-8.301-4.54-13.183-1.85-4.883-4.15-9.424-6.88-13.624-2.74-4.296-6.01-7.861-9.82-10.693-3.81-2.93-8.2-4.394-13.18-4.394-4.59 0-8.6 1.171-12.01 3.515-3.32 2.344-6.16 5.42-8.5 9.229-2.34 3.711-4.3 7.959-5.86 12.744a117.635 117.635 0 00-3.51 14.355c-.79 4.785-1.32 9.424-1.62 13.916-.29 4.395-.44 8.203-.44 11.426v84.815h-49.65v-169.19h19.04l20.07 39.404c2.73-6.347 5.86-12.158 9.37-17.431 3.52-5.371 7.57-9.961 12.16-13.77 4.59-3.906 9.77-6.933 15.53-9.082 5.86-2.148 12.45-3.222 19.77-3.222 3.81 0 8.06.341 12.75 1.025 4.69.586 9.28 1.66 13.77 3.223 4.49 1.464 8.64 3.418 12.45 5.859 3.81 2.441 6.79 5.42 8.93 8.936zm63.81-55.811c0 3.711-.74 7.227-2.2 10.547-1.37 3.32-3.27 6.201-5.71 8.642-2.44 2.442-5.33 4.395-8.65 5.86-3.32 1.367-6.83 2.051-10.54 2.051-3.71 0-7.23-.684-10.55-2.051-3.22-1.465-6.05-3.418-8.5-5.86-2.44-2.441-4.39-5.322-5.86-8.642-1.36-3.32-2.05-6.836-2.05-10.547 0-3.711.69-7.178 2.05-10.4 1.47-3.321 3.42-6.202 5.86-8.643a26.716 26.716 0 018.5-5.713c3.32-1.465 6.84-2.197 10.55-2.197 3.71 0 7.22.732 10.54 2.197 3.32 1.367 6.21 3.272 8.65 5.713 2.44 2.441 4.34 5.322 5.71 8.643 1.46 3.222 2.2 6.689 2.2 10.4zm-2.2 210.059h-49.66V316.892h49.66v169.043zm73.32-80.274a196.835 196.835 0 0018.17 3.223c6.05.781 12.16 1.172 18.31 1.172 6.44 0 12.4-.586 17.87-1.758 5.57-1.27 10.35-3.32 14.36-6.152 4.1-2.93 7.32-6.788 9.66-11.573 2.35-4.785 3.52-10.742 3.52-17.871 0-5.762-.78-11.035-2.35-15.82-1.56-4.785-3.9-8.887-7.03-12.305-3.02-3.418-6.78-6.055-11.28-7.91-4.49-1.953-9.71-2.93-15.67-2.93-5.57 0-10.6 1.026-15.09 3.076a39.638 39.638 0 00-11.72 8.35c-3.32 3.418-6.2 7.422-8.64 12.012a92.32 92.32 0 00-5.86 14.355 91.71 91.71 0 00-3.37 15.088c-.68 5.078-1.02 9.863-1.02 14.356v2.343c0 .782.05 1.563.14 2.344zm122.03-33.398c0 6.933-1.13 13.134-3.37 18.603-2.25 5.371-5.33 10.108-9.23 14.209-3.81 4.102-8.25 7.569-13.33 10.401s-10.5 5.175-16.26 7.031a107.515 107.515 0 01-17.87 3.808c-6.06.782-11.97 1.172-17.73 1.172-7.32 0-14.55-.488-21.68-1.465a132.137 132.137 0 01-21.09-4.98c1.07 6.445 2.78 12.598 5.13 18.457 2.34 5.762 5.46 10.84 9.37 15.234 3.91 4.297 8.69 7.715 14.36 10.254 5.76 2.539 12.54 3.809 20.36 3.809 5.17 0 10.1-.781 14.79-2.344 4.69-1.562 8.99-3.76 12.89-6.592a47.86 47.86 0 0010.26-10.107c3.02-3.906 5.47-8.252 7.32-13.037l21.39 7.91c-3.22 7.715-7.67 14.404-13.33 20.068-5.57 5.567-11.92 10.205-19.05 13.916-7.03 3.614-14.55 6.299-22.55 8.057-7.91 1.758-15.78 2.637-23.59 2.637-12.89 0-24.8-2.149-35.74-6.446-10.94-4.394-20.36-10.498-28.27-18.31-7.91-7.813-14.11-17.139-18.6-27.979-4.5-10.84-6.74-22.705-6.74-35.595 0-12.891 2.24-24.756 6.74-35.596 4.49-10.84 10.69-20.166 18.6-27.979 7.91-7.812 17.33-13.867 28.27-18.164 10.94-4.394 22.85-6.591 35.74-6.591 6.25 0 12.65.439 19.19 1.318 6.54.879 12.89 2.295 19.04 4.248 6.16 1.855 11.97 4.297 17.44 7.324 5.47 3.028 10.2 6.787 14.21 11.279 4.1 4.395 7.32 9.522 9.66 15.381 2.44 5.86 3.67 12.549 3.67 20.069zM1455.43 667.292l-25.05 10.547c-1.96-6.348-4.59-12.158-7.91-17.432-3.23-5.273-7.13-9.765-11.72-13.476-4.49-3.809-9.62-6.739-15.38-8.789-5.76-2.149-12.06-3.223-18.9-3.223-7.32 0-14.06 1.221-20.21 3.662-6.06 2.344-11.53 5.615-16.41 9.815-4.79 4.199-8.98 9.082-12.6 14.648a96.114 96.114 0 00-9.08 17.871 100.898 100.898 0 00-5.42 19.482c-1.17 6.739-1.76 13.331-1.76 19.776 0 10.254 1.17 20.459 3.52 30.615 2.44 10.156 6.25 19.287 11.42 27.393 5.28 8.105 12.06 14.697 20.36 19.775 8.31 4.981 18.36 7.471 30.18 7.471 6.25 0 12.16-1.026 17.73-3.076 5.56-2.149 10.59-5.03 15.08-8.643 4.59-3.711 8.6-8.057 12.01-13.037a69.517 69.517 0 008.21-16.113l25.34 10.107c-3.71 9.277-8.79 17.432-15.23 24.463a88.531 88.531 0 01-22.12 17.285c-8.21 4.59-17.04 8.008-26.52 10.254a116.72 116.72 0 01-28.42 3.516c-10.35 0-20.31-1.27-29.88-3.809-9.47-2.539-18.31-6.152-26.51-10.84a108.28 108.28 0 01-22.41-16.992 110.715 110.715 0 01-17.14-22.119c-4.69-8.106-8.35-16.895-10.99-26.367-2.54-9.571-3.81-19.532-3.81-29.883 0-10.352 1.27-20.264 3.81-29.736 2.64-9.571 6.3-18.409 10.99-26.514a108.909 108.909 0 0117.14-22.266 108.35 108.35 0 0122.41-16.992c8.2-4.687 17.04-8.301 26.51-10.84 9.57-2.539 19.53-3.808 29.88-3.808 9.97 0 19.68 1.171 29.16 3.515 9.57 2.344 18.45 5.908 26.66 10.694 8.2 4.687 15.47 10.644 21.82 17.871 6.45 7.129 11.52 15.527 15.24 25.195zm192.12 158.643h-49.51V805.72c-5.86 8.008-12.94 13.965-21.24 17.871-8.21 3.808-17.24 5.713-27.1 5.713-12.89 0-24.42-2.295-34.57-6.885-10.16-4.59-18.75-10.84-25.78-18.75-7.04-8.008-12.41-17.383-16.12-28.125-3.71-10.742-5.56-22.266-5.56-34.57 0-12.305 1.85-23.828 5.56-34.571 3.71-10.742 9.08-20.068 16.12-27.978 7.03-8.008 15.62-14.307 25.78-18.897 10.15-4.59 21.68-6.884 34.57-6.884 6.54 0 12.74.976 18.6 2.929 5.96 1.953 11.38 4.737 16.26 8.35 4.98 3.515 9.33 7.812 13.04 12.89 3.81 4.981 6.78 10.547 8.93 16.7l21.98-36.768h19.04v169.19zm-49.81-84.961c0-4.395-.24-9.034-.73-13.916-.39-4.883-1.12-9.717-2.2-14.502-1.07-4.785-2.58-9.327-4.54-13.623-1.85-4.395-4.29-8.252-7.32-11.573-2.93-3.418-6.49-6.103-10.69-8.056-4.2-1.953-9.09-2.93-14.65-2.93-5.57 0-10.4 1.025-14.5 3.076a31.588 31.588 0 00-10.55 8.057c-2.93 3.32-5.37 7.178-7.33 11.572a80.941 80.941 0 00-4.39 13.77 120.377 120.377 0 00-2.34 14.502c-.39 4.785-.59 9.326-.59 13.623 0 4.297.2 8.886.59 13.769.48 4.883 1.27 9.717 2.34 14.502a80.97 80.97 0 004.39 13.77c1.96 4.394 4.4 8.3 7.33 11.718 2.93 3.321 6.44 6.006 10.55 8.057 4.1 1.953 8.93 2.93 14.5 2.93 5.08 0 9.57-1.026 13.47-3.076 4.01-2.149 7.47-4.981 10.4-8.497 3.03-3.515 5.57-7.519 7.62-12.011a87.561 87.561 0 004.98-13.916c1.27-4.785 2.2-9.522 2.79-14.209.58-4.785.87-9.131.87-13.037zm262.15 0c0 12.304-1.86 23.828-5.57 34.57s-9.08 20.117-16.11 28.125c-7.03 7.91-15.63 14.16-25.78 18.75-10.16 4.59-21.68 6.885-34.57 6.885-9.87 0-18.95-1.905-27.25-5.713-8.2-3.906-15.23-9.863-21.09-17.871v98.291H1680V656.745h19.05l21.97 36.768c2.15-6.153 5.08-11.719 8.79-16.7 3.81-5.078 8.15-9.375 13.04-12.89a59.634 59.634 0 0116.26-8.35c5.95-1.953 12.2-2.929 18.75-2.929 12.89 0 24.41 2.294 34.57 6.884 10.15 4.59 18.75 10.889 25.78 18.897 7.03 7.91 12.4 17.236 16.11 27.978 3.71 10.743 5.57 22.266 5.57 34.571zm-50.25 0c0-4.297-.24-8.838-.73-13.623-.39-4.883-1.12-9.717-2.2-14.502a73.311 73.311 0 00-4.54-13.77c-1.85-4.394-4.25-8.252-7.18-11.572-2.93-3.418-6.49-6.104-10.69-8.057-4.1-2.051-8.89-3.076-14.35-3.076-5.67 0-10.6.977-14.8 2.93a33.158 33.158 0 00-10.69 8.056c-2.93 3.321-5.37 7.178-7.33 11.573a76.677 76.677 0 00-4.39 13.623 120.403 120.403 0 00-2.35 14.502 175 175 0 00-.58 13.916c0 3.906.29 8.252.88 13.037.58 4.687 1.51 9.424 2.78 14.209a87.561 87.561 0 004.98 13.916c2.05 4.492 4.54 8.496 7.47 12.011 3.03 3.516 6.5 6.348 10.4 8.497 4.01 2.05 8.55 3.076 13.63 3.076 5.56 0 10.4-.977 14.5-2.93 4.1-2.051 7.61-4.736 10.54-8.057 2.93-3.418 5.33-7.324 7.18-11.718a73.335 73.335 0 004.54-13.77c1.08-4.785 1.81-9.619 2.2-14.502.49-4.883.73-9.472.73-13.769zm125.18-125.098c0 3.711-.73 7.227-2.2 10.547-1.36 3.32-3.27 6.201-5.71 8.642-2.44 2.442-5.32 4.395-8.64 5.86-3.32 1.367-6.84 2.051-10.55 2.051-3.71 0-7.22-.684-10.54-2.051-3.23-1.465-6.06-3.418-8.5-5.86-2.44-2.441-4.39-5.322-5.86-8.642-1.37-3.32-2.05-6.836-2.05-10.547 0-3.711.68-7.178 2.05-10.4 1.47-3.321 3.42-6.202 5.86-8.643a26.497 26.497 0 018.5-5.713c3.32-1.465 6.83-2.197 10.54-2.197 3.71 0 7.23.732 10.55 2.197 3.32 1.367 6.2 3.272 8.64 5.713 2.44 2.441 4.35 5.322 5.71 8.643 1.47 3.222 2.2 6.689 2.2 10.4zm-2.2 210.059h-49.65V656.892h49.65v169.043zm96.33 0h-49.66V676.374h-30.76v-19.629h30.76v-62.256h49.66v62.256h51.27v19.629h-51.27v149.561zm230.06 0h-49.51V805.72c-5.86 8.008-12.94 13.965-21.24 17.871-8.21 3.808-17.24 5.713-27.1 5.713-12.89 0-24.42-2.295-34.57-6.885-10.16-4.59-18.75-10.84-25.78-18.75-7.03-8.008-12.41-17.383-16.12-28.125-3.71-10.742-5.56-22.266-5.56-34.57 0-12.305 1.85-23.828 5.56-34.571 3.71-10.742 9.09-20.068 16.12-27.978 7.03-8.008 15.62-14.307 25.78-18.897 10.15-4.59 21.68-6.884 34.57-6.884 6.54 0 12.74.976 18.6 2.929 5.96 1.953 11.38 4.737 16.26 8.35 4.98 3.515 9.33 7.812 13.04 12.89 3.81 4.981 6.79 10.547 8.93 16.7l21.98-36.768h19.04v169.19zm-49.8-84.961c0-4.395-.25-9.034-.74-13.916-.39-4.883-1.12-9.717-2.19-14.502-1.08-4.785-2.59-9.327-4.55-13.623-1.85-4.395-4.29-8.252-7.32-11.573-2.93-3.418-6.49-6.103-10.69-8.056-4.2-1.953-9.09-2.93-14.65-2.93-5.57 0-10.4 1.025-14.5 3.076a31.588 31.588 0 00-10.55 8.057c-2.93 3.32-5.37 7.178-7.32 11.572-1.86 4.395-3.32 8.984-4.4 13.77a122.394 122.394 0 00-2.34 14.502c-.39 4.785-.59 9.326-.59 13.623 0 4.297.2 8.886.59 13.769.49 4.883 1.27 9.717 2.34 14.502 1.08 4.785 2.54 9.375 4.4 13.77 1.95 4.394 4.39 8.3 7.32 11.718 2.93 3.321 6.44 6.006 10.55 8.057 4.1 1.953 8.93 2.93 14.5 2.93 5.08 0 9.57-1.026 13.47-3.076a34.88 34.88 0 0010.41-8.497c3.02-3.515 5.56-7.519 7.61-12.011a87.561 87.561 0 004.98-13.916c1.27-4.785 2.2-9.522 2.79-14.209.58-4.785.88-9.131.88-13.037zm131.77 84.961h-49.52v-247.12h19.05l30.47 51.416v195.704z"/><path fill-rule="evenodd" clip-rule="evenodd" d="M24.968 519.943L0 544.912l24.968 24.968 127.596 127.596v-99.874l-52.69-52.69 52.69-52.69v-99.874L24.969 519.943zM237.31 307.602l70.317-70.317h99.874L237.31 407.476v-99.874zm0 374.746v99.874l70.317 70.317h99.874L237.31 682.348zm254.937 254.937l52.665 52.664 52.665-52.664h99.874L569.88 1064.85l-24.968 24.97-24.969-24.97-127.57-127.565h99.874zm289.95-84.746h-99.874l170.241-170.242v99.874l-70.367 70.368zM937.31 697.425l127.54-127.545 24.97-24.968-24.97-24.969-127.54-127.545v99.874l52.639 52.64-52.639 52.639v99.874zm-84.746-289.899v-99.874l-70.368-70.367h-99.874l170.242 170.241zM597.576 152.539h99.874L569.88 24.969 544.912 0l-24.969 24.968-127.57 127.571h99.874l52.665-52.665 52.664 52.665z"/><path d="M194.938 194.912h700v700h-700z"/><path d="M390.023 621.744h-42.309V488.959h-41.776v-19.453h125.861v19.453h-41.776v132.785zM467.987 508.2l-11.936 113.544h-26.11l26.11-152.238h38.685l35.915 116.187 36.341-116.187h38.686l21.741 152.238h-43.055L571.682 511.16l-29.947 110.584h-38.686L467.987 508.2zm318.177-.951l-18.223 7.611c-1.421-4.581-3.34-8.774-5.755-12.58-2.345-3.806-5.187-7.048-8.526-9.727-3.268-2.748-6.998-4.863-11.19-6.343-4.192-1.551-8.775-2.326-13.748-2.326-5.329 0-10.231.881-14.707 2.643a40.766 40.766 0 00-11.936 7.084c-3.481 3.03-6.536 6.554-9.165 10.572a69.04 69.04 0 00-6.608 12.898 72.413 72.413 0 00-3.943 14.06c-.852 4.864-1.279 9.621-1.279 14.273 0 7.4.853 14.765 2.558 22.095 1.776 7.33 4.547 13.92 8.313 19.77 3.836 5.85 8.774 10.608 14.813 14.273 6.039 3.594 13.357 5.391 21.954 5.391 4.547 0 8.845-.74 12.895-2.22 4.05-1.55 7.709-3.63 10.977-6.237a44.313 44.313 0 008.739-9.409 50.057 50.057 0 005.968-11.63l18.437 7.295c-2.7 6.696-6.394 12.581-11.083 17.655a64.278 64.278 0 01-16.093 12.475c-5.968 3.313-12.398 5.78-19.289 7.401a85.616 85.616 0 01-20.675 2.537c-7.531 0-14.778-.916-21.741-2.749-6.892-1.832-13.322-4.44-19.29-7.823a78.829 78.829 0 01-16.305-12.264 80.06 80.06 0 01-12.469-15.963c-3.41-5.85-6.075-12.194-7.993-19.03-1.847-6.907-2.771-14.096-2.771-21.567s.924-14.625 2.771-21.462c1.918-6.907 4.583-13.285 7.993-19.135a78.798 78.798 0 0112.469-16.07 78.86 78.86 0 0116.305-12.263c5.968-3.383 12.398-5.991 19.29-7.824 6.963-1.832 14.21-2.748 21.741-2.748 7.247 0 14.316.845 21.207 2.537 6.963 1.691 13.429 4.264 19.397 7.718 5.968 3.383 11.261 7.682 15.879 12.898 4.689 5.145 8.384 11.206 11.083 18.184z"/></symbol></svg>