<?xml version="1.0" encoding="utf-8"?><svg xmlns="http://www.w3.org/2000/svg" xmlns:xlink="http://www.w3.org/1999/xlink"><symbol viewBox="0 0 443.52 443.52" id="arrow" xmlns="http://www.w3.org/2000/svg"><path d="M336.226 209.591l-204.8-204.8c-6.78-6.548-17.584-6.36-24.132.42-6.388 6.614-6.388 17.099 0 23.712l192.734 192.734-192.734 192.734c-6.663 6.664-6.663 17.468 0 24.132 6.665 6.663 17.468 6.663 24.132 0l204.8-204.8c6.663-6.665 6.663-17.468 0-24.132z"/></symbol><symbol viewBox="0 0 512 512" id="check_mark" xmlns="http://www.w3.org/2000/svg"><path d="M504.502 75.496c-9.997-9.998-26.205-9.998-36.204 0L161.594 382.203 43.702 264.311c-9.997-9.998-26.205-9.997-36.204 0-9.998 9.997-9.998 26.205 0 36.203l135.994 135.992c9.994 9.997 26.214 9.99 36.204 0L504.502 111.7c9.998-9.997 9.997-26.206 0-36.204z"/></symbol><symbol viewBox="0 0 512.001 512.001" id="close" xmlns="http://www.w3.org/2000/svg"><path d="M284.286 256.002L506.143 34.144c7.811-7.811 7.811-20.475 0-28.285-7.811-7.81-20.475-7.811-28.285 0L256 227.717 34.143 5.859c-7.811-7.811-20.475-7.811-28.285 0-7.81 7.811-7.811 20.475 0 28.285l221.857 221.857L5.858 477.859c-7.811 7.811-7.811 20.475 0 28.285a19.938 19.938 0 0014.143 5.857 19.94 19.94 0 0014.143-5.857L256 284.287l221.857 221.857c3.905 3.905 9.024 5.857 14.143 5.857s10.237-1.952 14.143-5.857c7.811-7.811 7.811-20.475 0-28.285L284.286 256.002z"/></symbol><symbol viewBox="0 0 511.856 511.856" id="home" xmlns="http://www.w3.org/2000/svg"><path d="M498.456 259.312l-234.667-256c-4.032-4.416-11.691-4.416-15.723 0l-234.667 256a10.649 10.649 0 00-1.899 11.499 10.676 10.676 0 009.771 6.379h53.333v224c0 5.888 4.779 10.667 10.667 10.667h106.667c5.888 0 10.667-4.779 10.667-10.667v-160h106.667v160c0 5.888 4.779 10.667 10.667 10.667h106.667c5.888 0 10.667-4.779 10.667-10.667v-224h53.333c4.224 0 8.064-2.496 9.749-6.379a10.649 10.649 0 00-1.899-11.499zm-71.851-3.456c-5.888 0-10.667 4.779-10.667 10.667v224h-85.333v-160c0-5.888-4.779-10.667-10.667-10.667h-128c-5.888 0-10.667 4.779-10.667 10.667v160H95.939v-224c0-5.888-4.779-10.667-10.667-10.667H45.528L255.939 26.309 466.35 255.856h-39.745z"/></symbol><symbol viewBox="0 0 4500 2500" id="logo" xmlns="http://www.w3.org/2000/svg"><path d="M1705.38 1190.93h-58.15v-183.98h-57.42v-26.953h172.99v26.953h-57.42v183.98zm203.99-154.24l-27.83 46.14c-1.17-3.91-2.69-8.3-4.54-13.18-1.86-4.89-4.15-9.43-6.89-13.63-2.73-4.29-6-7.86-9.81-10.69-3.81-2.93-8.2-4.4-13.18-4.4-4.59 0-8.6 1.18-12.02 3.52-3.32 2.34-6.15 5.42-8.49 9.23-2.35 3.71-4.3 7.96-5.86 12.74-1.47 4.69-2.64 9.48-3.52 14.36-.78 4.78-1.32 9.42-1.61 13.91-.29 4.4-.44 8.21-.44 11.43v84.81h-49.66v-169.18h19.05l20.06 39.4c2.74-6.35 5.86-12.16 9.38-17.43 3.52-5.37 7.57-9.96 12.16-13.77 4.59-3.91 9.76-6.94 15.53-9.08 5.85-2.15 12.45-3.23 19.77-3.23 3.81 0 8.06.35 12.74 1.03 4.69.58 9.28 1.66 13.77 3.22 4.5 1.47 8.65 3.42 12.46 5.86 3.8 2.44 6.78 5.42 8.93 8.94zm-.06 81.88c0-7.71.63-15.72 1.9-24.02 1.37-8.3 3.27-16.6 5.71-24.9 2.54-8.31 5.57-16.51 9.09-24.61 3.51-8.11 7.47-15.87 11.86-23.29h36.18c-2.44 7.32-4.64 14.99-6.59 22.99-1.85 7.91-3.47 15.87-4.83 23.88-1.27 7.91-2.3 15.67-3.08 23.29-.68 7.62-1.02 14.7-1.02 21.24 0 3.81.14 7.91.43 12.31.4 4.29 1.03 8.64 1.91 13.03.88 4.3 2.1 8.45 3.66 12.45 1.66 4.01 3.76 7.57 6.3 10.7 2.54 3.03 5.62 5.47 9.23 7.32 3.71 1.76 8.06 2.64 13.04 2.64 4.88 0 9.22-1.08 13.03-3.22 3.91-2.25 7.33-5.13 10.26-8.65 2.93-3.61 5.42-7.71 7.47-12.3 2.05-4.59 3.71-9.28 4.98-14.06 1.37-4.89 2.34-9.62 2.93-14.21.68-4.69 1.02-8.89 1.02-12.6v-84.81h49.51v169.18h-19.04l-22.7-39.4c-2.84 6.54-6.3 12.5-10.4 17.87-4.01 5.27-8.6 9.82-13.77 13.62-5.18 3.81-10.94 6.74-17.29 8.79-6.25 2.05-13.04 3.08-20.36 3.08-11.72 0-21.92-1.9-30.62-5.71-8.69-3.81-15.91-9.09-21.67-15.82-5.77-6.74-10.06-14.75-12.9-24.03-2.83-9.37-4.24-19.63-4.24-30.76zm350.91 18.31c0 7.42-1.08 14.02-3.22 19.78-2.15 5.76-5.08 10.79-8.79 15.09-3.71 4.19-8.11 7.76-13.19 10.69-5.07 2.83-10.54 5.13-16.4 6.88-5.76 1.76-11.82 3.03-18.17 3.81-6.34.78-12.64 1.17-18.89 1.17-8.4 0-15.82-.53-22.27-1.61-6.44-1.07-12.6-2.78-18.46-5.12-5.86-2.45-11.71-5.57-17.57-9.38-5.77-3.81-12.21-8.45-19.34-13.92l28.86-23.58c2.63 4.98 6.1 9.52 10.4 13.62 4.39 4.01 8.93 7.47 13.62 10.4 4.69 2.93 9.23 5.18 13.62 6.74 4.4 1.56 7.96 2.35 10.7 2.35 2.24 0 4.78-.05 7.61-.15 2.84-.2 5.72-.49 8.65-.88a65.37 65.37 0 008.64-2.05c2.83-.88 5.32-2.05 7.47-3.52 2.25-1.56 4-3.46 5.27-5.71 1.37-2.34 2.05-5.13 2.05-8.35 0-3.32-.87-6.2-2.63-8.64-1.66-2.54-3.86-4.74-6.59-6.59-2.74-1.86-5.86-3.42-9.38-4.69-3.51-1.27-7.08-2.39-10.69-3.37-3.52-.98-6.94-1.81-10.26-2.49-3.32-.78-6.2-1.51-8.64-2.2-4.49-1.27-9.23-2.54-14.21-3.81-4.98-1.36-9.91-2.88-14.79-4.54a112.92 112.92 0 01-14.07-6.15c-4.39-2.34-8.3-5.13-11.71-8.35-3.32-3.32-6.01-7.18-8.06-11.57-1.95-4.49-2.93-9.72-2.93-15.67 0-10.94 2.15-20.07 6.44-27.4 4.4-7.42 10.16-13.33 17.29-17.72 7.13-4.49 15.23-7.67 24.32-9.52 9.08-1.86 18.31-2.79 27.68-2.79 6.45 0 13.23.69 20.36 2.05 7.13 1.27 14.07 3.23 20.8 5.86 6.74 2.54 13.04 5.67 18.9 9.38 5.86 3.71 10.74 7.96 14.65 12.74l-28.86 23.73c-2.15-5.86-4.98-10.89-8.49-15.08-3.42-4.2-7.18-7.62-11.28-10.26-4.01-2.73-8.16-4.73-12.45-6-4.2-1.27-8.11-1.91-11.72-1.91-3.52 0-7.47.15-11.87.44-4.39.29-8.54 1.12-12.45 2.49-3.81 1.37-7.08 3.47-9.81 6.3-2.64 2.73-3.96 6.54-3.96 11.43 0 3.51.78 6.54 2.34 9.08 1.66 2.44 3.81 4.59 6.45 6.44 2.64 1.76 5.61 3.27 8.93 4.54 3.42 1.18 6.89 2.25 10.41 3.23 3.51.88 6.93 1.66 10.25 2.34 3.32.68 6.3 1.42 8.93 2.2 4.5 1.27 9.23 2.59 14.21 3.95 5.08 1.27 10.06 2.79 14.95 4.54 4.88 1.66 9.57 3.67 14.06 6.01 4.59 2.25 8.59 5.03 12.01 8.35 3.42 3.32 6.15 7.23 8.2 11.72 2.05 4.39 3.08 9.62 3.08 15.67zm86.07 54.05h-49.66v-149.56h-30.76v-19.62h30.76v-62.261h49.66v62.261h51.27v19.62h-51.27v149.56zm186.49-157.32l-16.41 157.32h-35.89l35.89-210.933h53.18l49.36 160.983 49.95-160.983h53.18l29.88 210.933h-59.18l-17.43-153.22-41.16 153.22h-53.18l-48.19-157.32zm412 157.32h-49.52v-20.21c-5.86 8.01-12.94 13.96-21.24 17.87-8.2 3.81-17.23 5.71-27.1 5.71-12.89 0-24.41-2.29-34.57-6.88-10.15-4.59-18.75-10.84-25.78-18.75-7.03-8.01-12.4-17.38-16.11-28.13-3.71-10.74-5.57-22.26-5.57-34.57 0-12.3 1.86-23.82 5.57-34.57 3.71-10.74 9.08-20.07 16.11-27.98 7.03-8 15.63-14.3 25.78-18.89 10.16-4.59 21.68-6.89 34.57-6.89 6.55 0 12.75.98 18.61 2.93 5.95 1.96 11.37 4.74 16.26 8.35 4.98 3.52 9.32 7.82 13.03 12.89 3.81 4.98 6.79 10.55 8.94 16.7l21.97-36.76h19.05v169.18zm-49.81-84.96c0-4.39-.24-9.03-.73-13.91-.39-4.89-1.12-9.72-2.2-14.5a69.688 69.688 0 00-4.54-13.63c-1.86-4.39-4.3-8.25-7.32-11.57-2.93-3.42-6.5-6.1-10.7-8.06-4.2-1.95-9.08-2.93-14.65-2.93-5.56 0-10.4 1.03-14.5 3.08-4.1 1.95-7.62 4.64-10.54 8.06-2.93 3.32-5.38 7.17-7.33 11.57a80.686 80.686 0 00-4.39 13.77c-1.08 4.78-1.86 9.62-2.35 14.5-.39 4.79-.58 9.33-.58 13.62 0 4.3.19 8.89.58 13.77.49 4.89 1.27 9.72 2.35 14.51a80.86 80.86 0 004.39 13.76c1.95 4.4 4.4 8.31 7.33 11.72 2.92 3.32 6.44 6.01 10.54 8.06 4.1 1.95 8.94 2.93 14.5 2.93 5.08 0 9.57-1.03 13.48-3.08 4-2.14 7.47-4.98 10.4-8.49 3.03-3.52 5.57-7.52 7.62-12.01 2.05-4.5 3.71-9.14 4.98-13.92 1.27-4.79 2.2-9.52 2.78-14.21.59-4.78.88-9.13.88-13.04zm238.41-42.33l-21.38 8.5c-3.42-10.75-9.13-19-17.14-24.76-8.01-5.76-17.63-8.64-28.86-8.64-6.05 0-11.47.97-16.26 2.93-4.69 1.85-8.84 4.44-12.45 7.76-3.52 3.32-6.54 7.18-9.08 11.57-2.44 4.4-4.45 9.08-6.01 14.07-1.56 4.98-2.68 10.15-3.37 15.52-.68 5.28-1.02 10.4-1.02 15.38 0 5.37.29 10.79.88 16.26.58 5.47 1.56 10.75 2.93 15.82 1.46 4.98 3.36 9.67 5.71 14.07 2.34 4.29 5.27 8.05 8.79 11.28 3.61 3.22 7.86 5.76 12.74 7.61 4.98 1.86 10.69 2.79 17.14 2.79 5.18 0 10.11-.79 14.79-2.35 4.69-1.56 8.99-3.76 12.9-6.59 3.9-2.83 7.37-6.2 10.4-10.11 3.02-3.9 5.42-8.25 7.17-13.03l21.54 7.91c-3.23 7.71-7.52 14.4-12.89 20.06a73.537 73.537 0 01-18.02 13.92c-6.74 3.61-13.97 6.3-21.68 8.06-7.72 1.75-15.53 2.63-23.44 2.63-12.79 0-24.66-2.14-35.59-6.44-10.94-4.4-20.41-10.5-28.42-18.31-7.91-7.91-14.11-17.24-18.61-27.98-4.49-10.84-6.73-22.71-6.73-35.6 0-12.98 2.19-24.9 6.59-35.74 4.49-10.84 10.69-20.16 18.6-27.98 7.91-7.81 17.34-13.86 28.27-18.16 10.94-4.3 22.9-6.45 35.89-6.45 8.2 0 16.21.93 24.02 2.79 7.82 1.75 15.04 4.54 21.68 8.35 6.74 3.71 12.75 8.44 18.02 14.21 5.37 5.76 9.67 12.64 12.89 20.65zm190.66 205.37h-49.51v-98.29c-5.86 8.01-12.94 13.96-21.24 17.87-8.2 3.81-17.24 5.71-27.1 5.71-12.89 0-24.41-2.29-34.57-6.88s-18.75-10.84-25.78-18.75c-7.03-8.01-12.4-17.38-16.12-28.13-3.71-10.74-5.56-22.26-5.56-34.57 0-12.3 1.85-23.82 5.56-34.57 3.72-10.74 9.09-20.07 16.12-27.98 7.03-8 15.62-14.3 25.78-18.89 10.16-4.59 21.68-6.89 34.57-6.89 6.54 0 12.74.98 18.6 2.93 5.96 1.96 11.38 4.74 16.26 8.35 4.98 3.52 9.33 7.82 13.04 12.89 3.81 4.98 6.79 10.55 8.94 16.7l21.97-36.76h19.04v247.26zm-49.8-163.04c0-4.39-.25-9.03-.74-13.91-.39-4.89-1.12-9.72-2.19-14.5-1.08-4.79-2.59-9.33-4.54-13.63-1.86-4.39-4.3-8.25-7.33-11.57-2.93-3.42-6.49-6.1-10.69-8.06-4.2-1.95-9.08-2.93-14.65-2.93s-10.4 1.03-14.5 3.08c-4.1 1.95-7.62 4.64-10.55 8.06-2.93 3.32-5.37 7.17-7.32 11.57-1.86 4.39-3.32 8.98-4.4 13.77-1.07 4.78-1.85 9.62-2.34 14.5-.39 4.79-.59 9.33-.59 13.62 0 4.3.2 8.89.59 13.77.49 4.89 1.27 9.72 2.34 14.51 1.08 4.78 2.54 9.37 4.4 13.76 1.95 4.4 4.39 8.31 7.32 11.72 2.93 3.32 6.45 6.01 10.55 8.06 4.1 1.95 8.93 2.93 14.5 2.93 5.08 0 9.57-1.03 13.48-3.08 4-2.14 7.47-4.98 10.4-8.49 3.02-3.52 5.56-7.52 7.61-12.01 2.05-4.5 3.71-9.14 4.98-13.92 1.27-4.79 2.2-9.52 2.79-14.21.58-4.78.88-9.13.88-13.04zm73.61 12.6c0-7.71.64-15.72 1.91-24.02 1.36-8.3 3.27-16.6 5.71-24.9 2.54-8.31 5.57-16.51 9.08-24.61 3.52-8.11 7.47-15.87 11.87-23.29h36.18c-2.44 7.32-4.64 14.99-6.59 22.99-1.86 7.91-3.47 15.87-4.84 23.88-1.27 7.91-2.29 15.67-3.07 23.29-.69 7.62-1.03 14.7-1.03 21.24 0 3.81.15 7.91.44 12.31.39 4.29 1.03 8.64 1.91 13.03.87 4.3 2.1 8.45 3.66 12.45 1.66 4.01 3.76 7.57 6.3 10.7 2.54 3.03 5.61 5.47 9.23 7.32 3.71 1.76 8.05 2.64 13.03 2.64 4.89 0 9.23-1.08 13.04-3.22 3.91-2.25 7.32-5.13 10.25-8.65 2.93-3.61 5.42-7.71 7.47-12.3 2.06-4.59 3.72-9.28 4.98-14.06 1.37-4.89 2.35-9.62 2.93-14.21.69-4.69 1.03-8.89 1.03-12.6v-84.81h49.51v169.18h-19.04l-22.71-39.4c-2.83 6.54-6.3 12.5-10.4 17.87-4 5.27-8.59 9.82-13.77 13.62-5.17 3.81-10.93 6.74-17.28 8.79-6.25 2.05-13.04 3.08-20.36 3.08-11.72 0-21.93-1.9-30.62-5.71-8.69-3.81-15.92-9.09-21.68-15.82-5.76-6.74-10.06-14.75-12.89-24.03-2.83-9.37-4.25-19.63-4.25-30.76zm375.67 72.36h-49.51v-20.21c-5.86 8.01-12.94 13.96-21.24 17.87-8.2 3.81-17.24 5.71-27.1 5.71-12.89 0-24.41-2.29-34.57-6.88s-18.75-10.84-25.78-18.75c-7.03-8.01-12.4-17.38-16.11-28.13-3.72-10.74-5.57-22.26-5.57-34.57 0-12.3 1.85-23.82 5.57-34.57 3.71-10.74 9.08-20.07 16.11-27.98 7.03-8 15.62-14.3 25.78-18.89 10.16-4.59 21.68-6.89 34.57-6.89 6.54 0 12.74.98 18.6 2.93 5.96 1.96 11.38 4.74 16.26 8.35 4.98 3.52 9.33 7.82 13.04 12.89 3.81 4.98 6.79 10.55 8.94 16.7l21.97-36.76h19.04v169.18zm-49.8-84.96c0-4.39-.25-9.03-.74-13.91-.39-4.89-1.12-9.72-2.19-14.5-1.08-4.79-2.59-9.33-4.54-13.63-1.86-4.39-4.3-8.25-7.33-11.57-2.93-3.42-6.49-6.1-10.69-8.06-4.2-1.95-9.08-2.93-14.65-2.93s-10.4 1.03-14.5 3.08c-4.1 1.95-7.62 4.64-10.55 8.06-2.93 3.32-5.37 7.17-7.32 11.57-1.86 4.39-3.32 8.98-4.4 13.77-1.07 4.78-1.85 9.62-2.34 14.5-.39 4.79-.59 9.33-.59 13.62 0 4.3.2 8.89.59 13.77.49 4.89 1.27 9.72 2.34 14.51 1.08 4.78 2.54 9.37 4.4 13.76 1.95 4.4 4.39 8.31 7.32 11.72 2.93 3.32 6.45 6.01 10.55 8.06 4.1 1.95 8.93 2.93 14.5 2.93 5.08 0 9.57-1.03 13.48-3.08 4-2.14 7.47-4.98 10.4-8.49 3.02-3.52 5.56-7.52 7.61-12.01 2.05-4.5 3.72-9.14 4.98-13.92 1.27-4.79 2.2-9.52 2.79-14.21.58-4.78.88-9.13.88-13.04zm226.1-69.28l-27.83 46.14c-1.17-3.91-2.68-8.3-4.54-13.18-1.85-4.89-4.15-9.43-6.88-13.63-2.74-4.29-6.01-7.86-9.82-10.69-3.81-2.93-8.2-4.4-13.18-4.4-4.59 0-8.6 1.18-12.01 3.52-3.32 2.34-6.16 5.42-8.5 9.23-2.34 3.71-4.3 7.96-5.86 12.74-1.46 4.69-2.64 9.48-3.51 14.36-.79 4.78-1.32 9.42-1.62 13.91-.29 4.4-.44 8.21-.44 11.43v84.81h-49.65v-169.18h19.04l20.07 39.4c2.73-6.35 5.86-12.16 9.37-17.43 3.52-5.37 7.57-9.96 12.16-13.77 4.59-3.91 9.77-6.94 15.53-9.08 5.86-2.15 12.45-3.23 19.77-3.23 3.81 0 8.06.35 12.75 1.03 4.69.58 9.28 1.66 13.77 3.22 4.49 1.47 8.64 3.42 12.45 5.86 3.81 2.44 6.79 5.42 8.93 8.94zm63.81-55.814c0 3.711-.74 7.227-2.2 10.547-1.37 3.32-3.27 6.201-5.71 8.647-2.44 2.44-5.33 4.39-8.65 5.85-3.32 1.37-6.83 2.06-10.54 2.06-3.71 0-7.23-.69-10.55-2.06a28.766 28.766 0 01-8.5-5.85c-2.44-2.446-4.39-5.327-5.86-8.647-1.36-3.32-2.05-6.836-2.05-10.547 0-3.711.69-7.178 2.05-10.4 1.47-3.321 3.42-6.202 5.86-8.643a26.716 26.716 0 018.5-5.713c3.32-1.465 6.84-2.197 10.55-2.197 3.71 0 7.22.732 10.54 2.197 3.32 1.367 6.21 3.272 8.65 5.713 2.44 2.441 4.34 5.322 5.71 8.643 1.46 3.222 2.2 6.689 2.2 10.4zm-2.2 210.054h-49.66v-169.04h49.66v169.04zm73.32-80.27c6.06 1.37 12.11 2.44 18.17 3.22 6.05.79 12.16 1.18 18.31 1.18 6.44 0 12.4-.59 17.87-1.76 5.57-1.27 10.35-3.32 14.36-6.15 4.1-2.93 7.32-6.79 9.66-11.58 2.35-4.78 3.52-10.74 3.52-17.87 0-5.76-.78-11.03-2.35-15.82-1.56-4.78-3.9-8.88-7.03-12.3-3.02-3.42-6.78-6.06-11.28-7.91-4.49-1.96-9.71-2.93-15.67-2.93-5.57 0-10.6 1.02-15.09 3.07-4.39 2.05-8.3 4.84-11.72 8.35-3.32 3.42-6.2 7.42-8.64 12.01-2.34 4.59-4.3 9.38-5.86 14.36a91.665 91.665 0 00-3.37 15.09c-.68 5.08-1.02 9.86-1.02 14.35v2.35c0 .78.05 1.56.14 2.34zm122.03-33.4c0 6.94-1.13 13.14-3.37 18.61-2.25 5.37-5.33 10.1-9.23 14.21-3.81 4.1-8.25 7.56-13.33 10.4-5.08 2.83-10.5 5.17-16.26 7.03-5.76 1.75-11.72 3.02-17.87 3.81-6.06.78-11.97 1.17-17.73 1.17-7.32 0-14.55-.49-21.68-1.47-7.13-1.07-14.16-2.73-21.09-4.98 1.07 6.45 2.78 12.6 5.13 18.46 2.34 5.76 5.46 10.84 9.37 15.23 3.91 4.3 8.69 7.72 14.36 10.26 5.76 2.54 12.54 3.81 20.36 3.81 5.17 0 10.1-.79 14.79-2.35 4.69-1.56 8.99-3.76 12.89-6.59 3.91-2.83 7.33-6.2 10.26-10.11 3.02-3.9 5.47-8.25 7.32-13.03l21.39 7.91c-3.22 7.71-7.67 14.4-13.33 20.06-5.57 5.57-11.92 10.21-19.05 13.92-7.03 3.61-14.55 6.3-22.55 8.06-7.91 1.75-15.78 2.63-23.59 2.63-12.89 0-24.8-2.14-35.74-6.44-10.94-4.4-20.36-10.5-28.27-18.31-7.91-7.81-14.11-17.14-18.6-27.98-4.5-10.84-6.74-22.71-6.74-35.6s2.24-24.75 6.74-35.59c4.49-10.84 10.69-20.17 18.6-27.98 7.91-7.81 17.33-13.87 28.27-18.16 10.94-4.4 22.85-6.6 35.74-6.6 6.25 0 12.65.44 19.19 1.32 6.54.88 12.89 2.3 19.04 4.25 6.16 1.86 11.97 4.3 17.44 7.32 5.47 3.03 10.2 6.79 14.21 11.28 4.1 4.4 7.32 9.52 9.66 15.38 2.44 5.86 3.67 12.55 3.67 20.07zm-2357.35 295.03l-25.05 10.55c-1.96-6.35-4.59-12.16-7.91-17.43-3.23-5.28-7.13-9.77-11.72-13.48-4.49-3.81-9.62-6.74-15.38-8.79-5.76-2.15-12.06-3.22-18.9-3.22-7.32 0-14.06 1.22-20.21 3.66a55.775 55.775 0 00-16.41 9.82c-4.79 4.19-8.98 9.08-12.6 14.64a96.255 96.255 0 00-9.08 17.88c-2.44 6.25-4.25 12.74-5.42 19.48s-1.76 13.33-1.76 19.77c0 10.26 1.17 20.46 3.52 30.62 2.44 10.15 6.25 19.29 11.42 27.39 5.28 8.11 12.06 14.7 20.36 19.78 8.31 4.98 18.36 7.47 30.18 7.47 6.25 0 12.16-1.03 17.73-3.08 5.56-2.15 10.59-5.03 15.08-8.64 4.59-3.71 8.6-8.06 12.01-13.04a69.496 69.496 0 008.21-16.11l25.34 10.11c-3.71 9.27-8.79 17.43-15.23 24.46a88.604 88.604 0 01-22.12 17.28c-8.21 4.59-17.04 8.01-26.52 10.26-9.37 2.34-18.85 3.51-28.42 3.51-10.35 0-20.31-1.27-29.88-3.81-9.47-2.54-18.31-6.15-26.51-10.84-8.2-4.68-15.68-10.35-22.41-16.99a110.551 110.551 0 01-17.14-22.12c-4.69-8.1-8.35-16.89-10.99-26.36-2.54-9.57-3.81-19.54-3.81-29.89 0-10.35 1.27-20.26 3.81-29.73 2.64-9.57 6.3-18.41 10.99-26.52 4.78-8.2 10.5-15.62 17.14-22.26 6.73-6.64 14.21-12.31 22.41-16.99 8.2-4.69 17.04-8.31 26.51-10.84 9.57-2.54 19.53-3.81 29.88-3.81 9.97 0 19.68 1.17 29.16 3.51 9.57 2.35 18.45 5.91 26.66 10.7 8.2 4.68 15.47 10.64 21.82 17.87 6.45 7.13 11.52 15.52 15.24 25.19zm192.12 158.64h-49.51v-20.21c-5.86 8.01-12.94 13.96-21.24 17.87-8.21 3.81-17.24 5.71-27.1 5.71-12.89 0-24.42-2.29-34.57-6.88-10.16-4.59-18.75-10.84-25.78-18.75-7.04-8.01-12.41-17.38-16.12-28.13-3.71-10.74-5.56-22.26-5.56-34.57 0-12.3 1.85-23.82 5.56-34.57 3.71-10.74 9.08-20.07 16.12-27.98 7.03-8 15.62-14.3 25.78-18.89 10.15-4.59 21.68-6.89 34.57-6.89 6.54 0 12.74.98 18.6 2.93 5.96 1.96 11.38 4.74 16.26 8.35 4.98 3.52 9.33 7.82 13.04 12.89 3.81 4.98 6.78 10.55 8.93 16.7l21.98-36.76h19.04v169.18zm-49.81-84.96c0-4.39-.24-9.03-.73-13.91-.39-4.89-1.12-9.72-2.2-14.5-1.07-4.79-2.58-9.33-4.54-13.63-1.85-4.39-4.29-8.25-7.32-11.57-2.93-3.42-6.49-6.1-10.69-8.06-4.2-1.95-9.09-2.93-14.65-2.93-5.57 0-10.4 1.03-14.5 3.08a31.532 31.532 0 00-10.55 8.06c-2.93 3.32-5.37 7.17-7.33 11.57a80.686 80.686 0 00-4.39 13.77c-1.07 4.78-1.86 9.62-2.34 14.5-.39 4.79-.59 9.33-.59 13.62 0 4.3.2 8.89.59 13.77.48 4.89 1.27 9.72 2.34 14.51a80.86 80.86 0 004.39 13.76c1.96 4.4 4.4 8.31 7.33 11.72 2.93 3.32 6.44 6.01 10.55 8.06 4.1 1.95 8.93 2.93 14.5 2.93 5.08 0 9.57-1.03 13.47-3.08 4.01-2.14 7.47-4.98 10.4-8.49 3.03-3.52 5.57-7.52 7.62-12.01 2.05-4.5 3.71-9.14 4.98-13.92 1.27-4.79 2.2-9.52 2.79-14.21.58-4.78.87-9.13.87-13.04zm262.15 0c0 12.31-1.86 23.83-5.57 34.57-3.71 10.75-9.08 20.12-16.11 28.13-7.03 7.91-15.63 14.16-25.78 18.75-10.16 4.59-21.68 6.88-34.57 6.88-9.87 0-18.95-1.9-27.25-5.71-8.2-3.91-15.23-9.86-21.09-17.87v98.29H2024v-247.26h19.05l21.97 36.76c2.15-6.15 5.08-11.72 8.79-16.7 3.81-5.07 8.15-9.37 13.04-12.89 4.98-3.61 10.4-6.39 16.26-8.35 5.95-1.95 12.2-2.93 18.75-2.93 12.89 0 24.41 2.3 34.57 6.89 10.15 4.59 18.75 10.89 25.78 18.89 7.03 7.91 12.4 17.24 16.11 27.98 3.71 10.75 5.57 22.27 5.57 34.57zm-50.25 0c0-4.29-.24-8.83-.73-13.62-.39-4.88-1.12-9.72-2.2-14.5a73.097 73.097 0 00-4.54-13.77c-1.85-4.4-4.25-8.25-7.18-11.57-2.93-3.42-6.49-6.11-10.69-8.06-4.1-2.05-8.89-3.08-14.35-3.08-5.67 0-10.6.98-14.8 2.93-4.1 1.96-7.67 4.64-10.69 8.06-2.93 3.32-5.37 7.18-7.33 11.57-1.85 4.3-3.32 8.84-4.39 13.63-1.08 4.78-1.86 9.61-2.35 14.5-.39 4.88-.58 9.52-.58 13.91 0 3.91.29 8.26.88 13.04.58 4.69 1.51 9.42 2.78 14.21 1.27 4.78 2.93 9.42 4.98 13.92 2.05 4.49 4.54 8.49 7.47 12.01 3.03 3.51 6.5 6.35 10.4 8.49 4.01 2.05 8.55 3.08 13.63 3.08 5.56 0 10.4-.98 14.5-2.93 4.1-2.05 7.61-4.74 10.54-8.06 2.93-3.41 5.33-7.32 7.18-11.72 1.95-4.39 3.47-8.98 4.54-13.76 1.08-4.79 1.81-9.62 2.2-14.51.49-4.88.73-9.47.73-13.77zm125.18-125.09c0 3.71-.73 7.22-2.2 10.54-1.36 3.32-3.27 6.2-5.71 8.65-2.44 2.44-5.32 4.39-8.64 5.85-3.32 1.37-6.84 2.06-10.55 2.06-3.71 0-7.22-.69-10.54-2.06-3.23-1.46-6.06-3.41-8.5-5.85-2.44-2.45-4.39-5.33-5.86-8.65-1.37-3.32-2.05-6.83-2.05-10.54 0-3.71.68-7.18 2.05-10.4 1.47-3.32 3.42-6.21 5.86-8.65 2.44-2.44 5.27-4.34 8.5-5.71 3.32-1.46 6.83-2.2 10.54-2.2 3.71 0 7.23.74 10.55 2.2 3.32 1.37 6.2 3.27 8.64 5.71 2.44 2.44 4.35 5.33 5.71 8.65 1.47 3.22 2.2 6.69 2.2 10.4zm-2.2 210.05h-49.65v-169.04h49.65v169.04zm96.33 0h-49.66v-149.56h-30.76v-19.62h30.76v-62.26h49.66v62.26h51.27v19.62h-51.27v149.56zm230.06 0h-49.51v-20.21c-5.86 8.01-12.94 13.96-21.24 17.87-8.21 3.81-17.24 5.71-27.1 5.71-12.89 0-24.42-2.29-34.57-6.88-10.16-4.59-18.75-10.84-25.78-18.75-7.03-8.01-12.41-17.38-16.12-28.13-3.71-10.74-5.56-22.26-5.56-34.57 0-12.3 1.85-23.82 5.56-34.57 3.71-10.74 9.09-20.07 16.12-27.98 7.03-8 15.62-14.3 25.78-18.89 10.15-4.59 21.68-6.89 34.57-6.89 6.54 0 12.74.98 18.6 2.93 5.96 1.96 11.38 4.74 16.26 8.35 4.98 3.52 9.33 7.82 13.04 12.89 3.81 4.98 6.79 10.55 8.93 16.7l21.98-36.76h19.04v169.18zm-49.8-84.96c0-4.39-.25-9.03-.74-13.91-.39-4.89-1.12-9.72-2.19-14.5-1.08-4.79-2.59-9.33-4.55-13.63-1.85-4.39-4.29-8.25-7.32-11.57-2.93-3.42-6.49-6.1-10.69-8.06-4.2-1.95-9.09-2.93-14.65-2.93-5.57 0-10.4 1.03-14.5 3.08a31.532 31.532 0 00-10.55 8.06c-2.93 3.32-5.37 7.17-7.32 11.57-1.86 4.39-3.32 8.98-4.4 13.77-1.07 4.78-1.85 9.62-2.34 14.5-.39 4.79-.59 9.33-.59 13.62 0 4.3.2 8.89.59 13.77.49 4.89 1.27 9.72 2.34 14.51 1.08 4.78 2.54 9.37 4.4 13.76 1.95 4.4 4.39 8.31 7.32 11.72 2.93 3.32 6.44 6.01 10.55 8.06 4.1 1.95 8.93 2.93 14.5 2.93 5.08 0 9.57-1.03 13.47-3.08 4.01-2.14 7.48-4.98 10.41-8.49 3.02-3.52 5.56-7.52 7.61-12.01 2.05-4.5 3.71-9.14 4.98-13.92 1.27-4.79 2.2-9.52 2.79-14.21.58-4.78.88-9.13.88-13.04zm131.77 84.96h-49.52v-247.11h19.05l30.47 51.41v195.7z"/><path fill-rule="evenodd" clip-rule="evenodd" d="M368.969 1224.94L344 1249.91l24.969 24.97 127.595 127.6v-99.88l-52.69-52.69 52.69-52.69v-99.87l-127.595 127.59zM581.31 1012.6l70.317-70.315h99.874L581.31 1112.48v-99.88zm0 374.75v99.87l70.317 70.32h99.874L581.31 1387.35zm254.937 254.93l52.665 52.67 52.665-52.67h99.873l-127.57 127.57-24.968 24.97-24.969-24.97-127.57-127.57h99.874zm289.953-84.74h-99.88l170.24-170.24v99.87l-70.36 70.37zm155.11-155.11l127.54-127.55 24.97-24.97-24.97-24.97-127.54-127.54v99.87l52.64 52.64-52.64 52.64v99.88zm-84.75-289.9v-99.88l-70.36-70.365h-99.88l170.24 170.245zM941.576 857.539h99.874l-127.57-127.57L888.912 705l-24.969 24.969-127.57 127.57h99.874l52.665-52.665 52.664 52.665z"/><path d="M538.938 899.912h700v700h-700z"/><path d="M734.023 1326.74h-42.309v-132.78h-41.776v-19.45h125.861v19.45h-41.776v132.78zm77.964-113.54l-11.936 113.54h-26.11l26.11-152.23h38.685l35.915 116.18 36.341-116.18h38.686l21.741 152.23h-43.055l-12.682-110.58-29.947 110.58h-38.686l-35.062-113.54zm318.173-.95l-18.22 7.61c-1.42-4.58-3.34-8.77-5.75-12.58-2.35-3.81-5.19-7.05-8.53-9.73-3.27-2.75-7-4.86-11.19-6.34-4.19-1.55-8.77-2.33-13.75-2.33-5.33 0-10.23.89-14.7 2.65a40.663 40.663 0 00-11.94 7.08c-3.48 3.03-6.54 6.56-9.17 10.57a68.761 68.761 0 00-6.6 12.9 72.7 72.7 0 00-3.95 14.06c-.85 4.86-1.28 9.62-1.28 14.27 0 7.4.86 14.77 2.56 22.1 1.78 7.33 4.55 13.92 8.31 19.77 3.84 5.85 8.78 10.61 14.82 14.27 6.04 3.6 13.36 5.39 21.95 5.39 4.55 0 8.85-.74 12.9-2.22 4.05-1.55 7.71-3.63 10.97-6.23 3.34-2.68 6.26-5.82 8.74-9.41a49.95 49.95 0 005.97-11.63l18.44 7.29c-2.7 6.7-6.4 12.58-11.09 17.66-4.68 5-10.05 9.16-16.09 12.47-5.97 3.32-12.4 5.78-19.29 7.4a85.635 85.635 0 01-20.67 2.54c-7.53 0-14.78-.92-21.74-2.75-6.89-1.83-13.32-4.44-19.29-7.82a78.43 78.43 0 01-16.31-12.27 80.01 80.01 0 01-12.467-15.96c-3.41-5.85-6.075-12.19-7.993-19.03-1.847-6.91-2.771-14.1-2.771-21.57 0-7.47.924-14.62 2.771-21.46 1.918-6.9 4.583-13.28 7.993-19.13a78.742 78.742 0 0112.467-16.07c4.9-4.8 10.34-8.88 16.31-12.27 5.97-3.38 12.4-5.99 19.29-7.82 6.96-1.83 14.21-2.75 21.74-2.75 7.24 0 14.31.85 21.21 2.54 6.96 1.69 13.42 4.26 19.39 7.72 5.97 3.38 11.26 7.68 15.88 12.89 4.69 5.15 8.38 11.21 11.08 18.19z"/></symbol><symbol viewBox="0 0 3813 1090" id="logob" xmlns="http://www.w3.org/2000/svg"><path d="M1361.38 485.935h-58.15V301.95h-57.42v-26.953h172.99v26.953h-57.42v183.985zm203.99-154.248l-27.83 46.142c-1.17-3.906-2.69-8.301-4.54-13.183-1.86-4.883-4.15-9.424-6.89-13.624-2.73-4.296-6-7.861-9.81-10.693-3.81-2.93-8.2-4.394-13.18-4.394-4.59 0-8.6 1.171-12.02 3.515-3.32 2.344-6.15 5.42-8.49 9.229-2.35 3.711-4.3 7.959-5.86 12.744a117.667 117.667 0 00-3.52 14.355c-.78 4.785-1.32 9.424-1.61 13.916-.29 4.395-.44 8.203-.44 11.426v84.815h-49.66v-169.19h19.05l20.06 39.404c2.74-6.347 5.86-12.158 9.38-17.431 3.52-5.371 7.57-9.961 12.16-13.77 4.59-3.906 9.76-6.933 15.53-9.082 5.85-2.148 12.45-3.222 19.77-3.222 3.81 0 8.06.341 12.74 1.025 4.69.586 9.28 1.66 13.77 3.223 4.5 1.464 8.65 3.418 12.46 5.859 3.8 2.441 6.78 5.42 8.93 8.936zm-.06 81.884c0-7.715.63-15.722 1.9-24.023a208.755 208.755 0 015.71-24.902 232.662 232.662 0 019.09-24.61 208.321 208.321 0 0111.86-23.291h36.18c-2.44 7.324-4.64 14.99-6.59 22.998a395.956 395.956 0 00-4.83 23.877c-1.27 7.91-2.3 15.674-3.08 23.291-.68 7.617-1.02 14.697-1.02 21.24 0 3.809.14 7.911.43 12.305.4 4.297 1.03 8.643 1.91 13.037.88 4.297 2.1 8.447 3.66 12.451 1.66 4.004 3.76 7.569 6.3 10.694 2.54 3.027 5.62 5.468 9.23 7.324 3.71 1.758 8.06 2.637 13.04 2.637 4.88 0 9.22-1.075 13.03-3.223 3.91-2.246 7.33-5.127 10.26-8.643 2.93-3.613 5.42-7.714 7.47-12.304a92.845 92.845 0 004.98-14.063c1.37-4.883 2.34-9.619 2.93-14.209.68-4.687 1.02-8.886 1.02-12.597v-84.815h49.51v169.19h-19.04l-22.7-39.405c-2.84 6.543-6.3 12.5-10.4 17.871-4.01 5.274-8.6 9.815-13.77 13.623-5.18 3.809-10.94 6.739-17.29 8.789-6.25 2.051-13.04 3.077-20.36 3.077-11.72 0-21.92-1.905-30.62-5.713-8.69-3.809-15.91-9.082-21.67-15.821-5.77-6.738-10.06-14.746-12.9-24.023-2.83-9.375-4.24-19.629-4.24-30.762zm350.91 18.311c0 7.422-1.08 14.014-3.22 19.775-2.15 5.762-5.08 10.791-8.79 15.088-3.71 4.199-8.11 7.764-13.19 10.693-5.07 2.833-10.54 5.127-16.4 6.885-5.76 1.758-11.82 3.028-18.17 3.809a154.42 154.42 0 01-18.89 1.172c-8.4 0-15.82-.537-22.27-1.612-6.44-1.074-12.6-2.783-18.46-5.127-5.86-2.441-11.71-5.566-17.57-9.375-5.77-3.808-12.21-8.447-19.34-13.916l28.86-23.584c2.63 4.981 6.1 9.522 10.4 13.623 4.39 4.004 8.93 7.471 13.62 10.401 4.69 2.93 9.23 5.176 13.62 6.738 4.4 1.563 7.96 2.344 10.7 2.344 2.24 0 4.78-.049 7.61-.147 2.84-.195 5.72-.488 8.65-.878a65.372 65.372 0 008.64-2.051c2.83-.879 5.32-2.051 7.47-3.516 2.25-1.562 4-3.467 5.27-5.713 1.37-2.344 2.05-5.127 2.05-8.349 0-3.321-.87-6.202-2.63-8.643-1.66-2.539-3.86-4.736-6.59-6.592-2.74-1.855-5.86-3.418-9.38-4.687-3.51-1.27-7.08-2.393-10.69-3.369-3.52-.977-6.94-1.807-10.26-2.491-3.32-.781-6.2-1.513-8.64-2.197a572.716 572.716 0 00-14.21-3.809c-4.98-1.367-9.91-2.88-14.79-4.541a113.376 113.376 0 01-14.07-6.152c-4.39-2.344-8.3-5.127-11.71-8.349-3.32-3.321-6.01-7.178-8.06-11.573-1.95-4.492-2.93-9.717-2.93-15.674 0-10.937 2.15-20.068 6.44-27.392 4.4-7.422 10.16-13.33 17.29-17.725 7.13-4.492 15.23-7.666 24.32-9.521a137.886 137.886 0 0127.68-2.783c6.45 0 13.23.683 20.36 2.05a109.56 109.56 0 0120.8 5.86c6.74 2.539 13.04 5.664 18.9 9.375 5.86 3.711 10.74 7.959 14.65 12.744l-28.86 23.73c-2.15-5.859-4.98-10.888-8.49-15.088-3.42-4.199-7.18-7.617-11.28-10.253-4.01-2.735-8.16-4.737-12.45-6.006-4.2-1.27-8.11-1.905-11.72-1.905-3.52 0-7.47.147-11.87.44-4.39.293-8.54 1.123-12.45 2.49-3.81 1.367-7.08 3.467-9.81 6.299-2.64 2.734-3.96 6.543-3.96 11.426 0 3.515.78 6.543 2.34 9.082 1.66 2.441 3.81 4.59 6.45 6.445 2.64 1.758 5.61 3.271 8.93 4.541a183.43 183.43 0 0010.41 3.223c3.51.879 6.93 1.66 10.25 2.343 3.32.684 6.3 1.416 8.93 2.198 4.5 1.269 9.23 2.588 14.21 3.955a155.656 155.656 0 0114.95 4.541 99.757 99.757 0 0114.06 6.006c4.59 2.246 8.59 5.029 12.01 8.349 3.42 3.321 6.15 7.227 8.2 11.719 2.05 4.395 3.08 9.619 3.08 15.674zm86.07 54.053h-49.66V336.374h-30.76v-19.629h30.76v-62.256h49.66v62.256h51.27v19.629h-51.27v149.561zm186.49-157.325l-16.41 157.325h-35.89l35.89-210.938h53.18l49.36 160.986 49.95-160.986h53.18l29.88 210.938h-59.18l-17.43-153.223-41.16 153.223h-53.18l-48.19-157.325zm412 157.325h-49.52V465.72c-5.86 8.008-12.94 13.965-21.24 17.871-8.2 3.808-17.23 5.713-27.1 5.713-12.89 0-24.41-2.295-34.57-6.885-10.15-4.59-18.75-10.84-25.78-18.75-7.03-8.008-12.4-17.383-16.11-28.125-3.71-10.742-5.57-22.266-5.57-34.57 0-12.305 1.86-23.828 5.57-34.571 3.71-10.742 9.08-20.068 16.11-27.978 7.03-8.008 15.63-14.307 25.78-18.897 10.16-4.59 21.68-6.884 34.57-6.884 6.55 0 12.75.976 18.61 2.929 5.95 1.953 11.37 4.737 16.26 8.35 4.98 3.515 9.32 7.812 13.03 12.89 3.81 4.981 6.79 10.547 8.94 16.7l21.97-36.768h19.05v169.19zm-49.81-84.961c0-4.395-.24-9.034-.73-13.916-.39-4.883-1.12-9.717-2.2-14.502a69.643 69.643 0 00-4.54-13.623c-1.86-4.395-4.3-8.252-7.32-11.573-2.93-3.418-6.5-6.103-10.7-8.056-4.2-1.953-9.08-2.93-14.65-2.93-5.56 0-10.4 1.025-14.5 3.076-4.1 1.953-7.62 4.639-10.54 8.057-2.93 3.32-5.38 7.178-7.33 11.572a80.941 80.941 0 00-4.39 13.77 120.403 120.403 0 00-2.35 14.502c-.39 4.785-.58 9.326-.58 13.623 0 4.297.19 8.886.58 13.769.49 4.883 1.27 9.717 2.35 14.502a80.97 80.97 0 004.39 13.77c1.95 4.394 4.4 8.3 7.33 11.718 2.92 3.321 6.44 6.006 10.54 8.057 4.1 1.953 8.94 2.93 14.5 2.93 5.08 0 9.57-1.026 13.48-3.076 4-2.149 7.47-4.981 10.4-8.497 3.03-3.515 5.57-7.519 7.62-12.011a87.561 87.561 0 004.98-13.916c1.27-4.785 2.2-9.522 2.78-14.209.59-4.785.88-9.131.88-13.037zm238.41-42.334l-21.38 8.496c-3.42-10.742-9.13-18.994-17.14-24.756-8.01-5.762-17.63-8.643-28.86-8.643-6.05 0-11.47.977-16.26 2.93-4.69 1.855-8.84 4.443-12.45 7.764-3.52 3.32-6.54 7.177-9.08 11.572a75.18 75.18 0 00-6.01 14.062c-1.56 4.981-2.68 10.157-3.37 15.528-.68 5.273-1.02 10.4-1.02 15.381 0 5.371.29 10.791.88 16.259.58 5.469 1.56 10.743 2.93 15.821 1.46 4.98 3.36 9.668 5.71 14.062 2.34 4.297 5.27 8.057 8.79 11.28 3.61 3.222 7.86 5.761 12.74 7.617 4.98 1.855 10.69 2.783 17.14 2.783 5.18 0 10.11-.781 14.79-2.344 4.69-1.562 8.99-3.76 12.9-6.592 3.9-2.832 7.37-6.201 10.4-10.107 3.02-3.906 5.42-8.252 7.17-13.037l21.54 7.91c-3.23 7.715-7.52 14.404-12.89 20.068a73.618 73.618 0 01-18.02 13.916c-6.74 3.614-13.97 6.299-21.68 8.057a105.218 105.218 0 01-23.44 2.637c-12.79 0-24.66-2.149-35.59-6.446-10.94-4.394-20.41-10.498-28.42-18.31-7.91-7.91-14.11-17.236-18.61-27.979-4.49-10.84-6.73-22.705-6.73-35.595 0-12.989 2.19-24.903 6.59-35.743 4.49-10.839 10.69-20.166 18.6-27.978 7.91-7.813 17.34-13.867 28.27-18.164 10.94-4.297 22.9-6.445 35.89-6.445 8.2 0 16.21.927 24.02 2.783 7.82 1.758 15.04 4.541 21.68 8.349 6.74 3.711 12.75 8.448 18.02 14.209 5.37 5.762 9.67 12.647 12.89 20.655zm190.66 205.371h-49.51V465.72c-5.86 8.008-12.94 13.965-21.24 17.871-8.2 3.808-17.24 5.713-27.1 5.713-12.89 0-24.41-2.295-34.57-6.885s-18.75-10.84-25.78-18.75c-7.03-8.008-12.4-17.383-16.12-28.125-3.71-10.742-5.56-22.266-5.56-34.57 0-12.305 1.85-23.828 5.56-34.571 3.72-10.742 9.09-20.068 16.12-27.978 7.03-8.008 15.62-14.307 25.78-18.897 10.16-4.59 21.68-6.884 34.57-6.884 6.54 0 12.74.976 18.6 2.929 5.96 1.953 11.38 4.737 16.26 8.35 4.98 3.515 9.33 7.812 13.04 12.89 3.81 4.981 6.79 10.547 8.94 16.7l21.97-36.768h19.04v247.266zm-49.8-163.037c0-4.395-.25-9.034-.74-13.916-.39-4.883-1.12-9.717-2.19-14.502-1.08-4.785-2.59-9.327-4.54-13.623-1.86-4.395-4.3-8.252-7.33-11.573-2.93-3.418-6.49-6.103-10.69-8.056-4.2-1.953-9.08-2.93-14.65-2.93s-10.4 1.025-14.5 3.076c-4.1 1.953-7.62 4.639-10.55 8.057-2.93 3.32-5.37 7.178-7.32 11.572-1.86 4.395-3.32 8.984-4.4 13.77a122.394 122.394 0 00-2.34 14.502c-.39 4.785-.59 9.326-.59 13.623 0 4.297.2 8.886.59 13.769.49 4.883 1.27 9.717 2.34 14.502 1.08 4.785 2.54 9.375 4.4 13.77 1.95 4.394 4.39 8.3 7.32 11.718 2.93 3.321 6.45 6.006 10.55 8.057 4.1 1.953 8.93 2.93 14.5 2.93 5.08 0 9.57-1.026 13.48-3.076 4-2.149 7.47-4.981 10.4-8.497 3.02-3.515 5.56-7.519 7.61-12.011a87.561 87.561 0 004.98-13.916c1.27-4.785 2.2-9.522 2.79-14.209.58-4.785.88-9.131.88-13.037zm73.61 12.597c0-7.715.64-15.722 1.91-24.023 1.36-8.301 3.27-16.602 5.71-24.902a234.816 234.816 0 019.08-24.61c3.52-8.105 7.47-15.869 11.87-23.291h36.18c-2.44 7.324-4.64 14.99-6.59 22.998a396.02 396.02 0 00-4.84 23.877 411.119 411.119 0 00-3.07 23.291c-.69 7.617-1.03 14.697-1.03 21.24 0 3.809.15 7.911.44 12.305.39 4.297 1.03 8.643 1.91 13.037.87 4.297 2.1 8.447 3.66 12.451 1.66 4.004 3.76 7.569 6.3 10.694 2.54 3.027 5.61 5.468 9.23 7.324 3.71 1.758 8.05 2.637 13.03 2.637 4.89 0 9.23-1.075 13.04-3.223 3.91-2.246 7.32-5.127 10.25-8.643 2.93-3.613 5.42-7.714 7.47-12.304a90.715 90.715 0 004.98-14.063c1.37-4.883 2.35-9.619 2.93-14.209.69-4.687 1.03-8.886 1.03-12.597v-84.815h49.51v169.19h-19.04l-22.71-39.405c-2.83 6.543-6.3 12.5-10.4 17.871-4 5.274-8.59 9.815-13.77 13.623-5.17 3.809-10.93 6.739-17.28 8.789-6.25 2.051-13.04 3.077-20.36 3.077-11.72 0-21.93-1.905-30.62-5.713-8.69-3.809-15.92-9.082-21.68-15.821-5.76-6.738-10.06-14.746-12.89-24.023-2.83-9.375-4.25-19.629-4.25-30.762zm375.67 72.364h-49.51V465.72c-5.86 8.008-12.94 13.965-21.24 17.871-8.2 3.808-17.24 5.713-27.1 5.713-12.89 0-24.41-2.295-34.57-6.885s-18.75-10.84-25.78-18.75c-7.03-8.008-12.4-17.383-16.11-28.125-3.72-10.742-5.57-22.266-5.57-34.57 0-12.305 1.85-23.828 5.57-34.571 3.71-10.742 9.08-20.068 16.11-27.978 7.03-8.008 15.62-14.307 25.78-18.897 10.16-4.59 21.68-6.884 34.57-6.884 6.54 0 12.74.976 18.6 2.929 5.96 1.953 11.38 4.737 16.26 8.35 4.98 3.515 9.33 7.812 13.04 12.89 3.81 4.981 6.79 10.547 8.94 16.7l21.97-36.768h19.04v169.19zm-49.8-84.961c0-4.395-.25-9.034-.74-13.916-.39-4.883-1.12-9.717-2.19-14.502-1.08-4.785-2.59-9.327-4.54-13.623-1.86-4.395-4.3-8.252-7.33-11.573-2.93-3.418-6.49-6.103-10.69-8.056-4.2-1.953-9.08-2.93-14.65-2.93s-10.4 1.025-14.5 3.076c-4.1 1.953-7.62 4.639-10.55 8.057-2.93 3.32-5.37 7.178-7.32 11.572-1.86 4.395-3.32 8.984-4.4 13.77a122.394 122.394 0 00-2.34 14.502c-.39 4.785-.59 9.326-.59 13.623 0 4.297.2 8.886.59 13.769.49 4.883 1.27 9.717 2.34 14.502 1.08 4.785 2.54 9.375 4.4 13.77 1.95 4.394 4.39 8.3 7.32 11.718 2.93 3.321 6.45 6.006 10.55 8.057 4.1 1.953 8.93 2.93 14.5 2.93 5.08 0 9.57-1.026 13.48-3.076 4-2.149 7.47-4.981 10.4-8.497 3.02-3.515 5.56-7.519 7.61-12.011a86.586 86.586 0 004.98-13.916c1.27-4.785 2.2-9.522 2.79-14.209.58-4.785.88-9.131.88-13.037zm226.1-69.287l-27.83 46.142c-1.17-3.906-2.68-8.301-4.54-13.183-1.85-4.883-4.15-9.424-6.88-13.624-2.74-4.296-6.01-7.861-9.82-10.693-3.81-2.93-8.2-4.394-13.18-4.394-4.59 0-8.6 1.171-12.01 3.515-3.32 2.344-6.16 5.42-8.5 9.229-2.34 3.711-4.3 7.959-5.86 12.744a117.635 117.635 0 00-3.51 14.355c-.79 4.785-1.32 9.424-1.62 13.916-.29 4.395-.44 8.203-.44 11.426v84.815h-49.65v-169.19h19.04l20.07 39.404c2.73-6.347 5.86-12.158 9.37-17.431 3.52-5.371 7.57-9.961 12.16-13.77 4.59-3.906 9.77-6.933 15.53-9.082 5.86-2.148 12.45-3.222 19.77-3.222 3.81 0 8.06.341 12.75 1.025 4.69.586 9.28 1.66 13.77 3.223 4.49 1.464 8.64 3.418 12.45 5.859 3.81 2.441 6.79 5.42 8.93 8.936zm63.81-55.811c0 3.711-.74 7.227-2.2 10.547-1.37 3.32-3.27 6.201-5.71 8.642-2.44 2.442-5.33 4.395-8.65 5.86-3.32 1.367-6.83 2.051-10.54 2.051-3.71 0-7.23-.684-10.55-2.051-3.22-1.465-6.05-3.418-8.5-5.86-2.44-2.441-4.39-5.322-5.86-8.642-1.36-3.32-2.05-6.836-2.05-10.547 0-3.711.69-7.178 2.05-10.4 1.47-3.321 3.42-6.202 5.86-8.643a26.716 26.716 0 018.5-5.713c3.32-1.465 6.84-2.197 10.55-2.197 3.71 0 7.22.732 10.54 2.197 3.32 1.367 6.21 3.272 8.65 5.713 2.44 2.441 4.34 5.322 5.71 8.643 1.46 3.222 2.2 6.689 2.2 10.4zm-2.2 210.059h-49.66V316.892h49.66v169.043zm73.32-80.274a196.835 196.835 0 0018.17 3.223c6.05.781 12.16 1.172 18.31 1.172 6.44 0 12.4-.586 17.87-1.758 5.57-1.27 10.35-3.32 14.36-6.152 4.1-2.93 7.32-6.788 9.66-11.573 2.35-4.785 3.52-10.742 3.52-17.871 0-5.762-.78-11.035-2.35-15.82-1.56-4.785-3.9-8.887-7.03-12.305-3.02-3.418-6.78-6.055-11.28-7.91-4.49-1.953-9.71-2.93-15.67-2.93-5.57 0-10.6 1.026-15.09 3.076a39.638 39.638 0 00-11.72 8.35c-3.32 3.418-6.2 7.422-8.64 12.012a92.32 92.32 0 00-5.86 14.355 91.71 91.71 0 00-3.37 15.088c-.68 5.078-1.02 9.863-1.02 14.356v2.343c0 .782.05 1.563.14 2.344zm122.03-33.398c0 6.933-1.13 13.134-3.37 18.603-2.25 5.371-5.33 10.108-9.23 14.209-3.81 4.102-8.25 7.569-13.33 10.401s-10.5 5.175-16.26 7.031a107.515 107.515 0 01-17.87 3.808c-6.06.782-11.97 1.172-17.73 1.172-7.32 0-14.55-.488-21.68-1.465a132.137 132.137 0 01-21.09-4.98c1.07 6.445 2.78 12.598 5.13 18.457 2.34 5.762 5.46 10.84 9.37 15.234 3.91 4.297 8.69 7.715 14.36 10.254 5.76 2.539 12.54 3.809 20.36 3.809 5.17 0 10.1-.781 14.79-2.344 4.69-1.562 8.99-3.76 12.89-6.592a47.86 47.86 0 0010.26-10.107c3.02-3.906 5.47-8.252 7.32-13.037l21.39 7.91c-3.22 7.715-7.67 14.404-13.33 20.068-5.57 5.567-11.92 10.205-19.05 13.916-7.03 3.614-14.55 6.299-22.55 8.057-7.91 1.758-15.78 2.637-23.59 2.637-12.89 0-24.8-2.149-35.74-6.446-10.94-4.394-20.36-10.498-28.27-18.31-7.91-7.813-14.11-17.139-18.6-27.979-4.5-10.84-6.74-22.705-6.74-35.595 0-12.891 2.24-24.756 6.74-35.596 4.49-10.84 10.69-20.166 18.6-27.979 7.91-7.812 17.33-13.867 28.27-18.164 10.94-4.394 22.85-6.591 35.74-6.591 6.25 0 12.65.439 19.19 1.318 6.54.879 12.89 2.295 19.04 4.248 6.16 1.855 11.97 4.297 17.44 7.324 5.47 3.028 10.2 6.787 14.21 11.279 4.1 4.395 7.32 9.522 9.66 15.381 2.44 5.86 3.67 12.549 3.67 20.069zM1455.43 667.292l-25.05 10.547c-1.96-6.348-4.59-12.158-7.91-17.432-3.23-5.273-7.13-9.765-11.72-13.476-4.49-3.809-9.62-6.739-15.38-8.789-5.76-2.149-12.06-3.223-18.9-3.223-7.32 0-14.06 1.221-20.21 3.662-6.06 2.344-11.53 5.615-16.41 9.815-4.79 4.199-8.98 9.082-12.6 14.648a96.114 96.114 0 00-9.08 17.871 100.898 100.898 0 00-5.42 19.482c-1.17 6.739-1.76 13.331-1.76 19.776 0 10.254 1.17 20.459 3.52 30.615 2.44 10.156 6.25 19.287 11.42 27.393 5.28 8.105 12.06 14.697 20.36 19.775 8.31 4.981 18.36 7.471 30.18 7.471 6.25 0 12.16-1.026 17.73-3.076 5.56-2.149 10.59-5.03 15.08-8.643 4.59-3.711 8.6-8.057 12.01-13.037a69.517 69.517 0 008.21-16.113l25.34 10.107c-3.71 9.277-8.79 17.432-15.23 24.463a88.531 88.531 0 01-22.12 17.285c-8.21 4.59-17.04 8.008-26.52 10.254a116.72 116.72 0 01-28.42 3.516c-10.35 0-20.31-1.27-29.88-3.809-9.47-2.539-18.31-6.152-26.51-10.84a108.28 108.28 0 01-22.41-16.992 110.715 110.715 0 01-17.14-22.119c-4.69-8.106-8.35-16.895-10.99-26.367-2.54-9.571-3.81-19.532-3.81-29.883 0-10.352 1.27-20.264 3.81-29.736 2.64-9.571 6.3-18.409 10.99-26.514a108.909 108.909 0 0117.14-22.266 108.35 108.35 0 0122.41-16.992c8.2-4.687 17.04-8.301 26.51-10.84 9.57-2.539 19.53-3.808 29.88-3.808 9.97 0 19.68 1.171 29.16 3.515 9.57 2.344 18.45 5.908 26.66 10.694 8.2 4.687 15.47 10.644 21.82 17.871 6.45 7.129 11.52 15.527 15.24 25.195zm192.12 158.643h-49.51V805.72c-5.86 8.008-12.94 13.965-21.24 17.871-8.21 3.808-17.24 5.713-27.1 5.713-12.89 0-24.42-2.295-34.57-6.885-10.16-4.59-18.75-10.84-25.78-18.75-7.04-8.008-12.41-17.383-16.12-28.125-3.71-10.742-5.56-22.266-5.56-34.57 0-12.305 1.85-23.828 5.56-34.571 3.71-10.742 9.08-20.068 16.12-27.978 7.03-8.008 15.62-14.307 25.78-18.897 10.15-4.59 21.68-6.884 34.57-6.884 6.54 0 12.74.976 18.6 2.929 5.96 1.953 11.38 4.737 16.26 8.35 4.98 3.515 9.33 7.812 13.04 12.89 3.81 4.981 6.78 10.547 8.93 16.7l21.98-36.768h19.04v169.19zm-49.81-84.961c0-4.395-.24-9.034-.73-13.916-.39-4.883-1.12-9.717-2.2-14.502-1.07-4.785-2.58-9.327-4.54-13.623-1.85-4.395-4.29-8.252-7.32-11.573-2.93-3.418-6.49-6.103-10.69-8.056-4.2-1.953-9.09-2.93-14.65-2.93-5.57 0-10.4 1.025-14.5 3.076a31.588 31.588 0 00-10.55 8.057c-2.93 3.32-5.37 7.178-7.33 11.572a80.941 80.941 0 00-4.39 13.77 120.377 120.377 0 00-2.34 14.502c-.39 4.785-.59 9.326-.59 13.623 0 4.297.2 8.886.59 13.769.48 4.883 1.27 9.717 2.34 14.502a80.97 80.97 0 004.39 13.77c1.96 4.394 4.4 8.3 7.33 11.718 2.93 3.321 6.44 6.006 10.55 8.057 4.1 1.953 8.93 2.93 14.5 2.93 5.08 0 9.57-1.026 13.47-3.076 4.01-2.149 7.47-4.981 10.4-8.497 3.03-3.515 5.57-7.519 7.62-12.011a87.561 87.561 0 004.98-13.916c1.27-4.785 2.2-9.522 2.79-14.209.58-4.785.87-9.131.87-13.037zm262.15 0c0 12.304-1.86 23.828-5.57 34.57s-9.08 20.117-16.11 28.125c-7.03 7.91-15.63 14.16-25.78 18.75-10.16 4.59-21.68 6.885-34.57 6.885-9.87 0-18.95-1.905-27.25-5.713-8.2-3.906-15.23-9.863-21.09-17.871v98.291H1680V656.745h19.05l21.97 36.768c2.15-6.153 5.08-11.719 8.79-16.7 3.81-5.078 8.15-9.375 13.04-12.89a59.634 59.634 0 0116.26-8.35c5.95-1.953 12.2-2.929 18.75-2.929 12.89 0 24.41 2.294 34.57 6.884 10.15 4.59 18.75 10.889 25.78 18.897 7.03 7.91 12.4 17.236 16.11 27.978 3.71 10.743 5.57 22.266 5.57 34.571zm-50.25 0c0-4.297-.24-8.838-.73-13.623-.39-4.883-1.12-9.717-2.2-14.502a73.311 73.311 0 00-4.54-13.77c-1.85-4.394-4.25-8.252-7.18-11.572-2.93-3.418-6.49-6.104-10.69-8.057-4.1-2.051-8.89-3.076-14.35-3.076-5.67 0-10.6.977-14.8 2.93a33.158 33.158 0 00-10.69 8.056c-2.93 3.321-5.37 7.178-7.33 11.573a76.677 76.677 0 00-4.39 13.623 120.403 120.403 0 00-2.35 14.502 175 175 0 00-.58 13.916c0 3.906.29 8.252.88 13.037.58 4.687 1.51 9.424 2.78 14.209a87.561 87.561 0 004.98 13.916c2.05 4.492 4.54 8.496 7.47 12.011 3.03 3.516 6.5 6.348 10.4 8.497 4.01 2.05 8.55 3.076 13.63 3.076 5.56 0 10.4-.977 14.5-2.93 4.1-2.051 7.61-4.736 10.54-8.057 2.93-3.418 5.33-7.324 7.18-11.718a73.335 73.335 0 004.54-13.77c1.08-4.785 1.81-9.619 2.2-14.502.49-4.883.73-9.472.73-13.769zm125.18-125.098c0 3.711-.73 7.227-2.2 10.547-1.36 3.32-3.27 6.201-5.71 8.642-2.44 2.442-5.32 4.395-8.64 5.86-3.32 1.367-6.84 2.051-10.55 2.051-3.71 0-7.22-.684-10.54-2.051-3.23-1.465-6.06-3.418-8.5-5.86-2.44-2.441-4.39-5.322-5.86-8.642-1.37-3.32-2.05-6.836-2.05-10.547 0-3.711.68-7.178 2.05-10.4 1.47-3.321 3.42-6.202 5.86-8.643a26.497 26.497 0 018.5-5.713c3.32-1.465 6.83-2.197 10.54-2.197 3.71 0 7.23.732 10.55 2.197 3.32 1.367 6.2 3.272 8.64 5.713 2.44 2.441 4.35 5.322 5.71 8.643 1.47 3.222 2.2 6.689 2.2 10.4zm-2.2 210.059h-49.65V656.892h49.65v169.043zm96.33 0h-49.66V676.374h-30.76v-19.629h30.76v-62.256h49.66v62.256h51.27v19.629h-51.27v149.561zm230.06 0h-49.51V805.72c-5.86 8.008-12.94 13.965-21.24 17.871-8.21 3.808-17.24 5.713-27.1 5.713-12.89 0-24.42-2.295-34.57-6.885-10.16-4.59-18.75-10.84-25.78-18.75-7.03-8.008-12.41-17.383-16.12-28.125-3.71-10.742-5.56-22.266-5.56-34.57 0-12.305 1.85-23.828 5.56-34.571 3.71-10.742 9.09-20.068 16.12-27.978 7.03-8.008 15.62-14.307 25.78-18.897 10.15-4.59 21.68-6.884 34.57-6.884 6.54 0 12.74.976 18.6 2.929 5.96 1.953 11.38 4.737 16.26 8.35 4.98 3.515 9.33 7.812 13.04 12.89 3.81 4.981 6.79 10.547 8.93 16.7l21.98-36.768h19.04v169.19zm-49.8-84.961c0-4.395-.25-9.034-.74-13.916-.39-4.883-1.12-9.717-2.19-14.502-1.08-4.785-2.59-9.327-4.55-13.623-1.85-4.395-4.29-8.252-7.32-11.573-2.93-3.418-6.49-6.103-10.69-8.056-4.2-1.953-9.09-2.93-14.65-2.93-5.57 0-10.4 1.025-14.5 3.076a31.588 31.588 0 00-10.55 8.057c-2.93 3.32-5.37 7.178-7.32 11.572-1.86 4.395-3.32 8.984-4.4 13.77a122.394 122.394 0 00-2.34 14.502c-.39 4.785-.59 9.326-.59 13.623 0 4.297.2 8.886.59 13.769.49 4.883 1.27 9.717 2.34 14.502 1.08 4.785 2.54 9.375 4.4 13.77 1.95 4.394 4.39 8.3 7.32 11.718 2.93 3.321 6.44 6.006 10.55 8.057 4.1 1.953 8.93 2.93 14.5 2.93 5.08 0 9.57-1.026 13.47-3.076a34.88 34.88 0 0010.41-8.497c3.02-3.515 5.56-7.519 7.61-12.011a87.561 87.561 0 004.98-13.916c1.27-4.785 2.2-9.522 2.79-14.209.58-4.785.88-9.131.88-13.037zm131.77 84.961h-49.52v-247.12h19.05l30.47 51.416v195.704z"/><path fill-rule="evenodd" clip-rule="evenodd" d="M24.968 519.943L0 544.912l24.968 24.968 127.596 127.596v-99.874l-52.69-52.69 52.69-52.69v-99.874L24.969 519.943zM237.31 307.602l70.317-70.317h99.874L237.31 407.476v-99.874zm0 374.746v99.874l70.317 70.317h99.874L237.31 682.348zm254.937 254.937l52.665 52.664 52.665-52.664h99.874L569.88 1064.85l-24.968 24.97-24.969-24.97-127.57-127.565h99.874zm289.95-84.746h-99.874l170.241-170.242v99.874l-70.367 70.368zM937.31 697.425l127.54-127.545 24.97-24.968-24.97-24.969-127.54-127.545v99.874l52.639 52.64-52.639 52.639v99.874zm-84.746-289.899v-99.874l-70.368-70.367h-99.874l170.242 170.241zM597.576 152.539h99.874L569.88 24.969 544.912 0l-24.969 24.968-127.57 127.571h99.874l52.665-52.665 52.664 52.665z"/><path d="M194.938 194.912h700v700h-700z"/><path d="M390.023 621.744h-42.309V488.959h-41.776v-19.453h125.861v19.453h-41.776v132.785zM467.987 508.2l-11.936 113.544h-26.11l26.11-152.238h38.685l35.915 116.187 36.341-116.187h38.686l21.741 152.238h-43.055L571.682 511.16l-29.947 110.584h-38.686L467.987 508.2zm318.177-.951l-18.223 7.611c-1.421-4.581-3.34-8.774-5.755-12.58-2.345-3.806-5.187-7.048-8.526-9.727-3.268-2.748-6.998-4.863-11.19-6.343-4.192-1.551-8.775-2.326-13.748-2.326-5.329 0-10.231.881-14.707 2.643a40.766 40.766 0 00-11.936 7.084c-3.481 3.03-6.536 6.554-9.165 10.572a69.04 69.04 0 00-6.608 12.898 72.413 72.413 0 00-3.943 14.06c-.852 4.864-1.279 9.621-1.279 14.273 0 7.4.853 14.765 2.558 22.095 1.776 7.33 4.547 13.92 8.313 19.77 3.836 5.85 8.774 10.608 14.813 14.273 6.039 3.594 13.357 5.391 21.954 5.391 4.547 0 8.845-.74 12.895-2.22 4.05-1.55 7.709-3.63 10.977-6.237a44.313 44.313 0 008.739-9.409 50.057 50.057 0 005.968-11.63l18.437 7.295c-2.7 6.696-6.394 12.581-11.083 17.655a64.278 64.278 0 01-16.093 12.475c-5.968 3.313-12.398 5.78-19.289 7.401a85.616 85.616 0 01-20.675 2.537c-7.531 0-14.778-.916-21.741-2.749-6.892-1.832-13.322-4.44-19.29-7.823a78.829 78.829 0 01-16.305-12.264 80.06 80.06 0 01-12.469-15.963c-3.41-5.85-6.075-12.194-7.993-19.03-1.847-6.907-2.771-14.096-2.771-21.567s.924-14.625 2.771-21.462c1.918-6.907 4.583-13.285 7.993-19.135a78.798 78.798 0 0112.469-16.07 78.86 78.86 0 0116.305-12.263c5.968-3.383 12.398-5.991 19.29-7.824 6.963-1.832 14.21-2.748 21.741-2.748 7.247 0 14.316.845 21.207 2.537 6.963 1.691 13.429 4.264 19.397 7.718 5.968 3.383 11.261 7.682 15.879 12.898 4.689 5.145 8.384 11.206 11.083 18.184z"/></symbol><symbol viewBox="0 0 512 512" id="main-adv1" xmlns="http://www.w3.org/2000/svg"><path d="M442.434 52.012L275.781 2.863a69.776 69.776 0 00-39.563 0L69.567 52.011C57.263 55.639 48.67 67.131 48.67 79.959v138.014c0 63.872 19.013 125.375 54.984 177.86 35.118 51.243 83.991 90.665 141.33 114 3.552 1.445 7.284 2.168 11.016 2.168s7.464-.724 11.015-2.168c57.339-23.335 106.212-62.755 141.33-114 35.97-52.486 54.983-113.988 54.983-177.86V79.96c.002-12.828-8.591-24.321-20.894-27.948zm-2.414 165.96c0 59.147-17.602 116.093-50.901 164.681-32.53 47.466-77.79 83.978-130.889 105.587a5.884 5.884 0 01-4.459 0c-53.099-21.609-98.36-58.12-130.889-105.587-33.299-48.588-50.901-105.533-50.901-164.681V79.959a5.861 5.861 0 014.18-5.589l166.652-49.149a46.57 46.57 0 0113.188-1.908c4.436 0 8.873.636 13.187 1.909L435.842 74.37a5.86 5.86 0 014.178 5.589v138.013z"/><path d="M385.15 103.555l-124.206-36.63a17.439 17.439 0 00-9.888 0l-124.203 36.63c-7.382 2.178-12.539 9.074-12.539 16.77v97.647c0 51.598 15.608 101.088 45.134 143.122 22.892 32.593 53.481 59.502 88.458 77.82a17.43 17.43 0 008.095 1.991c2.78 0 5.56-.663 8.095-1.991 34.976-18.317 65.565-45.228 88.458-77.82 29.526-42.033 45.134-91.524 45.134-143.122v-97.647c-.001-7.698-5.157-14.593-12.538-16.77zm-10.772 114.417c0 46.777-14.142 91.635-40.897 129.723-20.172 28.717-46.912 52.562-77.48 69.12-30.568-16.559-57.309-40.403-77.48-69.12-26.755-38.088-40.897-82.946-40.897-129.723v-93.29L256.001 89.77l118.377 34.912v93.29z"/></symbol><symbol viewBox="0 0 470 470" id="main-adv10" xmlns="http://www.w3.org/2000/svg"><path d="M462.5 22.5H7.5A7.5 7.5 0 000 30v410a7.5 7.5 0 007.5 7.5h455a7.5 7.5 0 007.5-7.5v-80c0-4.142-3.357-7.5-7.5-7.5s-7.5 3.358-7.5 7.5v72.5H15v-335h440V330c0 4.142 3.357 7.5 7.5 7.5s7.5-3.358 7.5-7.5V30a7.5 7.5 0 00-7.5-7.5zM15 37.5h277.5v45H15v-45zm292.5 45v-45H455v45H307.5z"/><path d="M381.5 52c-4.411 0-8 3.589-8 8s3.589 8 8 8 8-3.589 8-8-3.589-8-8-8zm-41 0c-4.411 0-8 3.589-8 8s3.589 8 8 8 8-3.589 8-8-3.589-8-8-8zm82 0c-4.411 0-8 3.589-8 8s3.589 8 8 8 8-3.589 8-8-3.589-8-8-8zM295.559 277.782a7.5 7.5 0 00-10.607 0l-40.257 40.257A22.372 22.372 0 00235 315.84c-12.406 0-22.5 10.093-22.5 22.5s10.094 22.5 22.5 22.5 22.5-10.093 22.5-22.5c0-3.469-.79-6.757-2.199-9.694l40.257-40.258a7.5 7.5 0 00.001-10.606zM235 345.841c-4.136 0-7.5-3.364-7.5-7.5s3.364-7.5 7.5-7.5 7.5 3.364 7.5 7.5-3.364 7.5-7.5 7.5z"/><path d="M335.68 338.341a7.5 7.5 0 007.5 7.5h53.521a7.5 7.5 0 007.479-8.064c-.151-46.017-18.776-87.759-48.821-118.203a7.555 7.555 0 00-.73-.862 7.492 7.492 0 00-.845-.717c-30.57-30.177-72.537-48.835-118.785-48.835-46.242 0-88.203 18.655-118.772 48.826-.298.22-.588.457-.858.726-.27.27-.507.56-.727.858-30.17 30.569-48.825 72.53-48.825 118.771a7.5 7.5 0 007.5 7.5h53.502a7.5 7.5 0 007.5-7.5c0-55.515 45.165-100.68 100.68-100.68s100.681 45.165 100.681 100.68zm-176.961-86.888l-27.255-27.255c25.656-23.294 59.168-38.082 96.036-39.856v38.568c-26.261 1.689-50.161 12.177-68.781 28.543zm83.781-67.111c36.868 1.775 70.38 16.562 96.036 39.856l-27.255 27.255c-18.619-16.366-42.52-26.855-68.781-28.544v-38.567zm107.939 146.499c-1.688-26.262-12.182-50.164-28.549-68.783l27.253-27.253c23.294 25.657 38.082 59.169 39.858 96.037h-38.562zm-230.878-.001H80.998c1.776-36.868 16.564-70.38 39.858-96.037l27.253 27.253c-16.366 18.62-26.86 42.522-28.548 68.784z"/></symbol><symbol viewBox="0 0 470 470" id="main-adv11" xmlns="http://www.w3.org/2000/svg"><path d="M462.5 22.5H7.5A7.5 7.5 0 000 30v410a7.5 7.5 0 007.5 7.5h455a7.5 7.5 0 007.5-7.5v-80c0-4.143-3.358-7.5-7.5-7.5s-7.5 3.357-7.5 7.5v72.5H15v-335h440V330c0 4.143 3.358 7.5 7.5 7.5s7.5-3.357 7.5-7.5V30a7.5 7.5 0 00-7.5-7.5zM15 37.5h277.5v45H15v-45zm292.5 45v-45H455v45H307.5z"/><path d="M381.5 52c-4.411 0-8 3.589-8 8s3.589 8 8 8 8-3.589 8-8-3.589-8-8-8zm-41 0c-4.411 0-8 3.589-8 8s3.589 8 8 8 8-3.589 8-8-3.589-8-8-8zm82 0c-4.411 0-8 3.589-8 8s3.589 8 8 8 8-3.589 8-8-3.589-8-8-8zM314.42 331.008a7.5 7.5 0 00-7.5 7.5V393a7.5 7.5 0 007.5 7.5H415.5a7.5 7.5 0 007.5-7.5v-54.492a7.5 7.5 0 00-7.5-7.5h-45.447V286.36a7.5 7.5 0 00-7.5-7.5H265c-4.142 0-7.5 3.357-7.5 7.5s3.358 7.5 7.5 7.5h90.053v37.148H314.42zM408 385.5h-86.08v-39.492H408V385.5zm-99.827-214.895a7.5 7.5 0 00-7.5-7.5H169.327c-4.142 0-7.5 3.357-7.5 7.5s3.358 7.5 7.5 7.5h131.347a7.5 7.5 0 007.499-7.5zm-27.759 30a7.5 7.5 0 00-7.5-7.5h-75.827c-4.142 0-7.5 3.357-7.5 7.5s3.358 7.5 7.5 7.5h75.827a7.5 7.5 0 007.5-7.5z"/><path d="M184.46 331.008a7.5 7.5 0 00-7.5 7.5V393a7.5 7.5 0 007.5 7.5h101.08a7.5 7.5 0 007.5-7.5v-54.492a7.5 7.5 0 00-7.5-7.5H242.5v-89.297h91.173a7.5 7.5 0 007.5-7.5V137a7.5 7.5 0 00-7.5-7.5H136.327a7.5 7.5 0 00-7.5 7.5v97.211a7.5 7.5 0 007.5 7.5H227.5v37.148H107.447a7.5 7.5 0 00-7.5 7.5v44.648H54.5a7.5 7.5 0 00-7.5 7.5V393a7.5 7.5 0 007.5 7.5h101.08a7.5 7.5 0 007.5-7.5v-54.492a7.5 7.5 0 00-7.5-7.5h-40.633V293.86H227.5v37.148h-43.04zM143.827 144.5h182.347v82.211H143.827V144.5zm4.253 241H62v-39.492h86.08V385.5zm129.96 0h-86.08v-39.492h86.08V385.5z"/></symbol><symbol viewBox="0 0 512 512" id="main-adv2" xmlns="http://www.w3.org/2000/svg"><path d="M312.461 332.734H199.539c-8.511 0-15.434 6.923-15.434 15.434v34.634c0 8.511 6.923 15.435 15.434 15.435h112.923c8.511 0 15.435-6.923 15.435-15.435v-34.634c-.002-8.51-6.925-15.434-15.436-15.434zm-4.41 45.659H203.948v-25.814h104.103v25.814z"/><path d="M506.976 246.958l.159-.08L432.73 99.774c-6.015-11.89-18.025-19.275-31.346-19.275h-14.141V66.824c0-5.48-4.442-9.922-9.922-9.922H134.68c-5.48 0-9.922 4.442-9.922 9.922v13.675h-14.141c-13.321 0-25.331 7.385-31.346 19.275L4.865 246.878l.159.08A34.54 34.54 0 000 264.939v155.409c0 19.162 15.59 34.751 34.752 34.751h442.497c19.162 0 34.751-15.59 34.751-34.751V264.939a34.54 34.54 0 00-5.024-17.981zm-119.734-144.41h14.141a13.02 13.02 0 0111.671 7.179l60.93 120.462h-41.431v-37.066c0-5.48-4.442-9.922-9.922-9.922h-12.275v-53.227c0-5.48-4.442-9.922-9.922-9.922h-13.192v-17.504zm25.468 100.496v27.144h-52.359a22.925 22.925 0 00-20.865 13.482l-14.296 31.71a.841.841 0 01-.764.493H187.575a.84.84 0 01-.764-.494l-14.295-31.708a22.926 22.926 0 00-20.866-13.483H99.291v-27.144H412.71zM144.602 76.746h222.796v43.305H144.602V76.746zm245.91 63.149V183.2H121.488v-43.305h269.024zM98.946 109.727a13.017 13.017 0 0111.671-7.179h14.141v17.503h-13.192c-5.48 0-9.922 4.442-9.922 9.922V183.2H89.369c-5.48 0-9.922 4.442-9.922 9.922v37.066H38.016l60.93-120.461zm378.303 323.322H34.752c-7.004 0-12.703-5.699-12.703-12.701V264.939c0-7.003 5.698-12.701 12.703-12.701H151.65c.328 0 .629.194.765.495l14.295 31.708a22.923 22.923 0 0020.865 13.481h136.85a22.924 22.924 0 0020.865-13.48l14.296-31.709v-.001a.84.84 0 01.764-.494h116.898c7.004 0 12.701 5.699 12.701 12.701v155.409h.001c.001 7.004-5.697 12.701-12.701 12.701z"/></symbol><symbol viewBox="0 0 512 512" id="main-adv3" xmlns="http://www.w3.org/2000/svg"><path d="M489.061 35.88H267.469V22.971c0-6.334-5.135-11.469-11.469-11.469s-11.469 5.135-11.469 11.469V35.88H22.939C10.29 35.88 0 46.17 0 58.819v21.284c0 12.648 10.29 22.939 22.939 22.939h3.117v257.795c0 12.648 10.29 22.939 22.939 22.939h195.536v33.662l-84.993 62.343c-5.107 3.747-6.212 10.925-2.465 16.032 3.748 5.108 10.925 6.211 16.032 2.465l71.426-52.392v43.144c0 6.334 5.135 11.469 11.469 11.469 6.335 0 11.469-5.135 11.469-11.469v-43.144l71.426 52.392a11.421 11.421 0 006.775 2.222c3.529 0 7.01-1.623 9.257-4.686 3.747-5.107 2.643-12.285-2.465-16.032l-84.993-62.343v-33.662h195.536c12.648 0 22.939-10.29 22.939-22.939V103.041h3.117c12.648 0 22.939-10.29 22.939-22.939V58.819c0-12.649-10.29-22.939-22.939-22.939zm-26.056 324.955H48.995V103.041h414.011v257.794zm26.056-280.733H22.939V58.819h466.123v21.283z"/><path d="M255.782 136.254c-5.701 0-10.322 4.621-10.322 10.322v79.157h-79.157c-5.701 0-10.322 4.621-10.322 10.322 0 55.031 44.771 99.801 99.802 99.801s99.803-44.771 99.803-99.801-44.773-99.801-99.804-99.801zm0 178.958c-40.15 0-73.413-30.046-78.487-68.834h78.487c5.701 0 10.322-4.621 10.322-10.322v-78.487c38.788 5.074 68.835 38.337 68.835 78.487.001 43.647-35.509 79.156-79.157 79.156z"/><path d="M220.845 125.575c-41.652 0-75.539 33.891-75.539 75.548 0 5.701 4.621 10.322 10.322 10.322h65.217c5.701 0 10.322-4.621 10.322-10.322v-65.226c.001-5.701-4.62-10.322-10.322-10.322zm-10.322 65.226h-43.599c4.203-22.013 21.59-39.403 43.599-43.607v43.607z"/></symbol><symbol viewBox="0 0 512 512" id="main-adv4" xmlns="http://www.w3.org/2000/svg"><path d="M499.904 456.607H12.096C5.415 456.607 0 462.022 0 468.703c0 6.679 5.415 12.096 12.096 12.096h487.808c6.679 0 12.096-5.417 12.096-12.096 0-6.68-5.415-12.096-12.096-12.096zM468.37 88.305h-84.948c-6.679 0-12.096 5.417-12.096 12.096v82.24h-60.757V43.297c0-6.679-5.417-12.096-12.096-12.096h-84.95c-6.679 0-12.096 5.417-12.096 12.096v228.882H140.67V169.36c0-6.681-5.417-12.096-12.096-12.096H43.626c-6.681 0-12.096 5.415-12.096 12.096v231.563c0 6.681 5.417 12.096 12.096 12.096h424.743c6.681 0 12.096-5.417 12.096-12.096V100.401c.001-6.679-5.414-12.096-12.095-12.096zM116.479 388.827H55.722V181.456h60.757v207.371zm84.95 0h-60.757v-92.456h60.757v92.456zm84.949-194.09v194.09H225.62V55.393h60.758v139.344zm84.95 194.09h-60.757V206.833h60.757v181.994zm84.948 0H395.52v-276.33h60.757v276.33z"/></symbol><symbol viewBox="0 0 511.999 511.999" id="main-adv5" xmlns="http://www.w3.org/2000/svg"><path d="M466.45 49.374a37.048 37.048 0 00-28.267-13.071H402.41v-11.19C402.41 11.266 391.143 0 377.297 0H134.705c-13.848 0-25.112 11.266-25.112 25.112v11.19H73.816a37.05 37.05 0 00-28.267 13.071c-6.992 8.221-10.014 19.019-8.289 29.624 9.4 57.8 45.775 108.863 97.4 136.872 4.717 11.341 10.059 22.083 16.008 32.091 19.002 31.975 42.625 54.073 68.627 64.76 2.635 26.644-15.094 51.885-41.794 57.9-.057.013-.097.033-.153.046-5.211 1.245-9.09 5.921-9.09 11.513v54.363h-21.986c-19.602 0-35.549 15.947-35.549 35.549v28.058c0 6.545 5.305 11.85 11.85 11.85H390.56c6.545 0 11.85-5.305 11.85-11.85v-28.058c0-19.602-15.947-35.549-35.549-35.549h-21.988V382.18c0-5.603-3.893-10.286-9.118-11.52-.049-.012-.096-.028-.145-.04-26.902-6.055-44.664-31.55-41.752-58.394 25.548-10.86 48.757-32.761 67.479-64.264 5.949-10.009 11.29-20.752 16.008-32.095 51.622-28.01 87.995-79.072 97.395-136.87 1.725-10.605-1.297-21.402-8.29-29.623zM60.652 75.192c-.616-3.787.431-7.504 2.949-10.466A13.388 13.388 0 0173.815 60h35.777v21.802c0 34.186 4.363 67.3 12.632 97.583-32.496-25.679-54.87-62.982-61.572-104.193zm306.209 385.051c6.534 0 11.85 5.316 11.85 11.85v16.208H134.422v-16.208c0-6.534 5.316-11.85 11.85-11.85h220.589zm-45.688-66.213v42.513H191.96V394.03h129.213zm-98.136-23.699a78.449 78.449 0 008.002-10.46c7.897-12.339 12.042-26.357 12.228-40.674 4.209.573 8.457.88 12.741.88a94.34 94.34 0 0013.852-1.036c.27 19.239 7.758 37.45 20.349 51.289h-67.172zM378.709 81.803c0 58.379-13.406 113.089-37.747 154.049-23.192 39.03-53.364 60.525-84.956 60.525-31.597 0-61.771-21.494-84.966-60.523-24.342-40.961-37.748-95.671-37.748-154.049V25.112c0-.78.634-1.413 1.412-1.413h242.591c.78 0 1.414.634 1.414 1.413v56.691zm72.639-6.611c-6.702 41.208-29.074 78.51-61.569 104.191 8.268-30.283 12.631-63.395 12.631-97.58V60.001h35.773c3.938 0 7.66 1.723 10.214 4.726 2.518 2.961 3.566 6.678 2.951 10.465z"/><path d="M327.941 121.658a11.857 11.857 0 00-9.566-8.064l-35.758-5.196-15.991-32.402a11.852 11.852 0 00-21.252 0l-15.991 32.402-35.758 5.196a11.849 11.849 0 00-6.567 20.213l25.875 25.221-6.109 35.613a11.848 11.848 0 0017.193 12.492L256 190.32l31.982 16.813a11.843 11.843 0 0012.478-.903 11.848 11.848 0 004.714-11.59l-6.109-35.613 25.875-25.221a11.849 11.849 0 003.001-12.148zm-49.877 24.747a11.847 11.847 0 00-3.408 10.489l3.102 18.09-16.245-8.541a11.86 11.86 0 00-11.028 0l-16.245 8.541 3.102-18.09a11.849 11.849 0 00-3.408-10.489l-13.141-12.81 18.162-2.64a11.849 11.849 0 008.922-6.482L256 108.015l8.122 16.458a11.851 11.851 0 008.922 6.482l18.162 2.64-13.142 12.81z"/></symbol><symbol viewBox="0 0 470 470" id="main-adv6" xmlns="http://www.w3.org/2000/svg"><path d="M441.25 0H28.75a7.5 7.5 0 00-7.5 7.5v120a7.5 7.5 0 007.5 7.5h412.5a7.5 7.5 0 007.5-7.5V7.5a7.5 7.5 0 00-7.5-7.5zm-405 15h277.5v105H36.25V15zm397.5 105h-105V15h105v105zm-285 250H280a7.5 7.5 0 000-15H148.75a7.5 7.5 0 000 15zm262.5-55h-262.5a7.5 7.5 0 000 15h262.5a7.5 7.5 0 000-15zm-262.5-65H280a7.5 7.5 0 000-15H148.75a7.5 7.5 0 000 15zm0-40h262.5a7.5 7.5 0 000-15h-262.5a7.5 7.5 0 000 15z"/><path d="M441.25 155H28.75a7.5 7.5 0 00-7.5 7.5v120a7.5 7.5 0 007.5 7.5h412.5a7.5 7.5 0 007.5-7.5v-120a7.5 7.5 0 00-7.5-7.5zm-7.5 120H36.25V170h397.5v105zM352.723 82.3c5.787 5.787 13.48 8.974 21.664 8.974 5.621 0 11.01-1.504 15.71-4.321l15.85 15.85c1.464 1.464 3.384 2.197 5.303 2.197s3.839-.732 5.303-2.197a7.5 7.5 0 000-10.606l-15.85-15.85c2.817-4.699 4.321-10.089 4.321-15.71 0-8.184-3.187-15.877-8.974-21.664C390.264 33.187 382.57 30 374.387 30c-8.184 0-15.877 3.187-21.664 8.973-11.945 11.945-11.945 31.382 0 43.327zm10.607-32.72c2.954-2.953 6.88-4.58 11.057-4.58s8.104 1.626 11.057 4.58c2.954 2.954 4.58 6.88 4.58 11.057s-1.626 8.103-4.58 11.057-6.88 4.58-11.057 4.58-8.104-1.626-11.057-4.58c-6.097-6.097-6.097-16.017 0-22.114zM118.75 305h-60a7.5 7.5 0 00-7.5 7.5v60a7.5 7.5 0 007.5 7.5h60a7.5 7.5 0 007.5-7.5v-60a7.5 7.5 0 00-7.5-7.5zm-7.5 60h-45v-45h45v45zM280 445H148.75a7.5 7.5 0 000 15H280a7.5 7.5 0 000-15zm131.25-40h-262.5a7.5 7.5 0 000 15h262.5a7.5 7.5 0 000-15zm-292.5-10h-60a7.5 7.5 0 00-7.5 7.5v60a7.5 7.5 0 007.5 7.5h60a7.5 7.5 0 007.5-7.5v-60a7.5 7.5 0 00-7.5-7.5zm-7.5 60h-45v-45h45v45z"/><path d="M58.75 260h60a7.5 7.5 0 007.5-7.5v-60a7.5 7.5 0 00-7.5-7.5h-60a7.5 7.5 0 00-7.5 7.5v60a7.5 7.5 0 007.5 7.5zm7.5-60h45v45h-45v-45z"/></symbol><symbol viewBox="0 0 470 470" id="main-adv7" xmlns="http://www.w3.org/2000/svg"><path d="M235 148.009c40.806 0 74.004-33.198 74.004-74.005C309.004 33.198 275.806 0 235 0s-74.004 33.198-74.004 74.004c0 40.807 33.198 74.005 74.004 74.005zM235 15c32.535 0 59.004 26.469 59.004 59.004S267.535 133.009 235 133.009s-59.004-26.47-59.004-59.005S202.465 15 235 15zm0 163.009c59.812 0 108.922 46.69 112.793 105.539H174.46c-4.142 0-7.5 3.357-7.5 7.5s3.358 7.5 7.5 7.5h181.08a7.5 7.5 0 007.5-7.5c0-70.601-57.438-128.039-128.04-128.039s-128.04 57.438-128.04 128.039a7.5 7.5 0 007.5 7.5h30c4.142 0 7.5-3.357 7.5-7.5s-3.358-7.5-7.5-7.5h-22.254c3.872-58.849 52.983-105.539 112.794-105.539zm-94.592 199.703l-41.143-6.905-19.281-36.995a7.5 7.5 0 00-13.302 0l-19.281 36.995-41.143 6.905a7.5 7.5 0 00-4.111 12.65l29.227 29.77-6.147 41.263a7.499 7.499 0 0010.761 7.819l37.344-18.597 37.344 18.597a7.504 7.504 0 007.751-.647 7.499 7.499 0 003.01-7.173l-6.147-41.263 29.227-29.77a7.499 7.499 0 00-4.109-12.649zm-38.437 34.577a7.5 7.5 0 00-2.066 6.359l4.577 30.723-27.805-13.847a7.498 7.498 0 00-6.687 0l-27.806 13.847 4.577-30.723a7.496 7.496 0 00-2.066-6.359l-21.762-22.166 30.634-5.142a7.502 7.502 0 005.41-3.931l14.356-27.546 14.356 27.546a7.502 7.502 0 005.41 3.931l30.634 5.142-21.762 22.166zm200.104-34.577l-41.143-6.905-19.281-36.995a7.5 7.5 0 00-13.302 0l-19.281 36.995-41.143 6.905a7.5 7.5 0 00-4.111 12.65l29.227 29.77-6.146 41.263a7.499 7.499 0 0010.761 7.819L235 450.617l37.344 18.597a7.504 7.504 0 007.751-.647 7.499 7.499 0 003.01-7.173l-6.146-41.263 29.227-29.77a7.499 7.499 0 00-4.111-12.649zm-38.437 34.577a7.5 7.5 0 00-2.066 6.359l4.576 30.723-27.805-13.847a7.5 7.5 0 00-6.686 0l-27.805 13.847 4.576-30.723a7.496 7.496 0 00-2.066-6.359L184.6 390.123l30.634-5.142a7.502 7.502 0 005.41-3.931L235 353.505l14.356 27.546a7.502 7.502 0 005.41 3.931l30.634 5.142-21.762 22.165zm205.995-29.498a7.5 7.5 0 00-5.892-5.079l-41.143-6.905-19.281-36.995a7.5 7.5 0 00-13.302 0l-19.281 36.995-41.143 6.905a7.5 7.5 0 00-4.111 12.65l29.227 29.77-6.147 41.263a7.499 7.499 0 0010.761 7.819l37.344-18.597 37.344 18.597a7.504 7.504 0 007.751-.647 7.499 7.499 0 003.01-7.173l-6.147-41.263 29.227-29.77a7.493 7.493 0 001.783-7.57zm-44.328 29.498a7.5 7.5 0 00-2.066 6.359l4.577 30.723-27.806-13.847a7.5 7.5 0 00-6.686 0l-27.805 13.847 4.577-30.723a7.496 7.496 0 00-2.066-6.359l-21.762-22.166 30.634-5.142a7.502 7.502 0 005.41-3.931l14.356-27.546 14.356 27.546a7.502 7.502 0 005.41 3.931l30.634 5.142-21.763 22.166z"/><path d="M235 108.009c9.831 0 19.184-4.272 25.66-11.721a7.5 7.5 0 00-11.32-9.842c-3.625 4.171-8.853 6.563-14.34 6.563s-10.714-2.392-14.34-6.563a7.5 7.5 0 00-11.32 9.842c6.476 7.448 15.829 11.721 25.66 11.721z"/></symbol><symbol viewBox="0 0 470 470" id="main-adv8" xmlns="http://www.w3.org/2000/svg"><path d="M462.5 22.5H7.5A7.5 7.5 0 000 30v410a7.5 7.5 0 007.5 7.5h455a7.5 7.5 0 007.5-7.5v-80c0-4.142-3.357-7.5-7.5-7.5s-7.5 3.358-7.5 7.5v72.5H15v-335h440V330c0 4.142 3.357 7.5 7.5 7.5s7.5-3.358 7.5-7.5V30a7.5 7.5 0 00-7.5-7.5zM15 37.5h277.5v45H15v-45zm292.5 45v-45H455v45H307.5z"/><path d="M381.5 52c-4.411 0-8 3.589-8 8s3.589 8 8 8 8-3.589 8-8-3.589-8-8-8zm-41 0c-4.411 0-8 3.589-8 8s3.589 8 8 8 8-3.589 8-8-3.589-8-8-8zm82 0c-4.411 0-8 3.589-8 8s3.589 8 8 8 8-3.589 8-8-3.589-8-8-8zm-271.149 95.764l60.392 60.392a7.5 7.5 0 0010.606 0 7.5 7.5 0 000-10.606l-65.677-65.677a7.5 7.5 0 00-10.588-.018l-44.268 43.969a7.5 7.5 0 00-.018 10.625l29.009 29.009 36.819 36.819c1.464 1.464 3.384 2.197 5.303 2.197s3.839-.732 5.303-2.197a7.5 7.5 0 000-10.606l-2.497-2.497 17.163-17.163a7.5 7.5 0 000-10.606 7.5 7.5 0 00-10.606 0l-17.163 17.163-18.407-18.407 17.163-17.163a7.5 7.5 0 000-10.606 7.5 7.5 0 00-10.606 0l-17.163 17.163-18.389-18.389 33.624-33.402zM255.499 340.15l57.978 57.978a7.5 7.5 0 0010.608 0l44.118-44.119a7.5 7.5 0 000-10.606l-65.752-65.752a7.5 7.5 0 00-10.607 10.606l60.449 60.449-33.512 33.512-18.382-18.382 17.163-17.164a7.5 7.5 0 00-10.607-10.606l-17.163 17.163-18.382-18.382 17.164-17.163a7.5 7.5 0 00-10.607-10.606l-17.163 17.163-2.472-2.472a7.5 7.5 0 00-10.607 10.606l7.774 7.775zM107.66 399.842c.992 0 1.994-.197 2.943-.603l65.622-28.023.133-.057c.064-.027.125-.062.188-.091.142-.065.284-.13.422-.205.082-.044.161-.095.241-.143.126-.074.253-.146.376-.229.104-.07.202-.148.303-.222.093-.07.189-.135.279-.209a7.34 7.34 0 00.548-.496l162.059-162.058 19.082-19.082c6.439-6.44 9.986-15.014 9.986-24.141.001-9.127-3.546-17.701-9.986-24.141-6.44-6.44-15.014-9.987-24.141-9.987-9.128 0-17.701 3.547-24.142 9.987l-19.075 19.076-162.064 162.064a7.327 7.327 0 00-.495.548c-.076.093-.143.191-.214.286-.073.098-.149.193-.217.295-.084.126-.159.256-.235.386-.045.077-.094.152-.136.231a7.121 7.121 0 00-.209.431c-.028.061-.061.119-.088.181l-.043.1-28.037 65.655a7.5 7.5 0 006.9 10.447zm190.136-224.706l27.068 27.068-151.452 151.452-27.068-27.068 151.452-151.452zm24.385-24.385c3.606-3.607 8.413-5.594 13.534-5.594 5.12 0 9.927 1.986 13.534 5.594 3.606 3.606 5.593 8.413 5.593 13.533 0 5.121-1.986 9.927-5.594 13.535l-13.777 13.777-27.068-27.068 13.778-13.777zM138.278 339.735l21.987 21.987-38.374 16.387 16.387-38.374z"/></symbol><symbol viewBox="0 0 478.856 478.856" id="main-adv9" xmlns="http://www.w3.org/2000/svg"><path d="M406.872 160.017H6.856A6.848 6.848 0 000 166.857v192.016a6.848 6.848 0 006.84 6.856h272.016a6.857 6.857 0 000-13.712H13.712V173.729H400v17.144a6.848 6.848 0 006.84 6.856h.016a6.848 6.848 0 006.856-6.84v-24.016a6.849 6.849 0 00-6.84-6.856zm-46.512-31.832l-320-72a6.885 6.885 0 00-5.176.896 6.897 6.897 0 00-3.024 4.304l-16 72a6.86 6.86 0 0013.392 2.976l14.504-65.288 313.296 70.488a6.857 6.857 0 003.008-13.376zm-38.856-39.672l-192-80a6.88 6.88 0 00-8.8 3.272l-16 32a6.88 6.88 0 1012.304 6.143v.016l13.128-26.272L316.208 101.2a6.874 6.874 0 005.296-12.687z"/><path d="M326.352 192.017h-63.496a6.857 6.857 0 000 13.712h63.496a6.857 6.857 0 000-13.712zm-127.496.456c-38.881 0-70.4 31.519-70.4 70.4.04 38.864 31.536 70.36 70.4 70.4 38.881 0 70.4-31.519 70.4-70.4s-31.519-70.4-70.4-70.4zm0 128c-31.812 0-57.6-25.788-57.6-57.6.035-31.797 25.803-57.565 57.6-57.6 31.812 0 57.6 25.788 57.6 57.6s-25.788 57.6-57.6 57.6zm192-105.6c-42.4 0-88 10.016-88 32v192c0 21.984 45.6 32 88 32s88-10.016 88-32v-192c0-21.984-45.6-32-88-32zm72 223.88c-1.208 4.44-25.2 16.12-72 16.12s-70.792-11.68-72-16v-12.576c17.024 8.576 45.144 12.576 72 12.576s54.984-4.04 72-12.584v12.464zm0-32c-1.208 4.44-25.2 16.12-72 16.12s-70.792-11.68-72-16v-12.576c17.024 8.576 45.144 12.576 72 12.576s54.984-4.04 72-12.584v12.464zm0-32c-1.208 4.44-25.2 16.12-72 16.12s-70.792-11.68-72-16v-12.576c17.024 8.576 45.144 12.576 72 12.576s54.984-4.04 72-12.584v12.464zm0-32c-1.208 4.44-25.2 16.12-72 16.12s-70.792-11.68-72-16v-12.576c17.024 8.576 45.144 12.576 72 12.576s54.984-4.04 72-12.584v12.464zm0-32c-1.208 4.44-25.2 16.12-72 16.12s-70.792-11.68-72-16v-12.576c17.024 8.536 45.144 12.576 72 12.576s54.984-4.04 72-12.584v12.464zm0-32c-1.208 4.44-25.2 16.12-72 16.12s-70.792-11.68-72-16v-12.576c17.024 8.536 45.144 12.576 72 12.576s54.984-4.04 72-12.584v12.464zm-72-15.88c-46.728 0-70.712-11.648-72-15.856v-.048c1.288-4.456 25.272-16.096 72-16.096 46.4 0 70.4 11.472 72 16-1.6 4.528-25.6 16-72 16z"/><path d="M134.856 320.009H74.384l-28.672-31.36v-52l31.664-30.92h57.48a6.857 6.857 0 000-13.712H74.592a6.863 6.863 0 00-4.8 1.944l-35.736 34.856a8.594 8.594 0 00-2.064 5.6v56.896a6.86 6.86 0 001.792 4.624l32.504 35.552a6.855 6.855 0 005.064 2.232h63.504a6.857 6.857 0 000-13.712zm68-65.136h-8c-2.488 0-4-1.392-4-2 0-.608 1.512-2 4-2h20a8 8 0 000-16h-8a8 8 0 00-16 0v.36a18.624 18.624 0 00-16 17.6c.573 10.489 9.507 18.548 20 18.04h8c2.488 0 4 1.392 4 2 0 .608-1.512 2-4 2h-20a8 8 0 000 16h8a8 8 0 0016 0v-.36a18.624 18.624 0 0016-17.6c-.573-10.489-9.507-18.548-20-18.04z"/></symbol><symbol viewBox="0 0 512 512" id="process1" xmlns="http://www.w3.org/2000/svg"><g data-name="Out line"><path d="M480 176V80a8 8 0 00-8-8h-32a8 8 0 00-8 8v96h-8v-72a8 8 0 00-8-8h-32a8 8 0 00-8 8v72h-8v-48a8 8 0 00-8-8h-32a8 8 0 00-8 8v48h-16v16h192v-16zm-32-88h16v88h-16zm-56 24h16v64h-16zm-56 24h16v40h-16zm96 216H80V216H64v176a24.027 24.027 0 0024 24h136v24a8.01 8.01 0 01-8 8 24 24 0 000 48h80a24 24 0 000-48 8.01 8.01 0 01-8-8v-24h136a24.027 24.027 0 0024-24V208h-16zM296 464a8 8 0 010 16h-80a8 8 0 010-16 24.027 24.027 0 0024-24v-24h32v24a24.027 24.027 0 0024 24zm128-64H88a8.01 8.01 0 01-8-8v-24h352v24a8.01 8.01 0 01-8 8zM168 144h136v16H168z"/><circle cx="256" cy="384" r="8"/><path d="M144 336v-16h8a8 8 0 008-8v-48a8 8 0 00-8-8h-8v-16h-16v16h-8a8 8 0 00-8 8v48a8 8 0 008 8h8v16zm-16-64h16v32h-16zm96 16v-16h8a8 8 0 008-8v-48a8 8 0 00-8-8h-8v-16h-16v16h-8a8 8 0 00-8 8v48a8 8 0 008 8h8v16zm-16-64h16v32h-16zm80 0v16h-8a8 8 0 00-8 8v48a8 8 0 008 8h8v16h16v-16h8a8 8 0 008-8v-48a8 8 0 00-8-8h-8v-16zm16 64h-16v-32h16zm64-88v16h-8a8 8 0 00-8 8v48a8 8 0 008 8h8v16h16v-16h8a8 8 0 008-8v-48a8 8 0 00-8-8h-8v-16zm16 64h-16v-32h16zM160 128a71.825 71.825 0 00-9.65-36.015 8.002 8.002 0 00-10.92-2.914L96 114.145V64a8 8 0 00-8-8 72 72 0 1072 72zm-19.988-20.79A56.026 56.026 0 0196 183.42v-50.8zM80 72.57V120H32.574A56.128 56.128 0 0180 72.57zM32.58 136H80v47.42A56.114 56.114 0 0132.58 136z"/><path d="M108 94.928a8 8 0 008 0l55.43-32a8 8 0 004-6.928v-.01a7.999 7.999 0 00-1.075-4.006A72.253 72.253 0 00112 16a8 8 0 00-8 8v64a7.999 7.999 0 004 6.928zm12-62.349a56.303 56.303 0 0136 20.782l-36 20.784z"/></g></symbol><symbol viewBox="0 0 512 512" id="process2" xmlns="http://www.w3.org/2000/svg"><g data-name="Out line"><circle cx="240" cy="232" r="8"/><circle cx="272" cy="232" r="8"/><path d="M478.814 298.486a32.099 32.099 0 00-25.31-1.093l-10.614 3.98a23.983 23.983 0 00-46.123-12.97l-4.177 12.528-14.703 29.407-16.224 9.735-3.326-4.989a103.605 103.605 0 00-71.467-45.041 8.04 8.04 0 01-6.87-7.92v-.58A48.244 48.244 0 00301.248 256H304a23.998 23.998 0 008-46.624V192a24.043 24.043 0 00-16.745-22.879A32.055 32.055 0 00264 144h-11.156a31.937 31.937 0 00-26.625 14.249l-1.203 1.805a5.083 5.083 0 01-7.28 1.247A21.085 21.085 0 00184 178.169v10.518a35.057 35.057 0 009.565 24.153A23.99 23.99 0 00208 256h2.752A48.244 48.244 0 00232 281.542v.581a8.04 8.04 0 01-6.869 7.92 103.605 103.605 0 00-71.468 45.041l-3.326 4.989-16.223-9.735-14.704-29.407-4.177-12.53a23.983 23.983 0 00-46.123 12.972l-10.613-3.98A32.38 32.38 0 0016.41 317.47a8 8 0 004.34 9.84l70.643 31.397 4.552 4.553-6.193 7.742a8 8 0 002.131 11.858l80 48a8.001 8.001 0 009.773-1.203L192 419.314V448h16v-64h-16v12.686l-17.24 17.24-66.795-40.076 21.914-27.393 34.005 20.403 8.232-13.72-8.044-4.827 2.903-4.354a87.598 87.598 0 0146.593-34.934l11.277 22.553a8 8 0 0011.593 3.078l.012-.008 3.363 10.09-7.732 54.13a8 8 0 002.262 6.79l16 16a8 8 0 0011.314 0l16-16a8 8 0 002.262-6.79l-7.732-54.13 3.363-10.09.013.008a8 8 0 0011.592-3.078l11.277-22.553a87.6 87.6 0 0146.593 34.934l2.903 4.354-8.044 4.827 8.232 13.72 34.005-20.403 21.914 27.393-66.795 40.077L320 396.686V384h-16v64h16v-28.686l10.343 10.343a8.001 8.001 0 009.773 1.203l80-48a8 8 0 002.131-11.858l-6.193-7.742 4.552-4.553 70.643-31.396a8 8 0 004.34-9.841 32.106 32.106 0 00-16.775-18.984zm-377.157 47.857a7.99 7.99 0 00-2.408-1.654l-63.885-28.393a16.435 16.435 0 0117.514-3.923l40.313 15.117 5.618-14.98-11.515-4.318-2.566-10.267a7.988 7.988 0 0115.327-4.464l4.356 13.068a7.983 7.983 0 00.434 1.05l13.71 27.42-12.552 15.69zM256 300.687l-9.723-9.724a23.813 23.813 0 001.147-3.745 47.389 47.389 0 0017.152 0 23.813 23.813 0 001.147 3.745zM304 240v-16a8 8 0 010 16zm-104-61.831a5.084 5.084 0 018.135-4.067 21.084 21.084 0 0030.194-5.172l1.202-1.805A15.97 15.97 0 01252.844 160H264a16.018 16.018 0 0116 16 8 8 0 008 8 8.01 8.01 0 018 8v16a16.018 16.018 0 01-16-16 8 8 0 00-16 0 16.018 16.018 0 01-16 16h-28.687A19.314 19.314 0 01200 188.687zM200 232a8.01 8.01 0 018-8v16a8.01 8.01 0 01-8-8zm24-8h24a31.935 31.935 0 0024-10.855 32.045 32.045 0 0016 9.832V240a32 32 0 01-64 0zm5.664 81.44a23.736 23.736 0 006.059-2.403l7.72 7.72-8.34 5.56zM256 404.687l-7.515-7.515L254.938 352h2.124l6.453 45.172zM258.234 336h-4.468l-3.517-10.551 5.751-3.834 5.751 3.834zm18.663-19.684l-8.34-5.56 7.72-7.72a23.74 23.74 0 006.059 2.404zm135.854 28.373a7.99 7.99 0 00-2.408 1.654l-4.346 4.346L393.445 335l13.71-27.42a7.983 7.983 0 00.434-1.05l4.356-13.067a7.988 7.988 0 0115.328 4.463l-2.567 10.267-11.515 4.318 5.618 14.98 40.313-15.117a16.435 16.435 0 0117.514 3.923z"/><path d="M488 240v-80a8 8 0 00-8-8h-24a8 8 0 00-8 8v80h-8v-56a8 8 0 00-8-8h-24a8 8 0 00-8 8v56h-8v-32a8 8 0 00-8-8h-24a8 8 0 00-8 8v32h-8v16h152v-16zm-24-72h8v72h-8zm-48 24h8v48h-8zm-48 24h8v24h-8zM88 256a80.019 80.019 0 0069.272-120.04 8.004 8.004 0 00-11.295-2.673L96 162.144V104a8 8 0 00-8-8 80 80 0 000 160zm-63.482-72H80v55.482A64.106 64.106 0 0124.518 184zm122.484-32.83A64.018 64.018 0 0196 239.483v-58.864zM80 112.498V168H24.513A64.127 64.127 0 0180 112.497z"/><path d="M108 142.929a8 8 0 008-.001l62.35-36a7.999 7.999 0 004-6.928v-.03a8.003 8.003 0 00-1.078-4.012A80.326 80.326 0 00112 56a8 8 0 00-8 8v72a8.001 8.001 0 004 6.929zm12-70.422a64.377 64.377 0 0142.989 24.815L120 122.144z"/></g></symbol><symbol viewBox="0 0 512 512" id="process3" xmlns="http://www.w3.org/2000/svg"><g data-name="Out line"><path d="M298.37 125.61a23.943 23.943 0 00.58 21.9 56.18 56.18 0 00-25.35 18.85l12.8 9.61A40.177 40.177 0 01318.38 160h67.24a40.17 40.17 0 0136.15 22.88l28.18 59.48A313.128 313.128 0 01470.1 298l15.49-4a329.594 329.594 0 00-21.18-58.49l-28.18-59.48a56.195 56.195 0 00-31.18-28.52 23.943 23.943 0 00.58-21.9A40.061 40.061 0 00432 88V64a24.032 24.032 0 00-24-24h-24a24.032 24.032 0 00-24 24 15.974 15.974 0 01-8 13.84V64a24.032 24.032 0 00-24-24h-32a24.032 24.032 0 00-24 24v24a40.061 40.061 0 0026.37 37.61zM384 144h-64a8 8 0 010-16h64a8 8 0 010 16zm-56-88a8.01 8.01 0 018 8v16a16.021 16.021 0 01-16-16 23.597 23.597 0 00-1.38-8zm-40 8a8 8 0 0116 0 32.036 32.036 0 0032 32h8a32.036 32.036 0 0032-32 8.01 8.01 0 018-8h24a8.01 8.01 0 018 8v24a24.032 24.032 0 01-24 24h-4.25A47.752 47.752 0 00400 80v-8h-16v8a32.036 32.036 0 01-32 32h-40a24.032 24.032 0 01-24-24z"/><path d="M384 216v-4a28.035 28.035 0 00-24-27.71V168h-16v16.29a27.998 27.998 0 004 55.71h8a12 12 0 010 24h-8a12.01 12.01 0 01-12-12v-4h-16v4a28.035 28.035 0 0024 27.71V296h16v-16.29a27.998 27.998 0 00-4-55.71h-8a12 12 0 010-24h8a12.01 12.01 0 0112 12v4zm104 96H280a7.998 7.998 0 00-8 8v144a7.998 7.998 0 008 8h208a7.998 7.998 0 008-8V320a7.998 7.998 0 00-8-8zm-120 96h-64a8 8 0 000 16h64v8h-64a8 8 0 000 16h64v8h-80v-56h80zm0-72h-64a8 8 0 000 16h64v8h-64a8 8 0 000 16h64v8h-80v-56h80zm40 120h-24v-8h8a8 8 0 000-16h-8v-8h8a8 8 0 000-16h-8v-8h24zm0-72h-24v-8h8a8 8 0 000-16h-8v-8h8a8 8 0 000-16h-8v-8h24zm32 72h-16v-56h16zm0-72h-16v-56h16zm40 72h-24v-8h8a8 8 0 000-16h-8v-8h8a8 8 0 000-16h-8v-8h24zm0-72h-24v-8h8a8 8 0 000-16h-8v-8h8a8 8 0 000-16h-8v-8h24zm-224.033 72A15.965 15.965 0 01240 440v-8a24 24 0 00-24-24H40a24 24 0 00-24 24v8a32 32 0 0032 32h207.712a8.192 8.192 0 008.262-7.35 8.001 8.001 0 00-8.007-8.65zM48 456a16 16 0 01-16-16v-8a8 8 0 018-8h176a8 8 0 018 8v8a31.804 31.804 0 004.295 16zm40-256h176a8 8 0 018 8v88h16v-88a24 24 0 00-24-24H88a24 24 0 00-24 24v184h16V208a8 8 0 018-8z"/><path d="M96 216h32v16H96zm48 0h16v16h-16zm-16 48h32v16h-32zm48 0h80v16h-80zm-80 32h32v16H96zm48 0h64v16h-64zm80 0h32v16h-32zM96 328h64v16H96zm80 0h80v16h-80zm-80 32h48v16H96zm144-152a24 24 0 1024 24 24.027 24.027 0 00-24-24zm0 32a8 8 0 118-8 8.01 8.01 0 01-8 8z"/></g></symbol><symbol viewBox="0 0 512 512" id="side1" xmlns="http://www.w3.org/2000/svg"><path d="M437.333 0H74.667C33.493 0 0 33.493 0 74.667v256c0 41.173 33.493 74.667 74.667 74.667h251.584l103.531 103.552a10.748 10.748 0 007.552 3.115c1.365 0 2.752-.277 4.075-.811a10.667 10.667 0 006.592-9.856v-96.747c36.139-5.205 64-36.373 64-73.92v-256C512 33.493 478.507 0 437.333 0zm53.334 330.667c0 29.419-23.936 53.333-53.333 53.333-5.888 0-10.667 4.779-10.667 10.667v80.917l-88.448-88.469a10.744 10.744 0 00-7.552-3.115h-256c-29.397 0-53.333-23.915-53.333-53.333v-256c0-29.419 23.936-53.333 53.333-53.333h362.667c29.397 0 53.333 23.915 53.333 53.333v256z"/></symbol><symbol viewBox="0 0 512 512" id="side2" xmlns="http://www.w3.org/2000/svg"><path d="M437.333 128H330.667c-5.888 0-10.667-4.8-10.667-10.667V10.667C320 4.779 315.221 0 309.333 0H96C78.357 0 64 14.357 64 32v448c0 17.643 14.357 32 32 32h320c17.643 0 32-14.357 32-32V138.667c0-5.888-4.779-10.667-10.667-10.667zm-10.666 352c0 5.867-4.779 10.667-10.667 10.667H96c-5.888 0-10.667-4.8-10.667-10.667V32c0-5.867 4.779-10.667 10.667-10.667h202.667v96c0 17.643 14.357 32 32 32h96V480z"/><path d="M444.864 131.136l-128-128c-4.16-4.16-10.923-4.16-15.083 0s-4.16 10.923 0 15.083l128 128a10.716 10.716 0 007.552 3.115c2.731 0 5.461-1.045 7.531-3.115 4.16-4.16 4.16-10.923 0-15.083zM352 192H160c-5.888 0-10.667 4.779-10.667 10.667s4.779 10.667 10.667 10.667h192c5.888 0 10.667-4.779 10.667-10.667S357.888 192 352 192zm0 85.333H160c-5.888 0-10.667 4.779-10.667 10.667s4.779 10.667 10.667 10.667h192c5.888 0 10.667-4.779 10.667-10.667s-4.779-10.667-10.667-10.667zm0 85.334H160c-5.888 0-10.667 4.779-10.667 10.667s4.779 10.667 10.667 10.667h192c5.888 0 10.667-4.779 10.667-10.667 0-5.889-4.779-10.667-10.667-10.667z"/></symbol><symbol viewBox="0 0 512 512" id="side3" xmlns="http://www.w3.org/2000/svg"><path d="M480 85.333H32c-17.643 0-32 14.357-32 32v277.333c0 17.643 14.357 32 32 32h448c17.643 0 32-14.357 32-32V117.333c0-17.642-14.357-32-32-32zm10.667 309.334c0 5.888-4.779 10.667-10.667 10.667H32c-5.888 0-10.667-4.779-10.667-10.667V117.333c0-5.888 4.779-10.667 10.667-10.667h448c5.888 0 10.667 4.779 10.667 10.667v277.334z"/><path d="M504.597 96.917c-3.456-4.779-10.155-5.845-14.891-2.389l-214.89 155.349c-11.264 8.171-26.389 8.192-37.675-.021L22.336 94.528c-4.779-3.456-11.456-2.389-14.891 2.389-3.435 4.779-2.368 11.456 2.389 14.912l214.784 155.307c9.387 6.827 20.373 10.24 31.381 10.24 10.987 0 21.973-3.413 31.339-10.24l214.869-155.328c4.758-3.435 5.846-10.112 2.39-14.891z"/><path d="M236.096 249.728c-3.477-4.757-10.112-5.845-14.912-2.368L10.133 400.555c-4.757 3.477-5.824 10.133-2.368 14.912 2.091 2.88 5.333 4.395 8.64 4.395 2.155 0 4.352-.661 6.272-2.027L233.728 264.64c4.757-3.477 5.824-10.133 2.368-14.912zm265.771 150.827L290.837 247.36c-4.821-3.477-11.456-2.411-14.912 2.368-3.456 4.779-2.389 11.435 2.368 14.912l211.029 153.195a10.61 10.61 0 006.251 2.027c3.307 0 6.571-1.515 8.661-4.395 3.457-4.779 2.39-11.435-2.367-14.912z"/></symbol><symbol viewBox="0 0 490.667 490.667" id="side4" xmlns="http://www.w3.org/2000/svg"><path d="M488.683 214.617c-1.6-12.437-8.64-23.275-19.307-29.696-10.496-6.315-23.125-7.509-34.837-3.115-9.28 3.456-19.712-1.323-23.936-10.752a178.279 178.279 0 00-18.219-31.701c-6.165-8.597-5.013-19.84 2.645-26.155 9.493-7.808 14.784-19.328 14.571-31.637-.256-12.459-6.123-23.979-16.149-31.573a245.185 245.185 0 00-52.885-30.549c-11.627-4.885-24.597-4.245-35.541 1.792-10.752 5.931-18.069 16.277-20.096 28.373-1.643 9.856-10.837 16.363-21.44 15.36-11.904-1.259-24.341-1.259-36.309 0-10.645.981-19.776-5.504-21.419-15.36-2.005-12.117-9.344-22.464-20.096-28.373-10.944-6.016-23.915-6.677-35.541-1.792a245.178 245.178 0 00-52.885 30.549C87.212 57.583 81.346 69.081 81.09 81.561c-.235 12.309 5.077 23.829 14.592 31.68 7.659 6.293 8.789 17.536 2.624 26.112a179.137 179.137 0 00-18.219 31.68c-4.267 9.472-14.805 14.208-24.171 10.688-11.477-4.309-24.107-3.157-34.624 3.179-10.667 6.443-17.707 17.259-19.307 29.675A238.253 238.253 0 000 245.337c0 10.283.661 20.629 1.984 30.72 1.6 12.437 8.64 23.275 19.307 29.696 10.496 6.336 23.147 7.531 34.837 3.115 9.301-3.477 19.733 1.323 23.936 10.752a178.279 178.279 0 0018.219 31.701c6.165 8.597 5.013 19.84-2.645 26.155-9.493 7.808-14.784 19.328-14.571 31.637.256 12.459 6.123 23.979 16.149 31.573a245.185 245.185 0 0052.885 30.549c5.163 2.155 10.581 3.243 15.979 3.243a40.265 40.265 0 0019.563-5.056c10.752-5.931 18.069-16.277 20.096-28.373 1.643-9.856 10.795-16.448 21.44-15.36 11.904 1.259 24.341 1.259 36.309 0 10.581-1.109 19.776 5.504 21.419 15.36 2.005 12.117 9.344 22.464 20.096 28.373 10.944 6.016 23.915 6.677 35.541 1.792a245.178 245.178 0 0052.885-30.549c10.027-7.595 15.893-19.093 16.149-31.573.213-12.309-5.099-23.829-14.592-31.659-7.659-6.293-8.789-17.536-2.624-26.112a179.137 179.137 0 0018.219-31.68c4.245-9.451 14.656-14.251 23.957-10.773l3.733-9.984-3.52 10.069c11.52 4.352 24.107 3.179 34.624-3.179 10.667-6.443 17.707-17.259 19.307-29.675a238.435 238.435 0 001.984-30.763 237.295 237.295 0 00-1.983-30.719zm-21.142 58.752c-.747 5.931-4.117 11.072-9.173 14.123-4.864 2.944-10.731 3.477-16.213 1.451l-.192-.064c-19.584-7.317-41.984 2.347-50.859 22.059a158.148 158.148 0 01-16.064 27.947c-12.779 17.835-10.027 41.493 6.443 55.061 4.416 3.627 6.869 9.003 6.763 14.72-.128 5.931-2.901 11.413-7.68 15.019-14.912 11.285-31.125 20.672-48.299 27.883-5.547 2.325-11.755 2.048-16.96-.832-5.077-2.795-8.384-7.488-9.344-13.205-3.52-21.12-22.613-35.243-44.693-33.045a155.813 155.813 0 01-31.851 0c-22.08-2.432-41.195 11.883-44.715 33.045-.939 5.717-4.267 10.411-9.344 13.205-5.205 2.901-11.413 3.179-16.96.832-17.173-7.211-33.408-16.597-48.299-27.883-4.757-3.605-7.552-9.088-7.68-14.997-.107-5.717 2.368-11.093 6.784-14.741 16.469-13.568 19.221-37.227 6.421-55.061a158.95 158.95 0 01-16.085-27.968c-6.805-15.211-21.696-24.448-37.269-24.448-4.629 0-9.301.811-13.845 2.496-5.355 2.027-11.221 1.472-16.107-1.472-5.077-3.051-8.427-8.192-9.173-14.144-1.216-9.216-1.813-18.645-1.813-28.011 0-9.365.597-18.795 1.813-28.053.747-5.931 4.117-11.072 9.173-14.123 4.843-2.923 10.709-3.499 16.341-1.387 19.712 7.36 42.048-2.304 50.901-22.037a158.148 158.148 0 0116.064-27.947c12.8-17.835 10.048-41.515-6.443-55.061-4.416-3.627-6.869-9.003-6.763-14.72.128-5.931 2.923-11.392 7.68-15.019 14.891-11.285 31.125-20.672 48.299-27.883 5.547-2.347 11.755-2.069 16.96.811 5.077 2.795 8.384 7.488 9.344 13.205 3.541 21.141 22.741 35.371 44.693 33.088a155.813 155.813 0 0131.851 0c22.059 2.261 41.195-11.904 44.715-33.045.939-5.717 4.267-10.411 9.344-13.205 5.205-2.901 11.413-3.179 16.96-.832 17.173 7.211 33.408 16.597 48.299 27.883 4.757 3.605 7.552 9.088 7.68 14.997.107 5.717-2.368 11.093-6.784 14.741-16.469 13.568-19.221 37.227-6.421 55.061a158.95 158.95 0 0116.085 27.968c8.832 19.733 31.168 29.355 51.115 21.931 5.333-2.048 11.221-1.472 16.107 1.472 5.077 3.051 8.427 8.192 9.173 14.144 1.216 9.216 1.813 18.645 1.813 28.011 0 9.364-.597 18.793-1.792 28.03z"/><path d="M245.333 149.337c-52.928 0-96 43.072-96 96s43.072 96 96 96 96-43.072 96-96-43.072-96-96-96zm0 170.667c-41.173 0-74.667-33.493-74.667-74.667s33.493-74.667 74.667-74.667S320 204.164 320 245.337s-33.493 74.667-74.667 74.667z"/></symbol><symbol viewBox="0 0 513.323 513.323" id="user" xmlns="http://www.w3.org/2000/svg"><path d="M256.661 257.323c-135.275 0-245.333 110.059-245.333 245.333 0 5.888 4.779 10.667 10.667 10.667s10.667-4.779 10.667-10.667c0-123.52 100.48-224 224-224s224 100.48 224 224c0 5.888 4.779 10.667 10.667 10.667s10.667-4.779 10.667-10.667c-.001-135.296-110.06-245.333-245.335-245.333zm0-257.323c-64.683 0-117.333 52.629-117.333 117.333s52.651 117.333 117.333 117.333 117.333-52.629 117.333-117.333S321.344 0 256.661 0zm0 213.333c-52.928 0-96-43.072-96-96s43.072-96 96-96 96 43.072 96 96-43.072 96-96 96z"/></symbol></svg>