<svg width="3813" height="1090" viewBox="0 0 3813 1090" fill="none" xmlns="http://www.w3.org/2000/svg">
<path d="M1361.38 485.935H1303.23V301.95H1245.81V274.997H1418.8V301.95H1361.38V485.935Z" fill="#111111"/>
<path d="M1565.37 331.687L1537.54 377.829C1536.37 373.923 1534.85 369.528 1533 364.646C1531.14 359.763 1528.85 355.222 1526.11 351.022C1523.38 346.726 1520.11 343.161 1516.3 340.329C1512.49 337.399 1508.1 335.935 1503.12 335.935C1498.53 335.935 1494.52 337.106 1491.1 339.45C1487.78 341.794 1484.95 344.87 1482.61 348.679C1480.26 352.39 1478.31 356.638 1476.75 361.423C1475.28 366.11 1474.11 370.896 1473.23 375.778C1472.45 380.563 1471.91 385.202 1471.62 389.694C1471.33 394.089 1471.18 397.897 1471.18 401.12V485.935H1421.52V316.745H1440.57L1460.63 356.149C1463.37 349.802 1466.49 343.991 1470.01 338.718C1473.53 333.347 1477.58 328.757 1482.17 324.948C1486.76 321.042 1491.93 318.015 1497.7 315.866C1503.55 313.718 1510.15 312.644 1517.47 312.644C1521.28 312.644 1525.53 312.985 1530.21 313.669C1534.9 314.255 1539.49 315.329 1543.98 316.892C1548.48 318.356 1552.63 320.31 1556.44 322.751C1560.24 325.192 1563.22 328.171 1565.37 331.687Z" fill="#111111"/>
<path d="M1565.31 413.571C1565.31 405.856 1565.94 397.849 1567.21 389.548C1568.58 381.247 1570.48 372.946 1572.92 364.646C1575.46 356.345 1578.49 348.142 1582.01 340.036C1585.52 331.931 1589.48 324.167 1593.87 316.745H1630.05C1627.61 324.069 1625.41 331.735 1623.46 339.743C1621.61 347.653 1619.99 355.612 1618.63 363.62C1617.36 371.53 1616.33 379.294 1615.55 386.911C1614.87 394.528 1614.53 401.608 1614.53 408.151C1614.53 411.96 1614.67 416.062 1614.96 420.456C1615.36 424.753 1615.99 429.099 1616.87 433.493C1617.75 437.79 1618.97 441.94 1620.53 445.944C1622.19 449.948 1624.29 453.513 1626.83 456.638C1629.37 459.665 1632.45 462.106 1636.06 463.962C1639.77 465.72 1644.12 466.599 1649.1 466.599C1653.98 466.599 1658.32 465.524 1662.13 463.376C1666.04 461.13 1669.46 458.249 1672.39 454.733C1675.32 451.12 1677.81 447.019 1679.86 442.429C1681.91 437.839 1683.57 433.151 1684.84 428.366C1686.21 423.483 1687.18 418.747 1687.77 414.157C1688.45 409.47 1688.79 405.271 1688.79 401.56V316.745H1738.3V485.935H1719.26L1696.56 446.53C1693.72 453.073 1690.26 459.03 1686.16 464.401C1682.15 469.675 1677.56 474.216 1672.39 478.024C1667.21 481.833 1661.45 484.763 1655.1 486.813C1648.85 488.864 1642.06 489.89 1634.74 489.89C1623.02 489.89 1612.82 487.985 1604.12 484.177C1595.43 480.368 1588.21 475.095 1582.45 468.356C1576.68 461.618 1572.39 453.61 1569.55 444.333C1566.72 434.958 1565.31 424.704 1565.31 413.571Z" fill="#111111"/>
<path d="M1916.22 431.882C1916.22 439.304 1915.14 445.896 1913 451.657C1910.85 457.419 1907.92 462.448 1904.21 466.745C1900.5 470.944 1896.1 474.509 1891.02 477.438C1885.95 480.271 1880.48 482.565 1874.62 484.323C1868.86 486.081 1862.8 487.351 1856.45 488.132C1850.11 488.913 1843.81 489.304 1837.56 489.304C1829.16 489.304 1821.74 488.767 1815.29 487.692C1808.85 486.618 1802.69 484.909 1796.83 482.565C1790.97 480.124 1785.12 476.999 1779.26 473.19C1773.49 469.382 1767.05 464.743 1759.92 459.274L1788.78 435.69C1791.41 440.671 1794.88 445.212 1799.18 449.313C1803.57 453.317 1808.11 456.784 1812.8 459.714C1817.49 462.644 1822.03 464.89 1826.42 466.452C1830.82 468.015 1834.38 468.796 1837.12 468.796C1839.36 468.796 1841.9 468.747 1844.73 468.649C1847.57 468.454 1850.45 468.161 1853.38 467.771C1856.31 467.282 1859.19 466.599 1862.02 465.72C1864.85 464.841 1867.34 463.669 1869.49 462.204C1871.74 460.642 1873.49 458.737 1874.76 456.491C1876.13 454.147 1876.81 451.364 1876.81 448.142C1876.81 444.821 1875.94 441.94 1874.18 439.499C1872.52 436.96 1870.32 434.763 1867.59 432.907C1864.85 431.052 1861.73 429.489 1858.21 428.22C1854.7 426.95 1851.13 425.827 1847.52 424.851C1844 423.874 1840.58 423.044 1837.26 422.36C1833.94 421.579 1831.06 420.847 1828.62 420.163C1824.13 418.894 1819.39 417.624 1814.41 416.354C1809.43 414.987 1804.5 413.474 1799.62 411.813C1794.73 410.056 1790.05 408.005 1785.55 405.661C1781.16 403.317 1777.25 400.534 1773.84 397.312C1770.52 393.991 1767.83 390.134 1765.78 385.739C1763.83 381.247 1762.85 376.022 1762.85 370.065C1762.85 359.128 1765 349.997 1769.29 342.673C1773.69 335.251 1779.45 329.343 1786.58 324.948C1793.71 320.456 1801.81 317.282 1810.9 315.427C1819.98 313.571 1829.21 312.644 1838.58 312.644C1845.03 312.644 1851.81 313.327 1858.94 314.694C1866.07 315.964 1873.01 317.917 1879.74 320.554C1886.48 323.093 1892.78 326.218 1898.64 329.929C1904.5 333.64 1909.38 337.888 1913.29 342.673L1884.43 366.403C1882.28 360.544 1879.45 355.515 1875.94 351.315C1872.52 347.116 1868.76 343.698 1864.66 341.062C1860.65 338.327 1856.5 336.325 1852.21 335.056C1848.01 333.786 1844.1 333.151 1840.49 333.151C1836.97 333.151 1833.02 333.298 1828.62 333.591C1824.23 333.884 1820.08 334.714 1816.17 336.081C1812.36 337.448 1809.09 339.548 1806.36 342.38C1803.72 345.114 1802.4 348.923 1802.4 353.806C1802.4 357.321 1803.18 360.349 1804.74 362.888C1806.4 365.329 1808.55 367.478 1811.19 369.333C1813.83 371.091 1816.8 372.604 1820.12 373.874C1823.54 375.046 1827.01 376.12 1830.53 377.097C1834.04 377.976 1837.46 378.757 1840.78 379.44C1844.1 380.124 1847.08 380.856 1849.71 381.638C1854.21 382.907 1858.94 384.226 1863.92 385.593C1869 386.862 1873.98 388.376 1878.87 390.134C1883.75 391.794 1888.44 393.796 1892.93 396.14C1897.52 398.386 1901.52 401.169 1904.94 404.489C1908.36 407.81 1911.09 411.716 1913.14 416.208C1915.19 420.603 1916.22 425.827 1916.22 431.882Z" fill="#111111"/>
<path d="M2002.29 485.935H1952.63V336.374H1921.87V316.745H1952.63V254.489H2002.29V316.745H2053.56V336.374H2002.29V485.935Z" fill="#111111"/>
<path d="M2188.78 328.61L2172.37 485.935H2136.48L2172.37 274.997H2225.55L2274.91 435.983L2324.86 274.997H2378.04L2407.92 485.935H2348.74L2331.31 332.712L2290.15 485.935H2236.97L2188.78 328.61Z" fill="#111111"/>
<path d="M2600.78 485.935H2551.26V465.72C2545.4 473.728 2538.32 479.685 2530.02 483.591C2521.82 487.399 2512.79 489.304 2502.92 489.304C2490.03 489.304 2478.51 487.009 2468.35 482.419C2458.2 477.829 2449.6 471.579 2442.57 463.669C2435.54 455.661 2430.17 446.286 2426.46 435.544C2422.75 424.802 2420.89 413.278 2420.89 400.974C2420.89 388.669 2422.75 377.146 2426.46 366.403C2430.17 355.661 2435.54 346.335 2442.57 338.425C2449.6 330.417 2458.2 324.118 2468.35 319.528C2478.51 314.938 2490.03 312.644 2502.92 312.644C2509.47 312.644 2515.67 313.62 2521.53 315.573C2527.48 317.526 2532.9 320.31 2537.79 323.923C2542.77 327.438 2547.11 331.735 2550.82 336.813C2554.63 341.794 2557.61 347.36 2559.76 353.513L2581.73 316.745H2600.78V485.935ZM2550.97 400.974C2550.97 396.579 2550.73 391.94 2550.24 387.058C2549.85 382.175 2549.12 377.341 2548.04 372.556C2546.97 367.771 2545.45 363.229 2543.5 358.933C2541.64 354.538 2539.2 350.681 2536.18 347.36C2533.25 343.942 2529.68 341.257 2525.48 339.304C2521.28 337.351 2516.4 336.374 2510.83 336.374C2505.27 336.374 2500.43 337.399 2496.33 339.45C2492.23 341.403 2488.71 344.089 2485.79 347.507C2482.86 350.827 2480.41 354.685 2478.46 359.079C2476.61 363.474 2475.14 368.063 2474.07 372.849C2472.99 377.634 2472.21 382.468 2471.72 387.351C2471.33 392.136 2471.14 396.677 2471.14 400.974C2471.14 405.271 2471.33 409.86 2471.72 414.743C2472.21 419.626 2472.99 424.46 2474.07 429.245C2475.14 434.03 2476.61 438.62 2478.46 443.015C2480.41 447.409 2482.86 451.315 2485.79 454.733C2488.71 458.054 2492.23 460.739 2496.33 462.79C2500.43 464.743 2505.27 465.72 2510.83 465.72C2515.91 465.72 2520.4 464.694 2524.31 462.644C2528.31 460.495 2531.78 457.663 2534.71 454.147C2537.74 450.632 2540.28 446.628 2542.33 442.136C2544.38 437.644 2546.04 433.005 2547.31 428.22C2548.58 423.435 2549.51 418.698 2550.09 414.011C2550.68 409.226 2550.97 404.88 2550.97 400.974Z" fill="#111111"/>
<path d="M2789.38 358.64L2768 367.136C2764.58 356.394 2758.87 348.142 2750.86 342.38C2742.85 336.618 2733.23 333.737 2722 333.737C2715.95 333.737 2710.53 334.714 2705.74 336.667C2701.05 338.522 2696.9 341.11 2693.29 344.431C2689.77 347.751 2686.75 351.608 2684.21 356.003C2681.77 360.397 2679.76 365.085 2678.2 370.065C2676.64 375.046 2675.52 380.222 2674.83 385.593C2674.15 390.866 2673.81 395.993 2673.81 400.974C2673.81 406.345 2674.1 411.765 2674.69 417.233C2675.27 422.702 2676.25 427.976 2677.62 433.054C2679.08 438.034 2680.98 442.722 2683.33 447.116C2685.67 451.413 2688.6 455.173 2692.12 458.396C2695.73 461.618 2699.98 464.157 2704.86 466.013C2709.84 467.868 2715.55 468.796 2722 468.796C2727.18 468.796 2732.11 468.015 2736.79 466.452C2741.48 464.89 2745.78 462.692 2749.69 459.86C2753.59 457.028 2757.06 453.659 2760.09 449.753C2763.11 445.847 2765.51 441.501 2767.26 436.716L2788.8 444.626C2785.57 452.341 2781.28 459.03 2775.91 464.694C2770.63 470.261 2764.63 474.899 2757.89 478.61C2751.15 482.224 2743.92 484.909 2736.21 486.667C2728.49 488.425 2720.68 489.304 2712.77 489.304C2699.98 489.304 2688.11 487.155 2677.18 482.858C2666.24 478.464 2656.77 472.36 2648.76 464.548C2640.85 456.638 2634.65 447.312 2630.15 436.569C2625.66 425.729 2623.42 413.864 2623.42 400.974C2623.42 387.985 2625.61 376.071 2630.01 365.231C2634.5 354.392 2640.7 345.065 2648.61 337.253C2656.52 329.44 2665.95 323.386 2676.88 319.089C2687.82 314.792 2699.78 312.644 2712.77 312.644C2720.97 312.644 2728.98 313.571 2736.79 315.427C2744.61 317.185 2751.83 319.968 2758.47 323.776C2765.21 327.487 2771.22 332.224 2776.49 337.985C2781.86 343.747 2786.16 350.632 2789.38 358.64Z" fill="#111111"/>
<path d="M2980.04 564.011H2930.53V465.72C2924.67 473.728 2917.59 479.685 2909.29 483.591C2901.09 487.399 2892.05 489.304 2882.19 489.304C2869.3 489.304 2857.78 487.009 2847.62 482.419C2837.46 477.829 2828.87 471.579 2821.84 463.669C2814.81 455.661 2809.44 446.286 2805.72 435.544C2802.01 424.802 2800.16 413.278 2800.16 400.974C2800.16 388.669 2802.01 377.146 2805.72 366.403C2809.44 355.661 2814.81 346.335 2821.84 338.425C2828.87 330.417 2837.46 324.118 2847.62 319.528C2857.78 314.938 2869.3 312.644 2882.19 312.644C2888.73 312.644 2894.93 313.62 2900.79 315.573C2906.75 317.526 2912.17 320.31 2917.05 323.923C2922.03 327.438 2926.38 331.735 2930.09 336.813C2933.9 341.794 2936.88 347.36 2939.03 353.513L2961 316.745H2980.04V564.011ZM2930.24 400.974C2930.24 396.579 2929.99 391.94 2929.5 387.058C2929.11 382.175 2928.38 377.341 2927.31 372.556C2926.23 367.771 2924.72 363.229 2922.77 358.933C2920.91 354.538 2918.47 350.681 2915.44 347.36C2912.51 343.942 2908.95 341.257 2904.75 339.304C2900.55 337.351 2895.67 336.374 2890.1 336.374C2884.53 336.374 2879.7 337.399 2875.6 339.45C2871.5 341.403 2867.98 344.089 2865.05 347.507C2862.12 350.827 2859.68 354.685 2857.73 359.079C2855.87 363.474 2854.41 368.063 2853.33 372.849C2852.26 377.634 2851.48 382.468 2850.99 387.351C2850.6 392.136 2850.4 396.677 2850.4 400.974C2850.4 405.271 2850.6 409.86 2850.99 414.743C2851.48 419.626 2852.26 424.46 2853.33 429.245C2854.41 434.03 2855.87 438.62 2857.73 443.015C2859.68 447.409 2862.12 451.315 2865.05 454.733C2867.98 458.054 2871.5 460.739 2875.6 462.79C2879.7 464.743 2884.53 465.72 2890.1 465.72C2895.18 465.72 2899.67 464.694 2903.58 462.644C2907.58 460.495 2911.05 457.663 2913.98 454.147C2917 450.632 2919.54 446.628 2921.59 442.136C2923.64 437.644 2925.3 433.005 2926.57 428.22C2927.84 423.435 2928.77 418.698 2929.36 414.011C2929.94 409.226 2930.24 404.88 2930.24 400.974Z" fill="#111111"/>
<path d="M3003.85 413.571C3003.85 405.856 3004.49 397.849 3005.76 389.548C3007.12 381.247 3009.03 372.946 3011.47 364.646C3014.01 356.345 3017.04 348.142 3020.55 340.036C3024.07 331.931 3028.02 324.167 3032.42 316.745H3068.6C3066.16 324.069 3063.96 331.735 3062.01 339.743C3060.15 347.653 3058.54 355.612 3057.17 363.62C3055.9 371.53 3054.88 379.294 3054.1 386.911C3053.41 394.528 3053.07 401.608 3053.07 408.151C3053.07 411.96 3053.22 416.062 3053.51 420.456C3053.9 424.753 3054.54 429.099 3055.42 433.493C3056.29 437.79 3057.52 441.94 3059.08 445.944C3060.74 449.948 3062.84 453.513 3065.38 456.638C3067.92 459.665 3070.99 462.106 3074.61 463.962C3078.32 465.72 3082.66 466.599 3087.64 466.599C3092.53 466.599 3096.87 465.524 3100.68 463.376C3104.59 461.13 3108 458.249 3110.93 454.733C3113.86 451.12 3116.35 447.019 3118.4 442.429C3120.46 437.839 3122.12 433.151 3123.38 428.366C3124.75 423.483 3125.73 418.747 3126.31 414.157C3127 409.47 3127.34 405.271 3127.34 401.56V316.745H3176.85V485.935H3157.81L3135.1 446.53C3132.27 453.073 3128.8 459.03 3124.7 464.401C3120.7 469.675 3116.11 474.216 3110.93 478.024C3105.76 481.833 3100 484.763 3093.65 486.813C3087.4 488.864 3080.61 489.89 3073.29 489.89C3061.57 489.89 3051.36 487.985 3042.67 484.177C3033.98 480.368 3026.75 475.095 3020.99 468.356C3015.23 461.618 3010.93 453.61 3008.1 444.333C3005.27 434.958 3003.85 424.704 3003.85 413.571Z" fill="#111111"/>
<path d="M3379.52 485.935H3330.01V465.72C3324.15 473.728 3317.07 479.685 3308.77 483.591C3300.57 487.399 3291.53 489.304 3281.67 489.304C3268.78 489.304 3257.26 487.009 3247.1 482.419C3236.94 477.829 3228.35 471.579 3221.32 463.669C3214.29 455.661 3208.92 446.286 3205.21 435.544C3201.49 424.802 3199.64 413.278 3199.64 400.974C3199.64 388.669 3201.49 377.146 3205.21 366.403C3208.92 355.661 3214.29 346.335 3221.32 338.425C3228.35 330.417 3236.94 324.118 3247.1 319.528C3257.26 314.938 3268.78 312.644 3281.67 312.644C3288.21 312.644 3294.41 313.62 3300.27 315.573C3306.23 317.526 3311.65 320.31 3316.53 323.923C3321.51 327.438 3325.86 331.735 3329.57 336.813C3333.38 341.794 3336.36 347.36 3338.51 353.513L3360.48 316.745H3379.52V485.935ZM3329.72 400.974C3329.72 396.579 3329.47 391.94 3328.98 387.058C3328.59 382.175 3327.86 377.341 3326.79 372.556C3325.71 367.771 3324.2 363.229 3322.25 358.933C3320.39 354.538 3317.95 350.681 3314.92 347.36C3311.99 343.942 3308.43 341.257 3304.23 339.304C3300.03 337.351 3295.15 336.374 3289.58 336.374C3284.01 336.374 3279.18 337.399 3275.08 339.45C3270.98 341.403 3267.46 344.089 3264.53 347.507C3261.6 350.827 3259.16 354.685 3257.21 359.079C3255.35 363.474 3253.89 368.063 3252.81 372.849C3251.74 377.634 3250.96 382.468 3250.47 387.351C3250.08 392.136 3249.88 396.677 3249.88 400.974C3249.88 405.271 3250.08 409.86 3250.47 414.743C3250.96 419.626 3251.74 424.46 3252.81 429.245C3253.89 434.03 3255.35 438.62 3257.21 443.015C3259.16 447.409 3261.6 451.315 3264.53 454.733C3267.46 458.054 3270.98 460.739 3275.08 462.79C3279.18 464.743 3284.01 465.72 3289.58 465.72C3294.66 465.72 3299.15 464.694 3303.06 462.644C3307.06 460.495 3310.53 457.663 3313.46 454.147C3316.48 450.632 3319.02 446.628 3321.07 442.136C3323.12 437.644 3324.79 433.005 3326.05 428.22C3327.32 423.435 3328.25 418.698 3328.84 414.011C3329.42 409.226 3329.72 404.88 3329.72 400.974Z" fill="#111111"/>
<path d="M3555.82 331.687L3527.99 377.829C3526.82 373.923 3525.31 369.528 3523.45 364.646C3521.6 359.763 3519.3 355.222 3516.57 351.022C3513.83 346.726 3510.56 343.161 3506.75 340.329C3502.94 337.399 3498.55 335.935 3493.57 335.935C3488.98 335.935 3484.97 337.106 3481.56 339.45C3478.24 341.794 3475.4 344.87 3473.06 348.679C3470.72 352.39 3468.76 356.638 3467.2 361.423C3465.74 366.11 3464.56 370.896 3463.69 375.778C3462.9 380.563 3462.37 385.202 3462.07 389.694C3461.78 394.089 3461.63 397.897 3461.63 401.12V485.935H3411.98V316.745H3431.02L3451.09 356.149C3453.82 349.802 3456.95 343.991 3460.46 338.718C3463.98 333.347 3468.03 328.757 3472.62 324.948C3477.21 321.042 3482.39 318.015 3488.15 315.866C3494.01 313.718 3500.6 312.644 3507.92 312.644C3511.73 312.644 3515.98 312.985 3520.67 313.669C3525.36 314.255 3529.95 315.329 3534.44 316.892C3538.93 318.356 3543.08 320.31 3546.89 322.751C3550.7 325.192 3553.68 328.171 3555.82 331.687Z" fill="#111111"/>
<path d="M3619.63 275.876C3619.63 279.587 3618.89 283.103 3617.43 286.423C3616.06 289.743 3614.16 292.624 3611.72 295.065C3609.28 297.507 3606.39 299.46 3603.07 300.925C3599.75 302.292 3596.24 302.976 3592.53 302.976C3588.82 302.976 3585.3 302.292 3581.98 300.925C3578.76 299.46 3575.93 297.507 3573.48 295.065C3571.04 292.624 3569.09 289.743 3567.62 286.423C3566.26 283.103 3565.57 279.587 3565.57 275.876C3565.57 272.165 3566.26 268.698 3567.62 265.476C3569.09 262.155 3571.04 259.274 3573.48 256.833C3575.93 254.392 3578.76 252.487 3581.98 251.12C3585.3 249.655 3588.82 248.923 3592.53 248.923C3596.24 248.923 3599.75 249.655 3603.07 251.12C3606.39 252.487 3609.28 254.392 3611.72 256.833C3614.16 259.274 3616.06 262.155 3617.43 265.476C3618.89 268.698 3619.63 272.165 3619.63 275.876ZM3617.43 485.935H3567.77V316.892H3617.43V485.935Z" fill="#111111"/>
<path d="M3690.75 405.661C3696.81 407.028 3702.86 408.103 3708.92 408.884C3714.97 409.665 3721.08 410.056 3727.23 410.056C3733.67 410.056 3739.63 409.47 3745.1 408.298C3750.67 407.028 3755.45 404.978 3759.46 402.146C3763.56 399.216 3766.78 395.358 3769.12 390.573C3771.47 385.788 3772.64 379.831 3772.64 372.702C3772.64 366.94 3771.86 361.667 3770.29 356.882C3768.73 352.097 3766.39 347.995 3763.26 344.577C3760.24 341.159 3756.48 338.522 3751.98 336.667C3747.49 334.714 3742.27 333.737 3736.31 333.737C3730.74 333.737 3725.71 334.763 3721.22 336.813C3716.83 338.864 3712.92 341.647 3709.5 345.163C3706.18 348.581 3703.3 352.585 3700.86 357.175C3698.52 361.765 3696.56 366.55 3695 371.53C3693.44 376.511 3692.32 381.54 3691.63 386.618C3690.95 391.696 3690.61 396.481 3690.61 400.974C3690.61 401.755 3690.61 402.536 3690.61 403.317C3690.61 404.099 3690.66 404.88 3690.75 405.661ZM3812.78 372.263C3812.78 379.196 3811.65 385.397 3809.41 390.866C3807.16 396.237 3804.08 400.974 3800.18 405.075C3796.37 409.177 3791.93 412.644 3786.85 415.476C3781.77 418.308 3776.35 420.651 3770.59 422.507C3764.83 424.265 3758.87 425.534 3752.72 426.315C3746.66 427.097 3740.75 427.487 3734.99 427.487C3727.67 427.487 3720.44 426.999 3713.31 426.022C3706.18 424.948 3699.15 423.288 3692.22 421.042C3693.29 427.487 3695 433.64 3697.35 439.499C3699.69 445.261 3702.81 450.339 3706.72 454.733C3710.63 459.03 3715.41 462.448 3721.08 464.987C3726.84 467.526 3733.62 468.796 3741.44 468.796C3746.61 468.796 3751.54 468.015 3756.23 466.452C3760.92 464.89 3765.22 462.692 3769.12 459.86C3773.03 457.028 3776.45 453.659 3779.38 449.753C3782.4 445.847 3784.85 441.501 3786.7 436.716L3808.09 444.626C3804.87 452.341 3800.42 459.03 3794.76 464.694C3789.19 470.261 3782.84 474.899 3775.71 478.61C3768.68 482.224 3761.16 484.909 3753.16 486.667C3745.25 488.425 3737.38 489.304 3729.57 489.304C3716.68 489.304 3704.77 487.155 3693.83 482.858C3682.89 478.464 3673.47 472.36 3665.56 464.548C3657.65 456.735 3651.45 447.409 3646.96 436.569C3642.46 425.729 3640.22 413.864 3640.22 400.974C3640.22 388.083 3642.46 376.218 3646.96 365.378C3651.45 354.538 3657.65 345.212 3665.56 337.399C3673.47 329.587 3682.89 323.532 3693.83 319.235C3704.77 314.841 3716.68 312.644 3729.57 312.644C3735.82 312.644 3742.22 313.083 3748.76 313.962C3755.3 314.841 3761.65 316.257 3767.8 318.21C3773.96 320.065 3779.77 322.507 3785.24 325.534C3790.71 328.562 3795.44 332.321 3799.45 336.813C3803.55 341.208 3806.77 346.335 3809.11 352.194C3811.55 358.054 3812.78 364.743 3812.78 372.263Z" fill="#111111"/>
<path d="M1455.43 667.292L1430.38 677.839C1428.42 671.491 1425.79 665.681 1422.47 660.407C1419.24 655.134 1415.34 650.642 1410.75 646.931C1406.26 643.122 1401.13 640.192 1395.37 638.142C1389.61 635.993 1383.31 634.919 1376.47 634.919C1369.15 634.919 1362.41 636.14 1356.26 638.581C1350.2 640.925 1344.73 644.196 1339.85 648.396C1335.06 652.595 1330.87 657.478 1327.25 663.044C1323.64 668.61 1320.61 674.567 1318.17 680.915C1315.73 687.165 1313.92 693.659 1312.75 700.397C1311.58 707.136 1310.99 713.728 1310.99 720.173C1310.99 730.427 1312.16 740.632 1314.51 750.788C1316.95 760.944 1320.76 770.075 1325.93 778.181C1331.21 786.286 1337.99 792.878 1346.29 797.956C1354.6 802.937 1364.65 805.427 1376.47 805.427C1382.72 805.427 1388.63 804.401 1394.2 802.351C1399.76 800.202 1404.79 797.321 1409.28 793.708C1413.87 789.997 1417.88 785.651 1421.29 780.671C1424.71 775.69 1427.45 770.319 1429.5 764.558L1454.84 774.665C1451.13 783.942 1446.05 792.097 1439.61 799.128C1433.16 806.062 1425.79 811.823 1417.49 816.413C1409.28 821.003 1400.45 824.421 1390.97 826.667C1381.6 829.011 1372.12 830.183 1362.55 830.183C1352.2 830.183 1342.24 828.913 1332.67 826.374C1323.2 823.835 1314.36 820.222 1306.16 815.534C1297.96 810.847 1290.48 805.183 1283.75 798.542C1277.11 791.901 1271.39 784.528 1266.61 776.423C1261.92 768.317 1258.26 759.528 1255.62 750.056C1253.08 740.485 1251.81 730.524 1251.81 720.173C1251.81 709.821 1253.08 699.909 1255.62 690.437C1258.26 680.866 1261.92 672.028 1266.61 663.923C1271.39 655.72 1277.11 648.298 1283.75 641.657C1290.48 635.017 1297.96 629.353 1306.16 624.665C1314.36 619.978 1323.2 616.364 1332.67 613.825C1342.24 611.286 1352.2 610.017 1362.55 610.017C1372.52 610.017 1382.23 611.188 1391.71 613.532C1401.28 615.876 1410.16 619.44 1418.37 624.226C1426.57 628.913 1433.84 634.87 1440.19 642.097C1446.64 649.226 1451.71 657.624 1455.43 667.292Z" fill="#111111"/>
<path d="M1647.55 825.935H1598.04V805.72C1592.18 813.728 1585.1 819.685 1576.8 823.591C1568.59 827.399 1559.56 829.304 1549.7 829.304C1536.81 829.304 1525.28 827.009 1515.13 822.419C1504.97 817.829 1496.38 811.579 1489.35 803.669C1482.31 795.661 1476.94 786.286 1473.23 775.544C1469.52 764.802 1467.67 753.278 1467.67 740.974C1467.67 728.669 1469.52 717.146 1473.23 706.403C1476.94 695.661 1482.31 686.335 1489.35 678.425C1496.38 670.417 1504.97 664.118 1515.13 659.528C1525.28 654.938 1536.81 652.644 1549.7 652.644C1556.24 652.644 1562.44 653.62 1568.3 655.573C1574.26 657.526 1579.68 660.31 1584.56 663.923C1589.54 667.438 1593.89 671.735 1597.6 676.813C1601.41 681.794 1604.38 687.36 1606.53 693.513L1628.51 656.745H1647.55V825.935ZM1597.74 740.974C1597.74 736.579 1597.5 731.94 1597.01 727.058C1596.62 722.175 1595.89 717.341 1594.81 712.556C1593.74 707.771 1592.23 703.229 1590.27 698.933C1588.42 694.538 1585.98 690.681 1582.95 687.36C1580.02 683.942 1576.46 681.257 1572.26 679.304C1568.06 677.351 1563.17 676.374 1557.61 676.374C1552.04 676.374 1547.21 677.399 1543.11 679.45C1539 681.403 1535.49 684.089 1532.56 687.507C1529.63 690.827 1527.19 694.685 1525.23 699.079C1523.38 703.474 1521.91 708.063 1520.84 712.849C1519.77 717.634 1518.98 722.468 1518.5 727.351C1518.11 732.136 1517.91 736.677 1517.91 740.974C1517.91 745.271 1518.11 749.86 1518.5 754.743C1518.98 759.626 1519.77 764.46 1520.84 769.245C1521.91 774.03 1523.38 778.62 1525.23 783.015C1527.19 787.409 1529.63 791.315 1532.56 794.733C1535.49 798.054 1539 800.739 1543.11 802.79C1547.21 804.743 1552.04 805.72 1557.61 805.72C1562.69 805.72 1567.18 804.694 1571.08 802.644C1575.09 800.495 1578.55 797.663 1581.48 794.147C1584.51 790.632 1587.05 786.628 1589.1 782.136C1591.15 777.644 1592.81 773.005 1594.08 768.22C1595.35 763.435 1596.28 758.698 1596.87 754.011C1597.45 749.226 1597.74 744.88 1597.74 740.974Z" fill="#111111"/>
<path d="M1859.89 740.974C1859.89 753.278 1858.03 764.802 1854.32 775.544C1850.61 786.286 1845.24 795.661 1838.21 803.669C1831.18 811.579 1822.58 817.829 1812.43 822.419C1802.27 827.009 1790.75 829.304 1777.86 829.304C1767.99 829.304 1758.91 827.399 1750.61 823.591C1742.41 819.685 1735.38 813.728 1729.52 805.72V904.011H1680V656.745H1699.05L1721.02 693.513C1723.17 687.36 1726.1 681.794 1729.81 676.813C1733.62 671.735 1737.96 667.438 1742.85 663.923C1747.83 660.31 1753.25 657.526 1759.11 655.573C1765.06 653.62 1771.31 652.644 1777.86 652.644C1790.75 652.644 1802.27 654.938 1812.43 659.528C1822.58 664.118 1831.18 670.417 1838.21 678.425C1845.24 686.335 1850.61 695.661 1854.32 706.403C1858.03 717.146 1859.89 728.669 1859.89 740.974ZM1809.64 740.974C1809.64 736.677 1809.4 732.136 1808.91 727.351C1808.52 722.468 1807.79 717.634 1806.71 712.849C1805.64 708.063 1804.12 703.474 1802.17 699.079C1800.32 694.685 1797.92 690.827 1794.99 687.507C1792.06 684.089 1788.5 681.403 1784.3 679.45C1780.2 677.399 1775.41 676.374 1769.95 676.374C1764.28 676.374 1759.35 677.351 1755.15 679.304C1751.05 681.257 1747.48 683.942 1744.46 687.36C1741.53 690.681 1739.09 694.538 1737.13 698.933C1735.28 703.229 1733.81 707.771 1732.74 712.556C1731.66 717.341 1730.88 722.175 1730.39 727.058C1730 731.94 1729.81 736.579 1729.81 740.974C1729.81 744.88 1730.1 749.226 1730.69 754.011C1731.27 758.698 1732.2 763.435 1733.47 768.22C1734.74 773.005 1736.4 777.644 1738.45 782.136C1740.5 786.628 1742.99 790.632 1745.92 794.147C1748.95 797.663 1752.42 800.495 1756.32 802.644C1760.33 804.694 1764.87 805.72 1769.95 805.72C1775.51 805.72 1780.35 804.743 1784.45 802.79C1788.55 800.739 1792.06 798.054 1794.99 794.733C1797.92 791.315 1800.32 787.409 1802.17 783.015C1804.12 778.62 1805.64 774.03 1806.71 769.245C1807.79 764.46 1808.52 759.626 1808.91 754.743C1809.4 749.86 1809.64 745.271 1809.64 740.974Z" fill="#111111"/>
<path d="M1934.82 615.876C1934.82 619.587 1934.09 623.103 1932.62 626.423C1931.26 629.743 1929.35 632.624 1926.91 635.065C1924.47 637.507 1921.59 639.46 1918.27 640.925C1914.95 642.292 1911.43 642.976 1907.72 642.976C1904.01 642.976 1900.5 642.292 1897.18 640.925C1893.95 639.46 1891.12 637.507 1888.68 635.065C1886.24 632.624 1884.29 629.743 1882.82 626.423C1881.45 623.103 1880.77 619.587 1880.77 615.876C1880.77 612.165 1881.45 608.698 1882.82 605.476C1884.29 602.155 1886.24 599.274 1888.68 596.833C1891.12 594.392 1893.95 592.487 1897.18 591.12C1900.5 589.655 1904.01 588.923 1907.72 588.923C1911.43 588.923 1914.95 589.655 1918.27 591.12C1921.59 592.487 1924.47 594.392 1926.91 596.833C1929.35 599.274 1931.26 602.155 1932.62 605.476C1934.09 608.698 1934.82 612.165 1934.82 615.876ZM1932.62 825.935H1882.97V656.892H1932.62V825.935Z" fill="#111111"/>
<path d="M2028.95 825.935H1979.29V676.374H1948.53V656.745H1979.29V594.489H2028.95V656.745H2080.22V676.374H2028.95V825.935Z" fill="#111111"/>
<path d="M2259.01 825.935H2209.5V805.72C2203.64 813.728 2196.56 819.685 2188.26 823.591C2180.05 827.399 2171.02 829.304 2161.16 829.304C2148.27 829.304 2136.74 827.009 2126.59 822.419C2116.43 817.829 2107.84 811.579 2100.81 803.669C2093.78 795.661 2088.4 786.286 2084.69 775.544C2080.98 764.802 2079.13 753.278 2079.13 740.974C2079.13 728.669 2080.98 717.146 2084.69 706.403C2088.4 695.661 2093.78 686.335 2100.81 678.425C2107.84 670.417 2116.43 664.118 2126.59 659.528C2136.74 654.938 2148.27 652.644 2161.16 652.644C2167.7 652.644 2173.9 653.62 2179.76 655.573C2185.72 657.526 2191.14 660.31 2196.02 663.923C2201 667.438 2205.35 671.735 2209.06 676.813C2212.87 681.794 2215.85 687.36 2217.99 693.513L2239.97 656.745H2259.01V825.935ZM2209.21 740.974C2209.21 736.579 2208.96 731.94 2208.47 727.058C2208.08 722.175 2207.35 717.341 2206.28 712.556C2205.2 707.771 2203.69 703.229 2201.73 698.933C2199.88 694.538 2197.44 690.681 2194.41 687.36C2191.48 683.942 2187.92 681.257 2183.72 679.304C2179.52 677.351 2174.63 676.374 2169.07 676.374C2163.5 676.374 2158.67 677.399 2154.57 679.45C2150.46 681.403 2146.95 684.089 2144.02 687.507C2141.09 690.827 2138.65 694.685 2136.7 699.079C2134.84 703.474 2133.38 708.063 2132.3 712.849C2131.23 717.634 2130.45 722.468 2129.96 727.351C2129.57 732.136 2129.37 736.677 2129.37 740.974C2129.37 745.271 2129.57 749.86 2129.96 754.743C2130.45 759.626 2131.23 764.46 2132.3 769.245C2133.38 774.03 2134.84 778.62 2136.7 783.015C2138.65 787.409 2141.09 791.315 2144.02 794.733C2146.95 798.054 2150.46 800.739 2154.57 802.79C2158.67 804.743 2163.5 805.72 2169.07 805.72C2174.15 805.72 2178.64 804.694 2182.54 802.644C2186.55 800.495 2190.02 797.663 2192.95 794.147C2195.97 790.632 2198.51 786.628 2200.56 782.136C2202.61 777.644 2204.27 773.005 2205.54 768.22C2206.81 763.435 2207.74 758.698 2208.33 754.011C2208.91 749.226 2209.21 744.88 2209.21 740.974Z" fill="#111111"/>
<path d="M2340.98 825.935H2291.46V578.815H2310.51L2340.98 630.231V825.935Z" fill="#111111"/>
<path fill-rule="evenodd" clip-rule="evenodd" d="M24.9685 519.943L0 544.912L24.9685 569.88L152.564 697.476V597.602L99.874 544.912L152.564 492.222V392.348L24.9685 519.943ZM237.31 307.602L307.627 237.285H407.501L237.31 407.476V307.602ZM237.31 682.348V782.222L307.627 852.539H407.501L237.31 682.348ZM492.247 937.285L544.912 989.949L597.577 937.285H697.451L569.88 1064.85L544.912 1089.82L519.943 1064.85L392.373 937.285H492.247ZM782.197 852.539H682.323L852.564 682.297V782.171L782.197 852.539ZM937.31 697.425L1064.85 569.88L1089.82 544.912L1064.85 519.943L937.31 392.398V492.272L989.949 544.912L937.31 597.551V697.425ZM852.564 407.526V307.652L782.196 237.285H682.322L852.564 407.526ZM597.576 152.539H697.45L569.88 24.9685L544.912 0L519.943 24.9685L392.373 152.539H492.247L544.912 99.874L597.576 152.539Z" fill="#111111"/>
<rect x="194.938" y="194.912" width="700" height="700" stroke="#111111" stroke-width="35.3108"/>
<path d="M390.023 621.744H347.714V488.959H305.938V469.506H431.799V488.959H390.023V621.744Z" fill="#111111"/>
<path d="M467.987 508.2L456.051 621.744H429.941L456.051 469.506H494.736L530.651 585.693L566.992 469.506H605.678L627.419 621.744H584.364L571.682 511.16L541.735 621.744H503.049L467.987 508.2Z" fill="#111111"/>
<path d="M786.164 507.249L767.941 514.86C766.52 510.279 764.601 506.086 762.186 502.28C759.841 498.474 756.999 495.232 753.66 492.553C750.392 489.805 746.662 487.69 742.47 486.21C738.278 484.659 733.695 483.884 728.722 483.884C723.393 483.884 718.491 484.765 714.015 486.527C709.61 488.219 705.631 490.58 702.079 493.611C698.598 496.641 695.543 500.165 692.914 504.183C690.285 508.2 688.082 512.499 686.306 517.081C684.53 521.591 683.216 526.278 682.363 531.141C681.511 536.005 681.084 540.762 681.084 545.414C681.084 552.814 681.937 560.179 683.642 567.509C685.418 574.839 688.189 581.429 691.955 587.279C695.791 593.129 700.729 597.887 706.768 601.552C712.807 605.146 720.125 606.943 728.722 606.943C733.269 606.943 737.567 606.203 741.617 604.723C745.667 603.173 749.326 601.093 752.594 598.486C755.933 595.807 758.846 592.671 761.333 589.077C763.82 585.482 765.809 581.606 767.301 577.447L785.738 584.742C783.038 591.438 779.344 597.323 774.655 602.397C769.965 607.401 764.601 611.56 758.562 614.872C752.594 618.185 746.164 620.652 739.273 622.273C732.452 623.964 725.56 624.81 718.598 624.81C711.067 624.81 703.82 623.894 696.857 622.061C689.965 620.229 683.535 617.621 677.567 614.238C671.599 610.855 666.164 606.767 661.262 601.974C656.431 597.182 652.274 591.861 648.793 586.011C645.383 580.161 642.718 573.817 640.8 566.981C638.953 560.074 638.029 552.885 638.029 545.414C638.029 537.943 638.953 530.789 640.8 523.952C642.718 517.045 645.383 510.667 648.793 504.817C652.274 498.897 656.431 493.54 661.262 488.747C666.164 483.955 671.599 479.867 677.567 476.484C683.535 473.101 689.965 470.493 696.857 468.66C703.82 466.828 711.067 465.912 718.598 465.912C725.845 465.912 732.914 466.757 739.805 468.449C746.768 470.14 753.234 472.713 759.202 476.167C765.17 479.55 770.463 483.849 775.081 489.065C779.77 494.21 783.465 500.271 786.164 507.249Z" fill="#111111"/>
</svg>
