<svg width="3813" height="1090" viewBox="0 0 3813 1090" fill="none" xmlns="http://www.w3.org/2000/svg">
<path d="M1361.38 485.93H1303.23V301.95H1245.81V274.997H1418.8V301.95H1361.38V485.93Z" fill="white"/>
<path d="M1565.37 331.69L1537.54 377.83C1536.37 373.92 1534.85 369.53 1533 364.65C1531.14 359.76 1528.85 355.22 1526.11 351.02C1523.38 346.73 1520.11 343.16 1516.3 340.33C1512.49 337.4 1508.1 335.93 1503.12 335.93C1498.53 335.93 1494.52 337.11 1491.1 339.45C1487.78 341.79 1484.95 344.87 1482.61 348.68C1480.26 352.39 1478.31 356.64 1476.75 361.42C1475.28 366.11 1474.11 370.9 1473.23 375.78C1472.45 380.56 1471.91 385.2 1471.62 389.69C1471.33 394.09 1471.18 397.9 1471.18 401.12V485.93H1421.52V316.75H1440.57L1460.63 356.15C1463.37 349.8 1466.49 343.99 1470.01 338.72C1473.53 333.35 1477.58 328.76 1482.17 324.95C1486.76 321.04 1491.93 318.01 1497.7 315.87C1503.55 313.72 1510.15 312.64 1517.47 312.64C1521.28 312.64 1525.53 312.99 1530.21 313.67C1534.9 314.25 1539.49 315.33 1543.98 316.89C1548.48 318.36 1552.63 320.31 1556.44 322.75C1560.24 325.19 1563.22 328.17 1565.37 331.69Z" fill="white"/>
<path d="M1565.31 413.57C1565.31 405.86 1565.94 397.85 1567.21 389.55C1568.58 381.25 1570.48 372.95 1572.92 364.65C1575.46 356.34 1578.49 348.14 1582.01 340.04C1585.52 331.93 1589.48 324.17 1593.87 316.75H1630.05C1627.61 324.07 1625.41 331.74 1623.46 339.74C1621.61 347.65 1619.99 355.61 1618.63 363.62C1617.36 371.53 1616.33 379.29 1615.55 386.91C1614.87 394.53 1614.53 401.61 1614.53 408.15C1614.53 411.96 1614.67 416.06 1614.96 420.46C1615.36 424.75 1615.99 429.1 1616.87 433.49C1617.75 437.79 1618.97 441.94 1620.53 445.94C1622.19 449.95 1624.29 453.51 1626.83 456.64C1629.37 459.67 1632.45 462.11 1636.06 463.96C1639.77 465.72 1644.12 466.6 1649.1 466.6C1653.98 466.6 1658.32 465.52 1662.13 463.38C1666.04 461.13 1669.46 458.25 1672.39 454.73C1675.32 451.12 1677.81 447.02 1679.86 442.43C1681.91 437.84 1683.57 433.15 1684.84 428.37C1686.21 423.48 1687.18 418.75 1687.77 414.16C1688.45 409.47 1688.79 405.27 1688.79 401.56V316.75H1738.3V485.93H1719.26L1696.56 446.53C1693.72 453.07 1690.26 459.03 1686.16 464.4C1682.15 469.67 1677.56 474.22 1672.39 478.02C1667.21 481.83 1661.45 484.76 1655.1 486.81C1648.85 488.86 1642.06 489.89 1634.74 489.89C1623.02 489.89 1612.82 487.99 1604.12 484.18C1595.43 480.37 1588.21 475.09 1582.45 468.36C1576.68 461.62 1572.39 453.61 1569.55 444.33C1566.72 434.96 1565.31 424.7 1565.31 413.57Z" fill="white"/>
<path d="M1916.22 431.88C1916.22 439.3 1915.14 445.9 1913 451.66C1910.85 457.42 1907.92 462.45 1904.21 466.75C1900.5 470.94 1896.1 474.51 1891.02 477.44C1885.95 480.27 1880.48 482.57 1874.62 484.32C1868.86 486.08 1862.8 487.35 1856.45 488.13C1850.11 488.91 1843.81 489.3 1837.56 489.3C1829.16 489.3 1821.74 488.77 1815.29 487.69C1808.85 486.62 1802.69 484.91 1796.83 482.57C1790.97 480.12 1785.12 477 1779.26 473.19C1773.49 469.38 1767.05 464.74 1759.92 459.27L1788.78 435.69C1791.41 440.67 1794.88 445.21 1799.18 449.31C1803.57 453.32 1808.11 456.78 1812.8 459.71C1817.49 462.64 1822.03 464.89 1826.42 466.45C1830.82 468.01 1834.38 468.8 1837.12 468.8C1839.36 468.8 1841.9 468.75 1844.73 468.65C1847.57 468.45 1850.45 468.16 1853.38 467.77C1856.31 467.28 1859.19 466.6 1862.02 465.72C1864.85 464.84 1867.34 463.67 1869.49 462.2C1871.74 460.64 1873.49 458.74 1874.76 456.49C1876.13 454.15 1876.81 451.36 1876.81 448.14C1876.81 444.82 1875.94 441.94 1874.18 439.5C1872.52 436.96 1870.32 434.76 1867.59 432.91C1864.85 431.05 1861.73 429.49 1858.21 428.22C1854.7 426.95 1851.13 425.83 1847.52 424.85C1844 423.87 1840.58 423.04 1837.26 422.36C1833.94 421.58 1831.06 420.85 1828.62 420.16C1824.13 418.89 1819.39 417.62 1814.41 416.35C1809.43 414.99 1804.5 413.47 1799.62 411.81C1794.73 410.06 1790.05 408 1785.55 405.66C1781.16 403.32 1777.25 400.53 1773.84 397.31C1770.52 393.99 1767.83 390.13 1765.78 385.74C1763.83 381.25 1762.85 376.02 1762.85 370.07C1762.85 359.13 1765 350 1769.29 342.67C1773.69 335.25 1779.45 329.34 1786.58 324.95C1793.71 320.46 1801.81 317.28 1810.9 315.43C1819.98 313.57 1829.21 312.64 1838.58 312.64C1845.03 312.64 1851.81 313.33 1858.94 314.69C1866.07 315.96 1873.01 317.92 1879.74 320.55C1886.48 323.09 1892.78 326.22 1898.64 329.93C1904.5 333.64 1909.38 337.89 1913.29 342.67L1884.43 366.4C1882.28 360.54 1879.45 355.51 1875.94 351.32C1872.52 347.12 1868.76 343.7 1864.66 341.06C1860.65 338.33 1856.5 336.33 1852.21 335.06C1848.01 333.79 1844.1 333.15 1840.49 333.15C1836.97 333.15 1833.02 333.3 1828.62 333.59C1824.23 333.88 1820.08 334.71 1816.17 336.08C1812.36 337.45 1809.09 339.55 1806.36 342.38C1803.72 345.11 1802.4 348.92 1802.4 353.81C1802.4 357.32 1803.18 360.35 1804.74 362.89C1806.4 365.33 1808.55 367.48 1811.19 369.33C1813.83 371.09 1816.8 372.6 1820.12 373.87C1823.54 375.05 1827.01 376.12 1830.53 377.1C1834.04 377.98 1837.46 378.76 1840.78 379.44C1844.1 380.12 1847.08 380.86 1849.71 381.64C1854.21 382.91 1858.94 384.23 1863.92 385.59C1869 386.86 1873.98 388.38 1878.87 390.13C1883.75 391.79 1888.44 393.8 1892.93 396.14C1897.52 398.39 1901.52 401.17 1904.94 404.49C1908.36 407.81 1911.09 411.72 1913.14 416.21C1915.19 420.6 1916.22 425.83 1916.22 431.88Z" fill="white"/>
<path d="M2002.29 485.93H1952.63V336.37H1921.87V316.75H1952.63V254.489H2002.29V316.75H2053.56V336.37H2002.29V485.93Z" fill="white"/>
<path d="M2188.78 328.61L2172.37 485.93H2136.48L2172.37 274.997H2225.55L2274.91 435.98L2324.86 274.997H2378.04L2407.92 485.93H2348.74L2331.31 332.71L2290.15 485.93H2236.97L2188.78 328.61Z" fill="white"/>
<path d="M2600.78 485.93H2551.26V465.72C2545.4 473.73 2538.32 479.68 2530.02 483.59C2521.82 487.4 2512.79 489.3 2502.92 489.3C2490.03 489.3 2478.51 487.01 2468.35 482.42C2458.2 477.83 2449.6 471.58 2442.57 463.67C2435.54 455.66 2430.17 446.29 2426.46 435.54C2422.75 424.8 2420.89 413.28 2420.89 400.97C2420.89 388.67 2422.75 377.15 2426.46 366.4C2430.17 355.66 2435.54 346.33 2442.57 338.42C2449.6 330.42 2458.2 324.12 2468.35 319.53C2478.51 314.94 2490.03 312.64 2502.92 312.64C2509.47 312.64 2515.67 313.62 2521.53 315.57C2527.48 317.53 2532.9 320.31 2537.79 323.92C2542.77 327.44 2547.11 331.74 2550.82 336.81C2554.63 341.79 2557.61 347.36 2559.76 353.51L2581.73 316.75H2600.78V485.93ZM2550.97 400.97C2550.97 396.58 2550.73 391.94 2550.24 387.06C2549.85 382.17 2549.12 377.34 2548.04 372.56C2546.97 367.77 2545.45 363.23 2543.5 358.93C2541.64 354.54 2539.2 350.68 2536.18 347.36C2533.25 343.94 2529.68 341.26 2525.48 339.3C2521.28 337.35 2516.4 336.37 2510.83 336.37C2505.27 336.37 2500.43 337.4 2496.33 339.45C2492.23 341.4 2488.71 344.09 2485.79 347.51C2482.86 350.83 2480.41 354.68 2478.46 359.08C2476.61 363.47 2475.14 368.06 2474.07 372.85C2472.99 377.63 2472.21 382.47 2471.72 387.35C2471.33 392.14 2471.14 396.68 2471.14 400.97C2471.14 405.27 2471.33 409.86 2471.72 414.74C2472.21 419.63 2472.99 424.46 2474.07 429.25C2475.14 434.03 2476.61 438.62 2478.46 443.01C2480.41 447.41 2482.86 451.32 2485.79 454.73C2488.71 458.05 2492.23 460.74 2496.33 462.79C2500.43 464.74 2505.27 465.72 2510.83 465.72C2515.91 465.72 2520.4 464.69 2524.31 462.64C2528.31 460.5 2531.78 457.66 2534.71 454.15C2537.74 450.63 2540.28 446.63 2542.33 442.14C2544.38 437.64 2546.04 433 2547.31 428.22C2548.58 423.43 2549.51 418.7 2550.09 414.01C2550.68 409.23 2550.97 404.88 2550.97 400.97Z" fill="white"/>
<path d="M2789.38 358.64L2768 367.14C2764.58 356.39 2758.87 348.14 2750.86 342.38C2742.85 336.62 2733.23 333.74 2722 333.74C2715.95 333.74 2710.53 334.71 2705.74 336.67C2701.05 338.52 2696.9 341.11 2693.29 344.43C2689.77 347.75 2686.75 351.61 2684.21 356C2681.77 360.4 2679.76 365.08 2678.2 370.07C2676.64 375.05 2675.52 380.22 2674.83 385.59C2674.15 390.87 2673.81 395.99 2673.81 400.97C2673.81 406.34 2674.1 411.76 2674.69 417.23C2675.27 422.7 2676.25 427.98 2677.62 433.05C2679.08 438.03 2680.98 442.72 2683.33 447.12C2685.67 451.41 2688.6 455.17 2692.12 458.4C2695.73 461.62 2699.98 464.16 2704.86 466.01C2709.84 467.87 2715.55 468.8 2722 468.8C2727.18 468.8 2732.11 468.01 2736.79 466.45C2741.48 464.89 2745.78 462.69 2749.69 459.86C2753.59 457.03 2757.06 453.66 2760.09 449.75C2763.11 445.85 2765.51 441.5 2767.26 436.72L2788.8 444.63C2785.57 452.34 2781.28 459.03 2775.91 464.69C2770.63 470.26 2764.63 474.9 2757.89 478.61C2751.15 482.22 2743.92 484.91 2736.21 486.67C2728.49 488.42 2720.68 489.3 2712.77 489.3C2699.98 489.3 2688.11 487.16 2677.18 482.86C2666.24 478.46 2656.77 472.36 2648.76 464.55C2640.85 456.64 2634.65 447.31 2630.15 436.57C2625.66 425.73 2623.42 413.86 2623.42 400.97C2623.42 387.99 2625.61 376.07 2630.01 365.23C2634.5 354.39 2640.7 345.07 2648.61 337.25C2656.52 329.44 2665.95 323.39 2676.88 319.09C2687.82 314.79 2699.78 312.64 2712.77 312.64C2720.97 312.64 2728.98 313.57 2736.79 315.43C2744.61 317.18 2751.83 319.97 2758.47 323.78C2765.21 327.49 2771.22 332.22 2776.49 337.99C2781.86 343.75 2786.16 350.63 2789.38 358.64Z" fill="white"/>
<path d="M2980.04 564.01H2930.53V465.72C2924.67 473.73 2917.59 479.68 2909.29 483.59C2901.09 487.4 2892.05 489.3 2882.19 489.3C2869.3 489.3 2857.78 487.01 2847.62 482.42C2837.46 477.83 2828.87 471.58 2821.84 463.67C2814.81 455.66 2809.44 446.29 2805.72 435.54C2802.01 424.8 2800.16 413.28 2800.16 400.97C2800.16 388.67 2802.01 377.15 2805.72 366.4C2809.44 355.66 2814.81 346.33 2821.84 338.42C2828.87 330.42 2837.46 324.12 2847.62 319.53C2857.78 314.94 2869.3 312.64 2882.19 312.64C2888.73 312.64 2894.93 313.62 2900.79 315.57C2906.75 317.53 2912.17 320.31 2917.05 323.92C2922.03 327.44 2926.38 331.74 2930.09 336.81C2933.9 341.79 2936.88 347.36 2939.03 353.51L2961 316.75H2980.04V564.01ZM2930.24 400.97C2930.24 396.58 2929.99 391.94 2929.5 387.06C2929.11 382.17 2928.38 377.34 2927.31 372.56C2926.23 367.77 2924.72 363.23 2922.77 358.93C2920.91 354.54 2918.47 350.68 2915.44 347.36C2912.51 343.94 2908.95 341.26 2904.75 339.3C2900.55 337.35 2895.67 336.37 2890.1 336.37C2884.53 336.37 2879.7 337.4 2875.6 339.45C2871.5 341.4 2867.98 344.09 2865.05 347.51C2862.12 350.83 2859.68 354.68 2857.73 359.08C2855.87 363.47 2854.41 368.06 2853.33 372.85C2852.26 377.63 2851.48 382.47 2850.99 387.35C2850.6 392.14 2850.4 396.68 2850.4 400.97C2850.4 405.27 2850.6 409.86 2850.99 414.74C2851.48 419.63 2852.26 424.46 2853.33 429.25C2854.41 434.03 2855.87 438.62 2857.73 443.01C2859.68 447.41 2862.12 451.32 2865.05 454.73C2867.98 458.05 2871.5 460.74 2875.6 462.79C2879.7 464.74 2884.53 465.72 2890.1 465.72C2895.18 465.72 2899.67 464.69 2903.58 462.64C2907.58 460.5 2911.05 457.66 2913.98 454.15C2917 450.63 2919.54 446.63 2921.59 442.14C2923.64 437.64 2925.3 433 2926.57 428.22C2927.84 423.43 2928.77 418.7 2929.36 414.01C2929.94 409.23 2930.24 404.88 2930.24 400.97Z" fill="white"/>
<path d="M3003.85 413.57C3003.85 405.86 3004.49 397.85 3005.76 389.55C3007.12 381.25 3009.03 372.95 3011.47 364.65C3014.01 356.34 3017.04 348.14 3020.55 340.04C3024.07 331.93 3028.02 324.17 3032.42 316.75H3068.6C3066.16 324.07 3063.96 331.74 3062.01 339.74C3060.15 347.65 3058.54 355.61 3057.17 363.62C3055.9 371.53 3054.88 379.29 3054.1 386.91C3053.41 394.53 3053.07 401.61 3053.07 408.15C3053.07 411.96 3053.22 416.06 3053.51 420.46C3053.9 424.75 3054.54 429.1 3055.42 433.49C3056.29 437.79 3057.52 441.94 3059.08 445.94C3060.74 449.95 3062.84 453.51 3065.38 456.64C3067.92 459.67 3070.99 462.11 3074.61 463.96C3078.32 465.72 3082.66 466.6 3087.64 466.6C3092.53 466.6 3096.87 465.52 3100.68 463.38C3104.59 461.13 3108 458.25 3110.93 454.73C3113.86 451.12 3116.35 447.02 3118.4 442.43C3120.46 437.84 3122.12 433.15 3123.38 428.37C3124.75 423.48 3125.73 418.75 3126.31 414.16C3127 409.47 3127.34 405.27 3127.34 401.56V316.75H3176.85V485.93H3157.81L3135.1 446.53C3132.27 453.07 3128.8 459.03 3124.7 464.4C3120.7 469.67 3116.11 474.22 3110.93 478.02C3105.76 481.83 3100 484.76 3093.65 486.81C3087.4 488.86 3080.61 489.89 3073.29 489.89C3061.57 489.89 3051.36 487.99 3042.67 484.18C3033.98 480.37 3026.75 475.09 3020.99 468.36C3015.23 461.62 3010.93 453.61 3008.1 444.33C3005.27 434.96 3003.85 424.7 3003.85 413.57Z" fill="white"/>
<path d="M3379.52 485.93H3330.01V465.72C3324.15 473.73 3317.07 479.68 3308.77 483.59C3300.57 487.4 3291.53 489.3 3281.67 489.3C3268.78 489.3 3257.26 487.01 3247.1 482.42C3236.94 477.83 3228.35 471.58 3221.32 463.67C3214.29 455.66 3208.92 446.29 3205.21 435.54C3201.49 424.8 3199.64 413.28 3199.64 400.97C3199.64 388.67 3201.49 377.15 3205.21 366.4C3208.92 355.66 3214.29 346.33 3221.32 338.42C3228.35 330.42 3236.94 324.12 3247.1 319.53C3257.26 314.94 3268.78 312.64 3281.67 312.64C3288.21 312.64 3294.41 313.62 3300.27 315.57C3306.23 317.53 3311.65 320.31 3316.53 323.92C3321.51 327.44 3325.86 331.74 3329.57 336.81C3333.38 341.79 3336.36 347.36 3338.51 353.51L3360.48 316.75H3379.52V485.93ZM3329.72 400.97C3329.72 396.58 3329.47 391.94 3328.98 387.06C3328.59 382.17 3327.86 377.34 3326.79 372.56C3325.71 367.77 3324.2 363.23 3322.25 358.93C3320.39 354.54 3317.95 350.68 3314.92 347.36C3311.99 343.94 3308.43 341.26 3304.23 339.3C3300.03 337.35 3295.15 336.37 3289.58 336.37C3284.01 336.37 3279.18 337.4 3275.08 339.45C3270.98 341.4 3267.46 344.09 3264.53 347.51C3261.6 350.83 3259.16 354.68 3257.21 359.08C3255.35 363.47 3253.89 368.06 3252.81 372.85C3251.74 377.63 3250.96 382.47 3250.47 387.35C3250.08 392.14 3249.88 396.68 3249.88 400.97C3249.88 405.27 3250.08 409.86 3250.47 414.74C3250.96 419.63 3251.74 424.46 3252.81 429.25C3253.89 434.03 3255.35 438.62 3257.21 443.01C3259.16 447.41 3261.6 451.32 3264.53 454.73C3267.46 458.05 3270.98 460.74 3275.08 462.79C3279.18 464.74 3284.01 465.72 3289.58 465.72C3294.66 465.72 3299.15 464.69 3303.06 462.64C3307.06 460.5 3310.53 457.66 3313.46 454.15C3316.48 450.63 3319.02 446.63 3321.07 442.14C3323.12 437.64 3324.79 433 3326.05 428.22C3327.32 423.43 3328.25 418.7 3328.84 414.01C3329.42 409.23 3329.72 404.88 3329.72 400.97Z" fill="white"/>
<path d="M3555.82 331.69L3527.99 377.83C3526.82 373.92 3525.31 369.53 3523.45 364.65C3521.6 359.76 3519.3 355.22 3516.57 351.02C3513.83 346.73 3510.56 343.16 3506.75 340.33C3502.94 337.4 3498.55 335.93 3493.57 335.93C3488.98 335.93 3484.97 337.11 3481.56 339.45C3478.24 341.79 3475.4 344.87 3473.06 348.68C3470.72 352.39 3468.76 356.64 3467.2 361.42C3465.74 366.11 3464.56 370.9 3463.69 375.78C3462.9 380.56 3462.37 385.2 3462.07 389.69C3461.78 394.09 3461.63 397.9 3461.63 401.12V485.93H3411.98V316.75H3431.02L3451.09 356.15C3453.82 349.8 3456.95 343.99 3460.46 338.72C3463.98 333.35 3468.03 328.76 3472.62 324.95C3477.21 321.04 3482.39 318.01 3488.15 315.87C3494.01 313.72 3500.6 312.64 3507.92 312.64C3511.73 312.64 3515.98 312.99 3520.67 313.67C3525.36 314.25 3529.95 315.33 3534.44 316.89C3538.93 318.36 3543.08 320.31 3546.89 322.75C3550.7 325.19 3553.68 328.17 3555.82 331.69Z" fill="white"/>
<path d="M3619.63 275.876C3619.63 279.587 3618.89 283.103 3617.43 286.423C3616.06 289.743 3614.16 292.624 3611.72 295.07C3609.28 297.51 3606.39 299.46 3603.07 300.92C3599.75 302.29 3596.24 302.98 3592.53 302.98C3588.82 302.98 3585.3 302.29 3581.98 300.92C3578.76 299.46 3575.93 297.51 3573.48 295.07C3571.04 292.624 3569.09 289.743 3567.62 286.423C3566.26 283.103 3565.57 279.587 3565.57 275.876C3565.57 272.165 3566.26 268.698 3567.62 265.476C3569.09 262.155 3571.04 259.274 3573.48 256.833C3575.93 254.392 3578.76 252.487 3581.98 251.12C3585.3 249.655 3588.82 248.923 3592.53 248.923C3596.24 248.923 3599.75 249.655 3603.07 251.12C3606.39 252.487 3609.28 254.392 3611.72 256.833C3614.16 259.274 3616.06 262.155 3617.43 265.476C3618.89 268.698 3619.63 272.165 3619.63 275.876ZM3617.43 485.93H3567.77V316.89H3617.43V485.93Z" fill="white"/>
<path d="M3690.75 405.66C3696.81 407.03 3702.86 408.1 3708.92 408.88C3714.97 409.67 3721.08 410.06 3727.23 410.06C3733.67 410.06 3739.63 409.47 3745.1 408.3C3750.67 407.03 3755.45 404.98 3759.46 402.15C3763.56 399.22 3766.78 395.36 3769.12 390.57C3771.47 385.79 3772.64 379.83 3772.64 372.7C3772.64 366.94 3771.86 361.67 3770.29 356.88C3768.73 352.1 3766.39 348 3763.26 344.58C3760.24 341.16 3756.48 338.52 3751.98 336.67C3747.49 334.71 3742.27 333.74 3736.31 333.74C3730.74 333.74 3725.71 334.76 3721.22 336.81C3716.83 338.86 3712.92 341.65 3709.5 345.16C3706.18 348.58 3703.3 352.58 3700.86 357.17C3698.52 361.76 3696.56 366.55 3695 371.53C3693.44 376.51 3692.32 381.54 3691.63 386.62C3690.95 391.7 3690.61 396.48 3690.61 400.97C3690.61 401.75 3690.61 402.54 3690.61 403.32C3690.61 404.1 3690.66 404.88 3690.75 405.66ZM3812.78 372.26C3812.78 379.2 3811.65 385.4 3809.41 390.87C3807.16 396.24 3804.08 400.97 3800.18 405.08C3796.37 409.18 3791.93 412.64 3786.85 415.48C3781.77 418.31 3776.35 420.65 3770.59 422.51C3764.83 424.26 3758.87 425.53 3752.72 426.32C3746.66 427.1 3740.75 427.49 3734.99 427.49C3727.67 427.49 3720.44 427 3713.31 426.02C3706.18 424.95 3699.15 423.29 3692.22 421.04C3693.29 427.49 3695 433.64 3697.35 439.5C3699.69 445.26 3702.81 450.34 3706.72 454.73C3710.63 459.03 3715.41 462.45 3721.08 464.99C3726.84 467.53 3733.62 468.8 3741.44 468.8C3746.61 468.8 3751.54 468.01 3756.23 466.45C3760.92 464.89 3765.22 462.69 3769.12 459.86C3773.03 457.03 3776.45 453.66 3779.38 449.75C3782.4 445.85 3784.85 441.5 3786.7 436.72L3808.09 444.63C3804.87 452.34 3800.42 459.03 3794.76 464.69C3789.19 470.26 3782.84 474.9 3775.71 478.61C3768.68 482.22 3761.16 484.91 3753.16 486.67C3745.25 488.42 3737.38 489.3 3729.57 489.3C3716.68 489.3 3704.77 487.16 3693.83 482.86C3682.89 478.46 3673.47 472.36 3665.56 464.55C3657.65 456.74 3651.45 447.41 3646.96 436.57C3642.46 425.73 3640.22 413.86 3640.22 400.97C3640.22 388.08 3642.46 376.22 3646.96 365.38C3651.45 354.54 3657.65 345.21 3665.56 337.4C3673.47 329.59 3682.89 323.53 3693.83 319.24C3704.77 314.84 3716.68 312.64 3729.57 312.64C3735.82 312.64 3742.22 313.08 3748.76 313.96C3755.3 314.84 3761.65 316.26 3767.8 318.21C3773.96 320.07 3779.77 322.51 3785.24 325.53C3790.71 328.56 3795.44 332.32 3799.45 336.81C3803.55 341.21 3806.77 346.33 3809.11 352.19C3811.55 358.05 3812.78 364.74 3812.78 372.26Z" fill="white"/>
<path d="M1455.43 667.29L1430.38 677.839C1428.42 671.489 1425.79 665.68 1422.47 660.41C1419.24 655.13 1415.34 650.64 1410.75 646.93C1406.26 643.12 1401.13 640.19 1395.37 638.14C1389.61 635.99 1383.31 634.92 1376.47 634.92C1369.15 634.92 1362.41 636.139 1356.26 638.579C1350.2 640.919 1344.73 644.2 1339.85 648.4C1335.06 652.59 1330.87 657.48 1327.25 663.04C1323.64 668.61 1320.61 674.57 1318.17 680.92C1315.73 687.17 1313.92 693.66 1312.75 700.4C1311.58 707.14 1310.99 713.73 1310.99 720.17C1310.99 730.43 1312.16 740.63 1314.51 750.79C1316.95 760.94 1320.76 770.08 1325.93 778.18C1331.21 786.29 1337.99 792.879 1346.29 797.959C1354.6 802.939 1364.65 805.43 1376.47 805.43C1382.72 805.43 1388.63 804.399 1394.2 802.349C1399.76 800.199 1404.79 797.319 1409.28 793.709C1413.87 789.999 1417.88 785.65 1421.29 780.67C1424.71 775.69 1427.45 770.32 1429.5 764.56L1454.84 774.67C1451.13 783.94 1446.05 792.1 1439.61 799.13C1433.16 806.06 1425.79 811.82 1417.49 816.41C1409.28 821 1400.45 824.42 1390.97 826.67C1381.6 829.01 1372.12 830.18 1362.55 830.18C1352.2 830.18 1342.24 828.91 1332.67 826.37C1323.2 823.83 1314.36 820.22 1306.16 815.53C1297.96 810.85 1290.48 805.18 1283.75 798.54C1277.11 791.9 1271.39 784.53 1266.61 776.42C1261.92 768.32 1258.26 759.53 1255.62 750.06C1253.08 740.49 1251.81 730.52 1251.81 720.17C1251.81 709.82 1253.08 699.909 1255.62 690.439C1258.26 680.869 1261.92 672.03 1266.61 663.92C1271.39 655.72 1277.11 648.3 1283.75 641.66C1290.48 635.02 1297.96 629.35 1306.16 624.67C1314.36 619.98 1323.2 616.359 1332.67 613.829C1342.24 611.289 1352.2 610.02 1362.55 610.02C1372.52 610.02 1382.23 611.19 1391.71 613.53C1401.28 615.88 1410.16 619.439 1418.37 624.229C1426.57 628.909 1433.84 634.869 1440.19 642.099C1446.64 649.229 1451.71 657.62 1455.43 667.29Z" fill="white"/>
<path d="M1647.55 825.93H1598.04V805.72C1592.18 813.73 1585.1 819.68 1576.8 823.59C1568.59 827.4 1559.56 829.3 1549.7 829.3C1536.81 829.3 1525.28 827.01 1515.13 822.42C1504.97 817.83 1496.38 811.58 1489.35 803.67C1482.31 795.66 1476.94 786.29 1473.23 775.54C1469.52 764.8 1467.67 753.28 1467.67 740.97C1467.67 728.67 1469.52 717.15 1473.23 706.4C1476.94 695.66 1482.31 686.33 1489.35 678.42C1496.38 670.42 1504.97 664.12 1515.13 659.53C1525.28 654.94 1536.81 652.64 1549.7 652.64C1556.24 652.64 1562.44 653.62 1568.3 655.57C1574.26 657.53 1579.68 660.31 1584.56 663.92C1589.54 667.44 1593.89 671.74 1597.6 676.81C1601.41 681.79 1604.38 687.36 1606.53 693.51L1628.51 656.75H1647.55V825.93ZM1597.74 740.97C1597.74 736.58 1597.5 731.94 1597.01 727.06C1596.62 722.17 1595.89 717.34 1594.81 712.56C1593.74 707.77 1592.23 703.23 1590.27 698.93C1588.42 694.54 1585.98 690.68 1582.95 687.36C1580.02 683.94 1576.46 681.26 1572.26 679.3C1568.06 677.35 1563.17 676.37 1557.61 676.37C1552.04 676.37 1547.21 677.4 1543.11 679.45C1539 681.4 1535.49 684.09 1532.56 687.51C1529.63 690.83 1527.19 694.68 1525.23 699.08C1523.38 703.47 1521.91 708.06 1520.84 712.85C1519.77 717.63 1518.98 722.47 1518.5 727.35C1518.11 732.14 1517.91 736.68 1517.91 740.97C1517.91 745.27 1518.11 749.86 1518.5 754.74C1518.98 759.63 1519.77 764.46 1520.84 769.25C1521.91 774.03 1523.38 778.62 1525.23 783.01C1527.19 787.41 1529.63 791.32 1532.56 794.73C1535.49 798.05 1539 800.74 1543.11 802.79C1547.21 804.74 1552.04 805.72 1557.61 805.72C1562.69 805.72 1567.18 804.69 1571.08 802.64C1575.09 800.5 1578.55 797.66 1581.48 794.15C1584.51 790.63 1587.05 786.63 1589.1 782.14C1591.15 777.64 1592.81 773 1594.08 768.22C1595.35 763.43 1596.28 758.7 1596.87 754.01C1597.45 749.23 1597.74 744.88 1597.74 740.97Z" fill="white"/>
<path d="M1859.89 740.97C1859.89 753.28 1858.03 764.8 1854.32 775.54C1850.61 786.29 1845.24 795.66 1838.21 803.67C1831.18 811.58 1822.58 817.83 1812.43 822.42C1802.27 827.01 1790.75 829.3 1777.86 829.3C1767.99 829.3 1758.91 827.4 1750.61 823.59C1742.41 819.68 1735.38 813.73 1729.52 805.72V904.01H1680V656.75H1699.05L1721.02 693.51C1723.17 687.36 1726.1 681.79 1729.81 676.81C1733.62 671.74 1737.96 667.44 1742.85 663.92C1747.83 660.31 1753.25 657.53 1759.11 655.57C1765.06 653.62 1771.31 652.64 1777.86 652.64C1790.75 652.64 1802.27 654.94 1812.43 659.53C1822.58 664.12 1831.18 670.42 1838.21 678.42C1845.24 686.33 1850.61 695.66 1854.32 706.4C1858.03 717.15 1859.89 728.67 1859.89 740.97ZM1809.64 740.97C1809.64 736.68 1809.4 732.14 1808.91 727.35C1808.52 722.47 1807.79 717.63 1806.71 712.85C1805.64 708.06 1804.12 703.47 1802.17 699.08C1800.32 694.68 1797.92 690.83 1794.99 687.51C1792.06 684.09 1788.5 681.4 1784.3 679.45C1780.2 677.4 1775.41 676.37 1769.95 676.37C1764.28 676.37 1759.35 677.35 1755.15 679.3C1751.05 681.26 1747.48 683.94 1744.46 687.36C1741.53 690.68 1739.09 694.54 1737.13 698.93C1735.28 703.23 1733.81 707.77 1732.74 712.56C1731.66 717.34 1730.88 722.17 1730.39 727.06C1730 731.94 1729.81 736.58 1729.81 740.97C1729.81 744.88 1730.1 749.23 1730.69 754.01C1731.27 758.7 1732.2 763.43 1733.47 768.22C1734.74 773 1736.4 777.64 1738.45 782.14C1740.5 786.63 1742.99 790.63 1745.92 794.15C1748.95 797.66 1752.42 800.5 1756.32 802.64C1760.33 804.69 1764.87 805.72 1769.95 805.72C1775.51 805.72 1780.35 804.74 1784.45 802.79C1788.55 800.74 1792.06 798.05 1794.99 794.73C1797.92 791.32 1800.32 787.41 1802.17 783.01C1804.12 778.62 1805.64 774.03 1806.71 769.25C1807.79 764.46 1808.52 759.63 1808.91 754.74C1809.4 749.86 1809.64 745.27 1809.64 740.97Z" fill="white"/>
<path d="M1934.82 615.88C1934.82 619.59 1934.09 623.1 1932.62 626.42C1931.26 629.74 1929.35 632.62 1926.91 635.07C1924.47 637.51 1921.59 639.46 1918.27 640.92C1914.95 642.29 1911.43 642.98 1907.72 642.98C1904.01 642.98 1900.5 642.29 1897.18 640.92C1893.95 639.46 1891.12 637.51 1888.68 635.07C1886.24 632.62 1884.29 629.74 1882.82 626.42C1881.45 623.1 1880.77 619.59 1880.77 615.88C1880.77 612.17 1881.45 608.7 1882.82 605.48C1884.29 602.16 1886.24 599.27 1888.68 596.83C1891.12 594.39 1893.95 592.49 1897.18 591.12C1900.5 589.66 1904.01 588.92 1907.72 588.92C1911.43 588.92 1914.95 589.66 1918.27 591.12C1921.59 592.49 1924.47 594.39 1926.91 596.83C1929.35 599.27 1931.26 602.16 1932.62 605.48C1934.09 608.7 1934.82 612.17 1934.82 615.88ZM1932.62 825.93H1882.97V656.89H1932.62V825.93Z" fill="white"/>
<path d="M2028.95 825.93H1979.29V676.37H1948.53V656.75H1979.29V594.49H2028.95V656.75H2080.22V676.37H2028.95V825.93Z" fill="white"/>
<path d="M2259.01 825.93H2209.5V805.72C2203.64 813.73 2196.56 819.68 2188.26 823.59C2180.05 827.4 2171.02 829.3 2161.16 829.3C2148.27 829.3 2136.74 827.01 2126.59 822.42C2116.43 817.83 2107.84 811.58 2100.81 803.67C2093.78 795.66 2088.4 786.29 2084.69 775.54C2080.98 764.8 2079.13 753.28 2079.13 740.97C2079.13 728.67 2080.98 717.15 2084.69 706.4C2088.4 695.66 2093.78 686.33 2100.81 678.42C2107.84 670.42 2116.43 664.12 2126.59 659.53C2136.74 654.94 2148.27 652.64 2161.16 652.64C2167.7 652.64 2173.9 653.62 2179.76 655.57C2185.72 657.53 2191.14 660.31 2196.02 663.92C2201 667.44 2205.35 671.74 2209.06 676.81C2212.87 681.79 2215.85 687.36 2217.99 693.51L2239.97 656.75H2259.01V825.93ZM2209.21 740.97C2209.21 736.58 2208.96 731.94 2208.47 727.06C2208.08 722.17 2207.35 717.34 2206.28 712.56C2205.2 707.77 2203.69 703.23 2201.73 698.93C2199.88 694.54 2197.44 690.68 2194.41 687.36C2191.48 683.94 2187.92 681.26 2183.72 679.3C2179.52 677.35 2174.63 676.37 2169.07 676.37C2163.5 676.37 2158.67 677.4 2154.57 679.45C2150.46 681.4 2146.95 684.09 2144.02 687.51C2141.09 690.83 2138.65 694.68 2136.7 699.08C2134.84 703.47 2133.38 708.06 2132.3 712.85C2131.23 717.63 2130.45 722.47 2129.96 727.35C2129.57 732.14 2129.37 736.68 2129.37 740.97C2129.37 745.27 2129.57 749.86 2129.96 754.74C2130.45 759.63 2131.23 764.46 2132.3 769.25C2133.38 774.03 2134.84 778.62 2136.7 783.01C2138.65 787.41 2141.09 791.32 2144.02 794.73C2146.95 798.05 2150.46 800.74 2154.57 802.79C2158.67 804.74 2163.5 805.72 2169.07 805.72C2174.15 805.72 2178.64 804.69 2182.54 802.64C2186.55 800.5 2190.02 797.66 2192.95 794.15C2195.97 790.63 2198.51 786.63 2200.56 782.14C2202.61 777.64 2204.27 773 2205.54 768.22C2206.81 763.43 2207.74 758.7 2208.33 754.01C2208.91 749.23 2209.21 744.88 2209.21 740.97Z" fill="white"/>
<path d="M2340.98 825.93H2291.46V578.82H2310.51L2340.98 630.23V825.93Z" fill="white"/>
<path fill-rule="evenodd" clip-rule="evenodd" d="M24.969 519.94L0 544.91L24.969 569.88L152.564 697.48V597.6L99.874 544.91L152.564 492.22V392.35L24.969 519.94ZM237.31 307.6L307.627 237.285H407.501L237.31 407.48V307.6ZM237.31 682.35V782.22L307.627 852.54H407.501L237.31 682.35ZM492.247 937.28L544.912 989.95L597.577 937.28H697.45L569.88 1064.85L544.912 1089.82L519.943 1064.85L392.373 937.28H492.247ZM782.2 852.54H682.32L852.56 682.3V782.17L782.2 852.54ZM937.31 697.43L1064.85 569.88L1089.82 544.91L1064.85 519.94L937.31 392.4V492.27L989.95 544.91L937.31 597.55V697.43ZM852.56 407.53V307.65L782.2 237.285H682.32L852.56 407.53ZM597.576 152.539H697.45L569.88 24.969L544.912 0L519.943 24.969L392.373 152.539H492.247L544.912 99.874L597.576 152.539Z" fill="white"/>
<path d="M894.938 194.912H194.938V894.912H894.938V194.912Z" stroke="white" stroke-width="35.3108"/>
<path d="M390.023 621.74H347.714V488.96H305.938V469.51H431.799V488.96H390.023V621.74Z" fill="white"/>
<path d="M467.987 508.2L456.051 621.74H429.941L456.051 469.51H494.736L530.651 585.69L566.992 469.51H605.678L627.419 621.74H584.364L571.682 511.16L541.735 621.74H503.049L467.987 508.2Z" fill="white"/>
<path d="M786.16 507.25L767.94 514.86C766.52 510.28 764.6 506.09 762.19 502.28C759.84 498.47 757 495.23 753.66 492.55C750.39 489.8 746.66 487.69 742.47 486.21C738.28 484.66 733.7 483.88 728.72 483.88C723.39 483.88 718.49 484.77 714.02 486.53C709.61 488.22 705.63 490.58 702.08 493.61C698.6 496.64 695.54 500.17 692.91 504.18C690.28 508.2 688.08 512.5 686.31 517.08C684.53 521.59 683.22 526.28 682.36 531.14C681.51 536 681.08 540.76 681.08 545.41C681.08 552.81 681.94 560.18 683.64 567.51C685.42 574.84 688.19 581.43 691.95 587.28C695.79 593.13 700.73 597.89 706.77 601.55C712.81 605.15 720.13 606.94 728.72 606.94C733.27 606.94 737.57 606.2 741.62 604.72C745.67 603.17 749.33 601.09 752.59 598.49C755.93 595.81 758.85 592.67 761.33 589.08C763.82 585.48 765.81 581.61 767.3 577.45L785.74 584.74C783.04 591.44 779.34 597.32 774.65 602.4C769.97 607.4 764.6 611.56 758.56 614.87C752.59 618.19 746.16 620.65 739.27 622.27C732.45 623.96 725.56 624.81 718.6 624.81C711.07 624.81 703.82 623.89 696.86 622.06C689.97 620.23 683.54 617.62 677.57 614.24C671.6 610.86 666.16 606.77 661.26 601.97C656.43 597.18 652.274 591.86 648.793 586.01C645.383 580.16 642.718 573.82 640.8 566.98C638.953 560.07 638.029 552.88 638.029 545.41C638.029 537.94 638.953 530.79 640.8 523.95C642.718 517.05 645.383 510.67 648.793 504.82C652.274 498.9 656.43 493.54 661.26 488.75C666.16 483.95 671.6 479.87 677.57 476.48C683.54 473.1 689.97 470.49 696.86 468.66C703.82 466.83 711.07 465.91 718.6 465.91C725.84 465.91 732.91 466.76 739.81 468.45C746.77 470.14 753.23 472.71 759.2 476.17C765.17 479.55 770.46 483.85 775.08 489.06C779.77 494.21 783.46 500.27 786.16 507.25Z" fill="white"/>
</svg>
