<svg width="4500" height="2500" viewBox="0 0 4500 2500" fill="none" xmlns="http://www.w3.org/2000/svg">
<path d="M1705.38 1190.93H1647.23V1006.95H1589.81V979.997H1762.8V1006.95H1705.38V1190.93Z" fill="white"/>
<path d="M1909.37 1036.69L1881.54 1082.83C1880.37 1078.92 1878.85 1074.53 1877 1069.65C1875.14 1064.76 1872.85 1060.22 1870.11 1056.02C1867.38 1051.73 1864.11 1048.16 1860.3 1045.33C1856.49 1042.4 1852.1 1040.93 1847.12 1040.93C1842.53 1040.93 1838.52 1042.11 1835.1 1044.45C1831.78 1046.79 1828.95 1049.87 1826.61 1053.68C1824.26 1057.39 1822.31 1061.64 1820.75 1066.42C1819.28 1071.11 1818.11 1075.9 1817.23 1080.78C1816.45 1085.56 1815.91 1090.2 1815.62 1094.69C1815.33 1099.09 1815.18 1102.9 1815.18 1106.12V1190.93H1765.52V1021.75H1784.57L1804.63 1061.15C1807.37 1054.8 1810.49 1048.99 1814.01 1043.72C1817.53 1038.35 1821.58 1033.76 1826.17 1029.95C1830.76 1026.04 1835.93 1023.01 1841.7 1020.87C1847.55 1018.72 1854.15 1017.64 1861.47 1017.64C1865.28 1017.64 1869.53 1017.99 1874.21 1018.67C1878.9 1019.25 1883.49 1020.33 1887.98 1021.89C1892.48 1023.36 1896.63 1025.31 1900.44 1027.75C1904.24 1030.19 1907.22 1033.17 1909.37 1036.69Z" fill="white"/>
<path d="M1909.31 1118.57C1909.31 1110.86 1909.94 1102.85 1911.21 1094.55C1912.58 1086.25 1914.48 1077.95 1916.92 1069.65C1919.46 1061.34 1922.49 1053.14 1926.01 1045.04C1929.52 1036.93 1933.48 1029.17 1937.87 1021.75H1974.05C1971.61 1029.07 1969.41 1036.74 1967.46 1044.74C1965.61 1052.65 1963.99 1060.61 1962.63 1068.62C1961.36 1076.53 1960.33 1084.29 1959.55 1091.91C1958.87 1099.53 1958.53 1106.61 1958.53 1113.15C1958.53 1116.96 1958.67 1121.06 1958.96 1125.46C1959.36 1129.75 1959.99 1134.1 1960.87 1138.49C1961.75 1142.79 1962.97 1146.94 1964.53 1150.94C1966.19 1154.95 1968.29 1158.51 1970.83 1161.64C1973.37 1164.67 1976.45 1167.11 1980.06 1168.96C1983.77 1170.72 1988.12 1171.6 1993.1 1171.6C1997.98 1171.6 2002.32 1170.52 2006.13 1168.38C2010.04 1166.13 2013.46 1163.25 2016.39 1159.73C2019.32 1156.12 2021.81 1152.02 2023.86 1147.43C2025.91 1142.84 2027.57 1138.15 2028.84 1133.37C2030.21 1128.48 2031.18 1123.75 2031.77 1119.16C2032.45 1114.47 2032.79 1110.27 2032.79 1106.56V1021.75H2082.3V1190.93H2063.26L2040.56 1151.53C2037.72 1158.07 2034.26 1164.03 2030.16 1169.4C2026.15 1174.67 2021.56 1179.22 2016.39 1183.02C2011.21 1186.83 2005.45 1189.76 1999.1 1191.81C1992.85 1193.86 1986.06 1194.89 1978.74 1194.89C1967.02 1194.89 1956.82 1192.99 1948.12 1189.18C1939.43 1185.37 1932.21 1180.09 1926.45 1173.36C1920.68 1166.62 1916.39 1158.61 1913.55 1149.33C1910.72 1139.96 1909.31 1129.7 1909.31 1118.57Z" fill="white"/>
<path d="M2260.22 1136.88C2260.22 1144.3 2259.14 1150.9 2257 1156.66C2254.85 1162.42 2251.92 1167.45 2248.21 1171.75C2244.5 1175.94 2240.1 1179.51 2235.02 1182.44C2229.95 1185.27 2224.48 1187.57 2218.62 1189.32C2212.86 1191.08 2206.8 1192.35 2200.45 1193.13C2194.11 1193.91 2187.81 1194.3 2181.56 1194.3C2173.16 1194.3 2165.74 1193.77 2159.29 1192.69C2152.85 1191.62 2146.69 1189.91 2140.83 1187.57C2134.97 1185.12 2129.12 1182 2123.26 1178.19C2117.49 1174.38 2111.05 1169.74 2103.92 1164.27L2132.78 1140.69C2135.41 1145.67 2138.88 1150.21 2143.18 1154.31C2147.57 1158.32 2152.11 1161.78 2156.8 1164.71C2161.49 1167.64 2166.03 1169.89 2170.42 1171.45C2174.82 1173.01 2178.38 1173.8 2181.12 1173.8C2183.36 1173.8 2185.9 1173.75 2188.73 1173.65C2191.57 1173.45 2194.45 1173.16 2197.38 1172.77C2200.31 1172.28 2203.19 1171.6 2206.02 1170.72C2208.85 1169.84 2211.34 1168.67 2213.49 1167.2C2215.74 1165.64 2217.49 1163.74 2218.76 1161.49C2220.13 1159.15 2220.81 1156.36 2220.81 1153.14C2220.81 1149.82 2219.94 1146.94 2218.18 1144.5C2216.52 1141.96 2214.32 1139.76 2211.59 1137.91C2208.85 1136.05 2205.73 1134.49 2202.21 1133.22C2198.7 1131.95 2195.13 1130.83 2191.52 1129.85C2188 1128.87 2184.58 1128.04 2181.26 1127.36C2177.94 1126.58 2175.06 1125.85 2172.62 1125.16C2168.13 1123.89 2163.39 1122.62 2158.41 1121.35C2153.43 1119.99 2148.5 1118.47 2143.62 1116.81C2138.73 1115.06 2134.05 1113 2129.55 1110.66C2125.16 1108.32 2121.25 1105.53 2117.84 1102.31C2114.52 1098.99 2111.83 1095.13 2109.78 1090.74C2107.83 1086.25 2106.85 1081.02 2106.85 1075.07C2106.85 1064.13 2109 1055 2113.29 1047.67C2117.69 1040.25 2123.45 1034.34 2130.58 1029.95C2137.71 1025.46 2145.81 1022.28 2154.9 1020.43C2163.98 1018.57 2173.21 1017.64 2182.58 1017.64C2189.03 1017.64 2195.81 1018.33 2202.94 1019.69C2210.07 1020.96 2217.01 1022.92 2223.74 1025.55C2230.48 1028.09 2236.78 1031.22 2242.64 1034.93C2248.5 1038.64 2253.38 1042.89 2257.29 1047.67L2228.43 1071.4C2226.28 1065.54 2223.45 1060.51 2219.94 1056.32C2216.52 1052.12 2212.76 1048.7 2208.66 1046.06C2204.65 1043.33 2200.5 1041.33 2196.21 1040.06C2192.01 1038.79 2188.1 1038.15 2184.49 1038.15C2180.97 1038.15 2177.02 1038.3 2172.62 1038.59C2168.23 1038.88 2164.08 1039.71 2160.17 1041.08C2156.36 1042.45 2153.09 1044.55 2150.36 1047.38C2147.72 1050.11 2146.4 1053.92 2146.4 1058.81C2146.4 1062.32 2147.18 1065.35 2148.74 1067.89C2150.4 1070.33 2152.55 1072.48 2155.19 1074.33C2157.83 1076.09 2160.8 1077.6 2164.12 1078.87C2167.54 1080.05 2171.01 1081.12 2174.53 1082.1C2178.04 1082.98 2181.46 1083.76 2184.78 1084.44C2188.1 1085.12 2191.08 1085.86 2193.71 1086.64C2198.21 1087.91 2202.94 1089.23 2207.92 1090.59C2213 1091.86 2217.98 1093.38 2222.87 1095.13C2227.75 1096.79 2232.44 1098.8 2236.93 1101.14C2241.52 1103.39 2245.52 1106.17 2248.94 1109.49C2252.36 1112.81 2255.09 1116.72 2257.14 1121.21C2259.19 1125.6 2260.22 1130.83 2260.22 1136.88Z" fill="white"/>
<path d="M2346.29 1190.93H2296.63V1041.37H2265.87V1021.75H2296.63V959.489H2346.29V1021.75H2397.56V1041.37H2346.29V1190.93Z" fill="white"/>
<path d="M2532.78 1033.61L2516.37 1190.93H2480.48L2516.37 979.997H2569.55L2618.91 1140.98L2668.86 979.997H2722.04L2751.92 1190.93H2692.74L2675.31 1037.71L2634.15 1190.93H2580.97L2532.78 1033.61Z" fill="white"/>
<path d="M2944.78 1190.93H2895.26V1170.72C2889.4 1178.73 2882.32 1184.68 2874.02 1188.59C2865.82 1192.4 2856.79 1194.3 2846.92 1194.3C2834.03 1194.3 2822.51 1192.01 2812.35 1187.42C2802.2 1182.83 2793.6 1176.58 2786.57 1168.67C2779.54 1160.66 2774.17 1151.29 2770.46 1140.54C2766.75 1129.8 2764.89 1118.28 2764.89 1105.97C2764.89 1093.67 2766.75 1082.15 2770.46 1071.4C2774.17 1060.66 2779.54 1051.33 2786.57 1043.42C2793.6 1035.42 2802.2 1029.12 2812.35 1024.53C2822.51 1019.94 2834.03 1017.64 2846.92 1017.64C2853.47 1017.64 2859.67 1018.62 2865.53 1020.57C2871.48 1022.53 2876.9 1025.31 2881.79 1028.92C2886.77 1032.44 2891.11 1036.74 2894.82 1041.81C2898.63 1046.79 2901.61 1052.36 2903.76 1058.51L2925.73 1021.75H2944.78V1190.93ZM2894.97 1105.97C2894.97 1101.58 2894.73 1096.94 2894.24 1092.06C2893.85 1087.17 2893.12 1082.34 2892.04 1077.56C2890.97 1072.77 2889.45 1068.23 2887.5 1063.93C2885.64 1059.54 2883.2 1055.68 2880.18 1052.36C2877.25 1048.94 2873.68 1046.26 2869.48 1044.3C2865.28 1042.35 2860.4 1041.37 2854.83 1041.37C2849.27 1041.37 2844.43 1042.4 2840.33 1044.45C2836.23 1046.4 2832.71 1049.09 2829.79 1052.51C2826.86 1055.83 2824.41 1059.68 2822.46 1064.08C2820.61 1068.47 2819.14 1073.06 2818.07 1077.85C2816.99 1082.63 2816.21 1087.47 2815.72 1092.35C2815.33 1097.14 2815.14 1101.68 2815.14 1105.97C2815.14 1110.27 2815.33 1114.86 2815.72 1119.74C2816.21 1124.63 2816.99 1129.46 2818.07 1134.25C2819.14 1139.03 2820.61 1143.62 2822.46 1148.01C2824.41 1152.41 2826.86 1156.32 2829.79 1159.73C2832.71 1163.05 2836.23 1165.74 2840.33 1167.79C2844.43 1169.74 2849.27 1170.72 2854.83 1170.72C2859.91 1170.72 2864.4 1169.69 2868.31 1167.64C2872.31 1165.5 2875.78 1162.66 2878.71 1159.15C2881.74 1155.63 2884.28 1151.63 2886.33 1147.14C2888.38 1142.64 2890.04 1138 2891.31 1133.22C2892.58 1128.43 2893.51 1123.7 2894.09 1119.01C2894.68 1114.23 2894.97 1109.88 2894.97 1105.97Z" fill="white"/>
<path d="M3133.38 1063.64L3112 1072.14C3108.58 1061.39 3102.87 1053.14 3094.86 1047.38C3086.85 1041.62 3077.23 1038.74 3066 1038.74C3059.95 1038.74 3054.53 1039.71 3049.74 1041.67C3045.05 1043.52 3040.9 1046.11 3037.29 1049.43C3033.77 1052.75 3030.75 1056.61 3028.21 1061C3025.77 1065.4 3023.76 1070.08 3022.2 1075.07C3020.64 1080.05 3019.52 1085.22 3018.83 1090.59C3018.15 1095.87 3017.81 1100.99 3017.81 1105.97C3017.81 1111.34 3018.1 1116.76 3018.69 1122.23C3019.27 1127.7 3020.25 1132.98 3021.62 1138.05C3023.08 1143.03 3024.98 1147.72 3027.33 1152.12C3029.67 1156.41 3032.6 1160.17 3036.12 1163.4C3039.73 1166.62 3043.98 1169.16 3048.86 1171.01C3053.84 1172.87 3059.55 1173.8 3066 1173.8C3071.18 1173.8 3076.11 1173.01 3080.79 1171.45C3085.48 1169.89 3089.78 1167.69 3093.69 1164.86C3097.59 1162.03 3101.06 1158.66 3104.09 1154.75C3107.11 1150.85 3109.51 1146.5 3111.26 1141.72L3132.8 1149.63C3129.57 1157.34 3125.28 1164.03 3119.91 1169.69C3114.63 1175.26 3108.63 1179.9 3101.89 1183.61C3095.15 1187.22 3087.92 1189.91 3080.21 1191.67C3072.49 1193.42 3064.68 1194.3 3056.77 1194.3C3043.98 1194.3 3032.11 1192.16 3021.18 1187.86C3010.24 1183.46 3000.77 1177.36 2992.76 1169.55C2984.85 1161.64 2978.65 1152.31 2974.15 1141.57C2969.66 1130.73 2967.42 1118.86 2967.42 1105.97C2967.42 1092.99 2969.61 1081.07 2974.01 1070.23C2978.5 1059.39 2984.7 1050.07 2992.61 1042.25C3000.52 1034.44 3009.95 1028.39 3020.88 1024.09C3031.82 1019.79 3043.78 1017.64 3056.77 1017.64C3064.97 1017.64 3072.98 1018.57 3080.79 1020.43C3088.61 1022.18 3095.83 1024.97 3102.47 1028.78C3109.21 1032.49 3115.22 1037.22 3120.49 1042.99C3125.86 1048.75 3130.16 1055.63 3133.38 1063.64Z" fill="white"/>
<path d="M3324.04 1269.01H3274.53V1170.72C3268.67 1178.73 3261.59 1184.68 3253.29 1188.59C3245.09 1192.4 3236.05 1194.3 3226.19 1194.3C3213.3 1194.3 3201.78 1192.01 3191.62 1187.42C3181.46 1182.83 3172.87 1176.58 3165.84 1168.67C3158.81 1160.66 3153.44 1151.29 3149.72 1140.54C3146.01 1129.8 3144.16 1118.28 3144.16 1105.97C3144.16 1093.67 3146.01 1082.15 3149.72 1071.4C3153.44 1060.66 3158.81 1051.33 3165.84 1043.42C3172.87 1035.42 3181.46 1029.12 3191.62 1024.53C3201.78 1019.94 3213.3 1017.64 3226.19 1017.64C3232.73 1017.64 3238.93 1018.62 3244.79 1020.57C3250.75 1022.53 3256.17 1025.31 3261.05 1028.92C3266.03 1032.44 3270.38 1036.74 3274.09 1041.81C3277.9 1046.79 3280.88 1052.36 3283.03 1058.51L3305 1021.75H3324.04V1269.01ZM3274.24 1105.97C3274.24 1101.58 3273.99 1096.94 3273.5 1092.06C3273.11 1087.17 3272.38 1082.34 3271.31 1077.56C3270.23 1072.77 3268.72 1068.23 3266.77 1063.93C3264.91 1059.54 3262.47 1055.68 3259.44 1052.36C3256.51 1048.94 3252.95 1046.26 3248.75 1044.3C3244.55 1042.35 3239.67 1041.37 3234.1 1041.37C3228.53 1041.37 3223.7 1042.4 3219.6 1044.45C3215.5 1046.4 3211.98 1049.09 3209.05 1052.51C3206.12 1055.83 3203.68 1059.68 3201.73 1064.08C3199.87 1068.47 3198.41 1073.06 3197.33 1077.85C3196.26 1082.63 3195.48 1087.47 3194.99 1092.35C3194.6 1097.14 3194.4 1101.68 3194.4 1105.97C3194.4 1110.27 3194.6 1114.86 3194.99 1119.74C3195.48 1124.63 3196.26 1129.46 3197.33 1134.25C3198.41 1139.03 3199.87 1143.62 3201.73 1148.01C3203.68 1152.41 3206.12 1156.32 3209.05 1159.73C3211.98 1163.05 3215.5 1165.74 3219.6 1167.79C3223.7 1169.74 3228.53 1170.72 3234.1 1170.72C3239.18 1170.72 3243.67 1169.69 3247.58 1167.64C3251.58 1165.5 3255.05 1162.66 3257.98 1159.15C3261 1155.63 3263.54 1151.63 3265.59 1147.14C3267.64 1142.64 3269.3 1138 3270.57 1133.22C3271.84 1128.43 3272.77 1123.7 3273.36 1119.01C3273.94 1114.23 3274.24 1109.88 3274.24 1105.97Z" fill="white"/>
<path d="M3347.85 1118.57C3347.85 1110.86 3348.49 1102.85 3349.76 1094.55C3351.12 1086.25 3353.03 1077.95 3355.47 1069.65C3358.01 1061.34 3361.04 1053.14 3364.55 1045.04C3368.07 1036.93 3372.02 1029.17 3376.42 1021.75H3412.6C3410.16 1029.07 3407.96 1036.74 3406.01 1044.74C3404.15 1052.65 3402.54 1060.61 3401.17 1068.62C3399.9 1076.53 3398.88 1084.29 3398.1 1091.91C3397.41 1099.53 3397.07 1106.61 3397.07 1113.15C3397.07 1116.96 3397.22 1121.06 3397.51 1125.46C3397.9 1129.75 3398.54 1134.1 3399.42 1138.49C3400.29 1142.79 3401.52 1146.94 3403.08 1150.94C3404.74 1154.95 3406.84 1158.51 3409.38 1161.64C3411.92 1164.67 3414.99 1167.11 3418.61 1168.96C3422.32 1170.72 3426.66 1171.6 3431.64 1171.6C3436.53 1171.6 3440.87 1170.52 3444.68 1168.38C3448.59 1166.13 3452 1163.25 3454.93 1159.73C3457.86 1156.12 3460.35 1152.02 3462.4 1147.43C3464.46 1142.84 3466.12 1138.15 3467.38 1133.37C3468.75 1128.48 3469.73 1123.75 3470.31 1119.16C3471 1114.47 3471.34 1110.27 3471.34 1106.56V1021.75H3520.85V1190.93H3501.81L3479.1 1151.53C3476.27 1158.07 3472.8 1164.03 3468.7 1169.4C3464.7 1174.67 3460.11 1179.22 3454.93 1183.02C3449.76 1186.83 3444 1189.76 3437.65 1191.81C3431.4 1193.86 3424.61 1194.89 3417.29 1194.89C3405.57 1194.89 3395.36 1192.99 3386.67 1189.18C3377.98 1185.37 3370.75 1180.09 3364.99 1173.36C3359.23 1166.62 3354.93 1158.61 3352.1 1149.33C3349.27 1139.96 3347.85 1129.7 3347.85 1118.57Z" fill="white"/>
<path d="M3723.52 1190.93H3674.01V1170.72C3668.15 1178.73 3661.07 1184.68 3652.77 1188.59C3644.57 1192.4 3635.53 1194.3 3625.67 1194.3C3612.78 1194.3 3601.26 1192.01 3591.1 1187.42C3580.94 1182.83 3572.35 1176.58 3565.32 1168.67C3558.29 1160.66 3552.92 1151.29 3549.21 1140.54C3545.49 1129.8 3543.64 1118.28 3543.64 1105.97C3543.64 1093.67 3545.49 1082.15 3549.21 1071.4C3552.92 1060.66 3558.29 1051.33 3565.32 1043.42C3572.35 1035.42 3580.94 1029.12 3591.1 1024.53C3601.26 1019.94 3612.78 1017.64 3625.67 1017.64C3632.21 1017.64 3638.41 1018.62 3644.27 1020.57C3650.23 1022.53 3655.65 1025.31 3660.53 1028.92C3665.51 1032.44 3669.86 1036.74 3673.57 1041.81C3677.38 1046.79 3680.36 1052.36 3682.51 1058.51L3704.48 1021.75H3723.52V1190.93ZM3673.72 1105.97C3673.72 1101.58 3673.47 1096.94 3672.98 1092.06C3672.59 1087.17 3671.86 1082.34 3670.79 1077.56C3669.71 1072.77 3668.2 1068.23 3666.25 1063.93C3664.39 1059.54 3661.95 1055.68 3658.92 1052.36C3655.99 1048.94 3652.43 1046.26 3648.23 1044.3C3644.03 1042.35 3639.15 1041.37 3633.58 1041.37C3628.01 1041.37 3623.18 1042.4 3619.08 1044.45C3614.98 1046.4 3611.46 1049.09 3608.53 1052.51C3605.6 1055.83 3603.16 1059.68 3601.21 1064.08C3599.35 1068.47 3597.89 1073.06 3596.81 1077.85C3595.74 1082.63 3594.96 1087.47 3594.47 1092.35C3594.08 1097.14 3593.88 1101.68 3593.88 1105.97C3593.88 1110.27 3594.08 1114.86 3594.47 1119.74C3594.96 1124.63 3595.74 1129.46 3596.81 1134.25C3597.89 1139.03 3599.35 1143.62 3601.21 1148.01C3603.16 1152.41 3605.6 1156.32 3608.53 1159.73C3611.46 1163.05 3614.98 1165.74 3619.08 1167.79C3623.18 1169.74 3628.01 1170.72 3633.58 1170.72C3638.66 1170.72 3643.15 1169.69 3647.06 1167.64C3651.06 1165.5 3654.53 1162.66 3657.46 1159.15C3660.48 1155.63 3663.02 1151.63 3665.07 1147.14C3667.12 1142.64 3668.79 1138 3670.05 1133.22C3671.32 1128.43 3672.25 1123.7 3672.84 1119.01C3673.42 1114.23 3673.72 1109.88 3673.72 1105.97Z" fill="white"/>
<path d="M3899.82 1036.69L3871.99 1082.83C3870.82 1078.92 3869.31 1074.53 3867.45 1069.65C3865.6 1064.76 3863.3 1060.22 3860.57 1056.02C3857.83 1051.73 3854.56 1048.16 3850.75 1045.33C3846.94 1042.4 3842.55 1040.93 3837.57 1040.93C3832.98 1040.93 3828.97 1042.11 3825.56 1044.45C3822.24 1046.79 3819.4 1049.87 3817.06 1053.68C3814.72 1057.39 3812.76 1061.64 3811.2 1066.42C3809.74 1071.11 3808.56 1075.9 3807.69 1080.78C3806.9 1085.56 3806.37 1090.2 3806.07 1094.69C3805.78 1099.09 3805.63 1102.9 3805.63 1106.12V1190.93H3755.98V1021.75H3775.02L3795.09 1061.15C3797.82 1054.8 3800.95 1048.99 3804.46 1043.72C3807.98 1038.35 3812.03 1033.76 3816.62 1029.95C3821.21 1026.04 3826.39 1023.01 3832.15 1020.87C3838.01 1018.72 3844.6 1017.64 3851.92 1017.64C3855.73 1017.64 3859.98 1017.99 3864.67 1018.67C3869.36 1019.25 3873.95 1020.33 3878.44 1021.89C3882.93 1023.36 3887.08 1025.31 3890.89 1027.75C3894.7 1030.19 3897.68 1033.17 3899.82 1036.69Z" fill="white"/>
<path d="M3963.63 980.876C3963.63 984.587 3962.89 988.103 3961.43 991.423C3960.06 994.743 3958.16 997.624 3955.72 1000.07C3953.28 1002.51 3950.39 1004.46 3947.07 1005.92C3943.75 1007.29 3940.24 1007.98 3936.53 1007.98C3932.82 1007.98 3929.3 1007.29 3925.98 1005.92C3922.76 1004.46 3919.93 1002.51 3917.48 1000.07C3915.04 997.624 3913.09 994.743 3911.62 991.423C3910.26 988.103 3909.57 984.587 3909.57 980.876C3909.57 977.165 3910.26 973.698 3911.62 970.476C3913.09 967.155 3915.04 964.274 3917.48 961.833C3919.93 959.392 3922.76 957.487 3925.98 956.12C3929.3 954.655 3932.82 953.923 3936.53 953.923C3940.24 953.923 3943.75 954.655 3947.07 956.12C3950.39 957.487 3953.28 959.392 3955.72 961.833C3958.16 964.274 3960.06 967.155 3961.43 970.476C3962.89 973.698 3963.63 977.165 3963.63 980.876ZM3961.43 1190.93H3911.77V1021.89H3961.43V1190.93Z" fill="white"/>
<path d="M4034.75 1110.66C4040.81 1112.03 4046.86 1113.1 4052.92 1113.88C4058.97 1114.67 4065.08 1115.06 4071.23 1115.06C4077.67 1115.06 4083.63 1114.47 4089.1 1113.3C4094.67 1112.03 4099.45 1109.98 4103.46 1107.15C4107.56 1104.22 4110.78 1100.36 4113.12 1095.57C4115.47 1090.79 4116.64 1084.83 4116.64 1077.7C4116.64 1071.94 4115.86 1066.67 4114.29 1061.88C4112.73 1057.1 4110.39 1053 4107.26 1049.58C4104.24 1046.16 4100.48 1043.52 4095.98 1041.67C4091.49 1039.71 4086.27 1038.74 4080.31 1038.74C4074.74 1038.74 4069.71 1039.76 4065.22 1041.81C4060.83 1043.86 4056.92 1046.65 4053.5 1050.16C4050.18 1053.58 4047.3 1057.58 4044.86 1062.17C4042.52 1066.76 4040.56 1071.55 4039 1076.53C4037.44 1081.51 4036.32 1086.54 4035.63 1091.62C4034.95 1096.7 4034.61 1101.48 4034.61 1105.97C4034.61 1106.75 4034.61 1107.54 4034.61 1108.32C4034.61 1109.1 4034.66 1109.88 4034.75 1110.66ZM4156.78 1077.26C4156.78 1084.2 4155.65 1090.4 4153.41 1095.87C4151.16 1101.24 4148.08 1105.97 4144.18 1110.08C4140.37 1114.18 4135.93 1117.64 4130.85 1120.48C4125.77 1123.31 4120.35 1125.65 4114.59 1127.51C4108.83 1129.26 4102.87 1130.53 4096.72 1131.32C4090.66 1132.1 4084.75 1132.49 4078.99 1132.49C4071.67 1132.49 4064.44 1132 4057.31 1131.02C4050.18 1129.95 4043.15 1128.29 4036.22 1126.04C4037.29 1132.49 4039 1138.64 4041.35 1144.5C4043.69 1150.26 4046.81 1155.34 4050.72 1159.73C4054.63 1164.03 4059.41 1167.45 4065.08 1169.99C4070.84 1172.53 4077.62 1173.8 4085.44 1173.8C4090.61 1173.8 4095.54 1173.01 4100.23 1171.45C4104.92 1169.89 4109.22 1167.69 4113.12 1164.86C4117.03 1162.03 4120.45 1158.66 4123.38 1154.75C4126.4 1150.85 4128.85 1146.5 4130.7 1141.72L4152.09 1149.63C4148.87 1157.34 4144.42 1164.03 4138.76 1169.69C4133.19 1175.26 4126.84 1179.9 4119.71 1183.61C4112.68 1187.22 4105.16 1189.91 4097.16 1191.67C4089.25 1193.42 4081.38 1194.3 4073.57 1194.3C4060.68 1194.3 4048.77 1192.16 4037.83 1187.86C4026.89 1183.46 4017.47 1177.36 4009.56 1169.55C4001.65 1161.74 3995.45 1152.41 3990.96 1141.57C3986.46 1130.73 3984.22 1118.86 3984.22 1105.97C3984.22 1093.08 3986.46 1081.22 3990.96 1070.38C3995.45 1059.54 4001.65 1050.21 4009.56 1042.4C4017.47 1034.59 4026.89 1028.53 4037.83 1024.24C4048.77 1019.84 4060.68 1017.64 4073.57 1017.64C4079.82 1017.64 4086.22 1018.08 4092.76 1018.96C4099.3 1019.84 4105.65 1021.26 4111.8 1023.21C4117.96 1025.07 4123.77 1027.51 4129.24 1030.53C4134.71 1033.56 4139.44 1037.32 4143.45 1041.81C4147.55 1046.21 4150.77 1051.33 4153.11 1057.19C4155.55 1063.05 4156.78 1069.74 4156.78 1077.26Z" fill="white"/>
<path d="M1799.43 1372.29L1774.38 1382.84C1772.42 1376.49 1769.79 1370.68 1766.47 1365.41C1763.24 1360.13 1759.34 1355.64 1754.75 1351.93C1750.26 1348.12 1745.13 1345.19 1739.37 1343.14C1733.61 1340.99 1727.31 1339.92 1720.47 1339.92C1713.15 1339.92 1706.41 1341.14 1700.26 1343.58C1694.2 1345.92 1688.73 1349.2 1683.85 1353.4C1679.06 1357.59 1674.87 1362.48 1671.25 1368.04C1667.64 1373.61 1664.61 1379.57 1662.17 1385.92C1659.73 1392.17 1657.92 1398.66 1656.75 1405.4C1655.58 1412.14 1654.99 1418.73 1654.99 1425.17C1654.99 1435.43 1656.16 1445.63 1658.51 1455.79C1660.95 1465.94 1664.76 1475.08 1669.93 1483.18C1675.21 1491.29 1681.99 1497.88 1690.29 1502.96C1698.6 1507.94 1708.65 1510.43 1720.47 1510.43C1726.72 1510.43 1732.63 1509.4 1738.2 1507.35C1743.76 1505.2 1748.79 1502.32 1753.28 1498.71C1757.87 1495 1761.88 1490.65 1765.29 1485.67C1768.71 1480.69 1771.45 1475.32 1773.5 1469.56L1798.84 1479.67C1795.13 1488.94 1790.05 1497.1 1783.61 1504.13C1777.16 1511.06 1769.79 1516.82 1761.49 1521.41C1753.28 1526 1744.45 1529.42 1734.97 1531.67C1725.6 1534.01 1716.12 1535.18 1706.55 1535.18C1696.2 1535.18 1686.24 1533.91 1676.67 1531.37C1667.2 1528.83 1658.36 1525.22 1650.16 1520.53C1641.96 1515.85 1634.48 1510.18 1627.75 1503.54C1621.11 1496.9 1615.39 1489.53 1610.61 1481.42C1605.92 1473.32 1602.26 1464.53 1599.62 1455.06C1597.08 1445.49 1595.81 1435.52 1595.81 1425.17C1595.81 1414.82 1597.08 1404.91 1599.62 1395.44C1602.26 1385.87 1605.92 1377.03 1610.61 1368.92C1615.39 1360.72 1621.11 1353.3 1627.75 1346.66C1634.48 1340.02 1641.96 1334.35 1650.16 1329.67C1658.36 1324.98 1667.2 1321.36 1676.67 1318.83C1686.24 1316.29 1696.2 1315.02 1706.55 1315.02C1716.52 1315.02 1726.23 1316.19 1735.71 1318.53C1745.28 1320.88 1754.16 1324.44 1762.37 1329.23C1770.57 1333.91 1777.84 1339.87 1784.19 1347.1C1790.64 1354.23 1795.71 1362.62 1799.43 1372.29Z" fill="white"/>
<path d="M1991.55 1530.93H1942.04V1510.72C1936.18 1518.73 1929.1 1524.68 1920.8 1528.59C1912.59 1532.4 1903.56 1534.3 1893.7 1534.3C1880.81 1534.3 1869.28 1532.01 1859.13 1527.42C1848.97 1522.83 1840.38 1516.58 1833.35 1508.67C1826.31 1500.66 1820.94 1491.29 1817.23 1480.54C1813.52 1469.8 1811.67 1458.28 1811.67 1445.97C1811.67 1433.67 1813.52 1422.15 1817.23 1411.4C1820.94 1400.66 1826.31 1391.33 1833.35 1383.42C1840.38 1375.42 1848.97 1369.12 1859.13 1364.53C1869.28 1359.94 1880.81 1357.64 1893.7 1357.64C1900.24 1357.64 1906.44 1358.62 1912.3 1360.57C1918.26 1362.53 1923.68 1365.31 1928.56 1368.92C1933.54 1372.44 1937.89 1376.74 1941.6 1381.81C1945.41 1386.79 1948.38 1392.36 1950.53 1398.51L1972.51 1361.75H1991.55V1530.93ZM1941.74 1445.97C1941.74 1441.58 1941.5 1436.94 1941.01 1432.06C1940.62 1427.17 1939.89 1422.34 1938.81 1417.56C1937.74 1412.77 1936.23 1408.23 1934.27 1403.93C1932.42 1399.54 1929.98 1395.68 1926.95 1392.36C1924.02 1388.94 1920.46 1386.26 1916.26 1384.3C1912.06 1382.35 1907.17 1381.37 1901.61 1381.37C1896.04 1381.37 1891.21 1382.4 1887.11 1384.45C1883 1386.4 1879.49 1389.09 1876.56 1392.51C1873.63 1395.83 1871.19 1399.68 1869.23 1404.08C1867.38 1408.47 1865.91 1413.06 1864.84 1417.85C1863.77 1422.63 1862.98 1427.47 1862.5 1432.35C1862.11 1437.14 1861.91 1441.68 1861.91 1445.97C1861.91 1450.27 1862.11 1454.86 1862.5 1459.74C1862.98 1464.63 1863.77 1469.46 1864.84 1474.25C1865.91 1479.03 1867.38 1483.62 1869.23 1488.01C1871.19 1492.41 1873.63 1496.32 1876.56 1499.73C1879.49 1503.05 1883 1505.74 1887.11 1507.79C1891.21 1509.74 1896.04 1510.72 1901.61 1510.72C1906.69 1510.72 1911.18 1509.69 1915.08 1507.64C1919.09 1505.5 1922.55 1502.66 1925.48 1499.15C1928.51 1495.63 1931.05 1491.63 1933.1 1487.14C1935.15 1482.64 1936.81 1478 1938.08 1473.22C1939.35 1468.43 1940.28 1463.7 1940.87 1459.01C1941.45 1454.23 1941.74 1449.88 1941.74 1445.97Z" fill="white"/>
<path d="M2203.89 1445.97C2203.89 1458.28 2202.03 1469.8 2198.32 1480.54C2194.61 1491.29 2189.24 1500.66 2182.21 1508.67C2175.18 1516.58 2166.58 1522.83 2156.43 1527.42C2146.27 1532.01 2134.75 1534.3 2121.86 1534.3C2111.99 1534.3 2102.91 1532.4 2094.61 1528.59C2086.41 1524.68 2079.38 1518.73 2073.52 1510.72V1609.01H2024V1361.75H2043.05L2065.02 1398.51C2067.17 1392.36 2070.1 1386.79 2073.81 1381.81C2077.62 1376.74 2081.96 1372.44 2086.85 1368.92C2091.83 1365.31 2097.25 1362.53 2103.11 1360.57C2109.06 1358.62 2115.31 1357.64 2121.86 1357.64C2134.75 1357.64 2146.27 1359.94 2156.43 1364.53C2166.58 1369.12 2175.18 1375.42 2182.21 1383.42C2189.24 1391.33 2194.61 1400.66 2198.32 1411.4C2202.03 1422.15 2203.89 1433.67 2203.89 1445.97ZM2153.64 1445.97C2153.64 1441.68 2153.4 1437.14 2152.91 1432.35C2152.52 1427.47 2151.79 1422.63 2150.71 1417.85C2149.64 1413.06 2148.12 1408.47 2146.17 1404.08C2144.32 1399.68 2141.92 1395.83 2138.99 1392.51C2136.06 1389.09 2132.5 1386.4 2128.3 1384.45C2124.2 1382.4 2119.41 1381.37 2113.95 1381.37C2108.28 1381.37 2103.35 1382.35 2099.15 1384.3C2095.05 1386.26 2091.48 1388.94 2088.46 1392.36C2085.53 1395.68 2083.09 1399.54 2081.13 1403.93C2079.28 1408.23 2077.81 1412.77 2076.74 1417.56C2075.66 1422.34 2074.88 1427.17 2074.39 1432.06C2074 1436.94 2073.81 1441.58 2073.81 1445.97C2073.81 1449.88 2074.1 1454.23 2074.69 1459.01C2075.27 1463.7 2076.2 1468.43 2077.47 1473.22C2078.74 1478 2080.4 1482.64 2082.45 1487.14C2084.5 1491.63 2086.99 1495.63 2089.92 1499.15C2092.95 1502.66 2096.42 1505.5 2100.32 1507.64C2104.33 1509.69 2108.87 1510.72 2113.95 1510.72C2119.51 1510.72 2124.35 1509.74 2128.45 1507.79C2132.55 1505.74 2136.06 1503.05 2138.99 1499.73C2141.92 1496.32 2144.32 1492.41 2146.17 1488.01C2148.12 1483.62 2149.64 1479.03 2150.71 1474.25C2151.79 1469.46 2152.52 1464.63 2152.91 1459.74C2153.4 1454.86 2153.64 1450.27 2153.64 1445.97Z" fill="white"/>
<path d="M2278.82 1320.88C2278.82 1324.59 2278.09 1328.1 2276.62 1331.42C2275.26 1334.74 2273.35 1337.62 2270.91 1340.07C2268.47 1342.51 2265.59 1344.46 2262.27 1345.92C2258.95 1347.29 2255.43 1347.98 2251.72 1347.98C2248.01 1347.98 2244.5 1347.29 2241.18 1345.92C2237.95 1344.46 2235.12 1342.51 2232.68 1340.07C2230.24 1337.62 2228.29 1334.74 2226.82 1331.42C2225.45 1328.1 2224.77 1324.59 2224.77 1320.88C2224.77 1317.17 2225.45 1313.7 2226.82 1310.48C2228.29 1307.16 2230.24 1304.27 2232.68 1301.83C2235.12 1299.39 2237.95 1297.49 2241.18 1296.12C2244.5 1294.66 2248.01 1293.92 2251.72 1293.92C2255.43 1293.92 2258.95 1294.66 2262.27 1296.12C2265.59 1297.49 2268.47 1299.39 2270.91 1301.83C2273.35 1304.27 2275.26 1307.16 2276.62 1310.48C2278.09 1313.7 2278.82 1317.17 2278.82 1320.88ZM2276.62 1530.93H2226.97V1361.89H2276.62V1530.93Z" fill="white"/>
<path d="M2372.95 1530.93H2323.29V1381.37H2292.53V1361.75H2323.29V1299.49H2372.95V1361.75H2424.22V1381.37H2372.95V1530.93Z" fill="white"/>
<path d="M2603.01 1530.93H2553.5V1510.72C2547.64 1518.73 2540.56 1524.68 2532.26 1528.59C2524.05 1532.4 2515.02 1534.3 2505.16 1534.3C2492.27 1534.3 2480.74 1532.01 2470.59 1527.42C2460.43 1522.83 2451.84 1516.58 2444.81 1508.67C2437.78 1500.66 2432.4 1491.29 2428.69 1480.54C2424.98 1469.8 2423.13 1458.28 2423.13 1445.97C2423.13 1433.67 2424.98 1422.15 2428.69 1411.4C2432.4 1400.66 2437.78 1391.33 2444.81 1383.42C2451.84 1375.42 2460.43 1369.12 2470.59 1364.53C2480.74 1359.94 2492.27 1357.64 2505.16 1357.64C2511.7 1357.64 2517.9 1358.62 2523.76 1360.57C2529.72 1362.53 2535.14 1365.31 2540.02 1368.92C2545 1372.44 2549.35 1376.74 2553.06 1381.81C2556.87 1386.79 2559.85 1392.36 2561.99 1398.51L2583.97 1361.75H2603.01V1530.93ZM2553.21 1445.97C2553.21 1441.58 2552.96 1436.94 2552.47 1432.06C2552.08 1427.17 2551.35 1422.34 2550.28 1417.56C2549.2 1412.77 2547.69 1408.23 2545.73 1403.93C2543.88 1399.54 2541.44 1395.68 2538.41 1392.36C2535.48 1388.94 2531.92 1386.26 2527.72 1384.3C2523.52 1382.35 2518.63 1381.37 2513.07 1381.37C2507.5 1381.37 2502.67 1382.4 2498.57 1384.45C2494.46 1386.4 2490.95 1389.09 2488.02 1392.51C2485.09 1395.83 2482.65 1399.68 2480.7 1404.08C2478.84 1408.47 2477.38 1413.06 2476.3 1417.85C2475.23 1422.63 2474.45 1427.47 2473.96 1432.35C2473.57 1437.14 2473.37 1441.68 2473.37 1445.97C2473.37 1450.27 2473.57 1454.86 2473.96 1459.74C2474.45 1464.63 2475.23 1469.46 2476.3 1474.25C2477.38 1479.03 2478.84 1483.62 2480.7 1488.01C2482.65 1492.41 2485.09 1496.32 2488.02 1499.73C2490.95 1503.05 2494.46 1505.74 2498.57 1507.79C2502.67 1509.74 2507.5 1510.72 2513.07 1510.72C2518.15 1510.72 2522.64 1509.69 2526.54 1507.64C2530.55 1505.5 2534.02 1502.66 2536.95 1499.15C2539.97 1495.63 2542.51 1491.63 2544.56 1487.14C2546.61 1482.64 2548.27 1478 2549.54 1473.22C2550.81 1468.43 2551.74 1463.7 2552.33 1459.01C2552.91 1454.23 2553.21 1449.88 2553.21 1445.97Z" fill="white"/>
<path d="M2684.98 1530.93H2635.46V1283.82H2654.51L2684.98 1335.23V1530.93Z" fill="white"/>
<path fill-rule="evenodd" clip-rule="evenodd" d="M368.969 1224.94L344 1249.91L368.969 1274.88L496.564 1402.48V1302.6L443.874 1249.91L496.564 1197.22V1097.35L368.969 1224.94ZM581.31 1012.6L651.627 942.285H751.501L581.31 1112.48V1012.6ZM581.31 1387.35V1487.22L651.627 1557.54H751.501L581.31 1387.35ZM836.247 1642.28L888.912 1694.95L941.577 1642.28H1041.45L913.88 1769.85L888.912 1794.82L863.943 1769.85L736.373 1642.28H836.247ZM1126.2 1557.54H1026.32L1196.56 1387.3V1487.17L1126.2 1557.54ZM1281.31 1402.43L1408.85 1274.88L1433.82 1249.91L1408.85 1224.94L1281.31 1097.4V1197.27L1333.95 1249.91L1281.31 1302.55V1402.43ZM1196.56 1112.53V1012.65L1126.2 942.285H1026.32L1196.56 1112.53ZM941.576 857.539H1041.45L913.88 729.969L888.912 705L863.943 729.969L736.373 857.539H836.247L888.912 804.874L941.576 857.539Z" fill="white"/>
<rect x="538.938" y="899.912" width="700" height="700" stroke="white" stroke-width="35.3108"/>
<path d="M734.023 1326.74H691.714V1193.96H649.938V1174.51H775.799V1193.96H734.023V1326.74Z" fill="white"/>
<path d="M811.987 1213.2L800.051 1326.74H773.941L800.051 1174.51H838.736L874.651 1290.69L910.992 1174.51H949.678L971.419 1326.74H928.364L915.682 1216.16L885.735 1326.74H847.049L811.987 1213.2Z" fill="white"/>
<path d="M1130.16 1212.25L1111.94 1219.86C1110.52 1215.28 1108.6 1211.09 1106.19 1207.28C1103.84 1203.47 1101 1200.23 1097.66 1197.55C1094.39 1194.8 1090.66 1192.69 1086.47 1191.21C1082.28 1189.66 1077.7 1188.88 1072.72 1188.88C1067.39 1188.88 1062.49 1189.77 1058.02 1191.53C1053.61 1193.22 1049.63 1195.58 1046.08 1198.61C1042.6 1201.64 1039.54 1205.17 1036.91 1209.18C1034.28 1213.2 1032.08 1217.5 1030.31 1222.08C1028.53 1226.59 1027.22 1231.28 1026.36 1236.14C1025.51 1241 1025.08 1245.76 1025.08 1250.41C1025.08 1257.81 1025.94 1265.18 1027.64 1272.51C1029.42 1279.84 1032.19 1286.43 1035.95 1292.28C1039.79 1298.13 1044.73 1302.89 1050.77 1306.55C1056.81 1310.15 1064.13 1311.94 1072.72 1311.94C1077.27 1311.94 1081.57 1311.2 1085.62 1309.72C1089.67 1308.17 1093.33 1306.09 1096.59 1303.49C1099.93 1300.81 1102.85 1297.67 1105.33 1294.08C1107.82 1290.48 1109.81 1286.61 1111.3 1282.45L1129.74 1289.74C1127.04 1296.44 1123.34 1302.32 1118.65 1307.4C1113.97 1312.4 1108.6 1316.56 1102.56 1319.87C1096.59 1323.19 1090.16 1325.65 1083.27 1327.27C1076.45 1328.96 1069.56 1329.81 1062.6 1329.81C1055.07 1329.81 1047.82 1328.89 1040.86 1327.06C1033.97 1325.23 1027.54 1322.62 1021.57 1319.24C1015.6 1315.86 1010.16 1311.77 1005.26 1306.97C1000.43 1302.18 996.274 1296.86 992.793 1291.01C989.383 1285.16 986.718 1278.82 984.8 1271.98C982.953 1265.07 982.029 1257.88 982.029 1250.41C982.029 1242.94 982.953 1235.79 984.8 1228.95C986.718 1222.05 989.383 1215.67 992.793 1209.82C996.274 1203.9 1000.43 1198.54 1005.26 1193.75C1010.16 1188.95 1015.6 1184.87 1021.57 1181.48C1027.54 1178.1 1033.97 1175.49 1040.86 1173.66C1047.82 1171.83 1055.07 1170.91 1062.6 1170.91C1069.84 1170.91 1076.91 1171.76 1083.81 1173.45C1090.77 1175.14 1097.23 1177.71 1103.2 1181.17C1109.17 1184.55 1114.46 1188.85 1119.08 1194.06C1123.77 1199.21 1127.46 1205.27 1130.16 1212.25Z" fill="white"/>
</svg>
